<svg width="40" height="24" viewBox="0 0 40 24" version="1.1" xmlns="http://www.w3.org/2000/svg" xmlns:xlink="http://www.w3.org/1999/xlink">
<g id="Canvas" fill="none">
<g id="Vector">
<path d="M 18.9083 4.56791C 19.1873 4.2746 19.4087 3.92611 19.5597 3.54243C 19.7107 3.15874 19.7884 2.7474 19.7884 2.33198C 19.7884 1.91655 19.7107 1.50521 19.5597 1.12152C 19.4087 0.737839 19.1873 0.389353 18.9083 0.0960377L 18.8375 0.0185547L 10.3193 9.00105C 10.2063 9.11934 10.0535 9.18572 9.89422 9.18572C 9.73496 9.18572 9.58216 9.11934 9.4691 9.00105L 0.950967 0.0185547L 0.880113 0.0960377C 0.601138 0.389353 0.379794 0.737839 0.228768 1.12152C 0.0777409 1.50521 0 1.91655 0 2.33198C 0 2.7474 0.0777409 3.15874 0.228768 3.54243C 0.379794 3.92611 0.601138 4.2746 0.880113 4.56791L 8.30396 12.3965C 8.51262 12.617 8.76049 12.792 9.03337 12.9114C 9.30625 13.0308 9.59879 13.0922 9.89422 13.0922C 10.1897 13.0922 10.4822 13.0308 10.7551 12.9114C 11.028 12.792 11.2758 12.617 11.4845 12.3965L 18.9083 4.56791Z" fill="white"/>
<path d="M 21.0915 19.4499C 20.8126 19.7433 20.5912 20.0917 20.4402 20.4754C 20.2892 20.8591 20.2114 21.2705 20.2114 21.6859C 20.2114 22.1013 20.2892 22.5126 20.4402 22.8963C 20.5912 23.28 20.8126 23.6285 21.0915 23.9218L 21.1624 23.9993L 29.6805 15.0196C 29.7362 14.9603 29.8024 14.9133 29.8753 14.8812C 29.9483 14.8491 30.0266 14.8326 30.1056 14.8326C 30.1847 14.8326 30.263 14.8491 30.336 14.8812C 30.4089 14.9133 30.4751 14.9603 30.5308 15.0196L 39.0489 23.9993L 39.1198 23.9218C 39.3987 23.6285 39.6201 23.28 39.7711 22.8963C 39.9221 22.5126 39.9999 22.1013 39.9999 21.6859C 39.9999 21.2705 39.9221 20.8591 39.7711 20.4754C 39.6201 20.0917 39.3987 19.7433 39.1198 19.4499L 31.6959 11.6242C 31.2738 11.1801 30.7019 10.9307 30.1056 10.9307C 29.5094 10.9307 28.9375 11.1801 28.5154 11.6242L 21.0915 19.4499Z" fill="white"/>
<path d="M 39.1199 8.52433L 31.696 0.695781C 31.4874 0.475226 31.2395 0.300242 30.9666 0.180849C 30.6937 0.0614561 30.4012 0 30.1058 0C 29.8103 0 29.5178 0.0614561 29.2449 0.180849C 28.972 0.300242 28.7242 0.475226 28.5155 0.695781L 21.0917 8.52433C 21.0175 8.60238 20.9474 8.6846 20.8817 8.77062L 10.3193 19.9088C 10.2063 20.0271 10.0535 20.0935 9.89422 20.0935C 9.73496 20.0935 9.58216 20.0271 9.4691 19.9088L 0.950967 10.9263L 0.880113 11.0038C 0.601138 11.2971 0.379794 11.6456 0.228768 12.0293C 0.0777409 12.413 0 12.8243 0 13.2397C 0 13.6552 0.0777409 14.0665 0.228768 14.4502C 0.379794 14.8339 0.601138 15.1824 0.880113 15.4757L 8.30396 23.3042C 8.51262 23.5248 8.76049 23.6998 9.03337 23.8192C 9.30625 23.9385 9.59879 24 9.89422 24C 10.1897 24 10.4822 23.9385 10.7551 23.8192C 11.028 23.6998 11.2758 23.5248 11.4845 23.3042L 25.9805 8.02623L 25.9805 8.01239L 29.6807 4.0912C 29.7937 3.97291 29.9465 3.90653 30.1058 3.90653C 30.265 3.90653 30.4178 3.97291 30.5309 4.0912L 39.049 13.0737L 39.1199 12.9962C 39.3989 12.7029 39.6202 12.3544 39.7712 11.9707C 39.9223 11.587 40 11.1757 40 10.7603C 40 10.3448 39.9223 9.9335 39.7712 9.54982C 39.6202 9.16613 39.3989 8.81765 39.1199 8.52433Z" fill="white"/>
</g>
</g>
</svg>
