<?xml version="1.0" encoding="UTF-8" standalone="no"?>
<svg
   xmlns:dc="http://purl.org/dc/elements/1.1/"
   xmlns:cc="http://creativecommons.org/ns#"
   xmlns:rdf="http://www.w3.org/1999/02/22-rdf-syntax-ns#"
   xmlns:svg="http://www.w3.org/2000/svg"
   xmlns="http://www.w3.org/2000/svg"
   id="svg2348"
   version="1.1"
   viewBox="0 0 22 24"
   height="24"
   width="22">
  <metadata
     id="metadata2354">
    <rdf:RDF>
      <cc:Work
         rdf:about="">
        <dc:format>image/svg+xml</dc:format>
        <dc:type
           rdf:resource="http://purl.org/dc/dcmitype/StillImage" />
        <dc:title></dc:title>
      </cc:Work>
    </rdf:RDF>
  </metadata>
  <defs
     id="defs2352" />
  <g
     style="fill:#000000"
     fill="none"
     id="Canvas">
    <path
       style="fill:#000000"
       fill="white"
       d="M 15.5409 16.2614C 15.4338 16.2086 14.6808 15.5191 14.6808 13.9818C 14.6808 13.929 14.6808 13.8762 14.6272 13.8224C 15.4874 12.8151 15.8644 11.6494 16.0251 11.1194C 16.4557 9.42372 16.3475 6.71956 16.3475 6.56134C 16.294 6.0313 16.1858 5.50125 16.0787 5.024C 17.6383 2.21425 16.1322 0.306366 16.0787 0.253627C 15.9169 0.0414033 15.5409 -0.0641864 15.2721 0.0414033C 15.2721 0.0414033 13.9277 0.571445 10.8083 0.571445L 10.0017 0.571445C 8.49555 0.571445 6.82872 0.67704 5.86159 2.16157C 4.94786 3.53947 5.43097 5.9246 5.59272 6.61419C 5.59272 6.98479 5.53916 9.47668 5.91515 11.0668C 6.02228 11.5968 6.45289 12.8164 7.31306 13.8225L 7.31306 13.9281C 7.31306 15.4654 6.56001 16.1538 6.45289 16.2077C 0.215365 19.9718 0 22.9928 0 23.3116C 0 23.6822 0.26887 23.9472 0.644859 23.9472C 1.0219 24 1.34435 23.6822 1.34435 23.3644C 1.34435 23.3644 1.50609 20.8197 6.93713 17.5867L 7.36775 19.0173C 7.36775 19.1229 7.90549 21.1375 11.0249 21.1375C 13.929 21.1375 14.5202 19.4946 14.6273 19.1768L 15.1114 17.5867C 20.4888 20.7669 20.7042 23.3116 20.7042 23.3644C 20.7042 23.735 21.0266 24 21.3491 24C 21.7251 24 21.9939 23.6822 21.9939 23.3644C 22.0475 22.9927 21.8856 19.9717 15.5409 16.2614ZM 7.09786 2.95763C 7.6356 2.16256 8.60397 2.00313 10.1089 2.00313L 10.9156 2.00313C 13.1736 2.00313 14.5727 1.7381 15.3245 1.52588C 15.5398 2.05592 15.7551 3.16879 14.8939 4.60065C 14.6786 4.86567 13.6031 5.29013 11.9363 5.34292C 10.7537 5.39572 9.73177 5.18349 9.19409 4.86567C 9.03234 4.76008 8.87166 4.76008 8.65634 4.76008C 8.4946 4.81287 8.33391 4.9195 8.22572 5.07789C 8.22572 5.07789 7.7951 5.76737 6.88137 5.92574C 6.72173 5.07789 6.61474 3.64599 7.09786 2.95763ZM 13.2819 18.8061C 13.2819 18.8589 13.013 19.7606 11.0238 19.7606C 9.03459 19.7606 8.71109 18.7006 8.65753 18.595L 8.01267 16.4748C 8.28154 16.1042 8.49685 15.5203 8.60397 14.8319C 9.24883 15.1497 10.0019 15.4147 10.9702 15.4147C 11.9386 15.4147 12.7452 15.2025 13.3901 14.8319C 13.4972 15.5742 13.7661 16.1042 14.0349 16.4748L 13.2819 18.8061ZM 11.0238 14.0885C 8.38866 14.0885 7.52849 11.8089 7.31312 10.8028C 7.04425 9.74269 7.04425 8.09983 7.04425 7.25203C 8.01261 7.0926 8.65747 6.6164 9.03346 6.19194C 9.78651 6.50975 10.8084 6.66919 11.991 6.6164C 13.013 6.6164 14.142 6.40418 15.0021 6.03357C 15.0557 6.24579 15.0557 6.40417 15.1092 6.6164C 15.1092 6.6164 15.2164 9.26661 14.8404 10.7513C 14.4654 11.8093 13.6589 14.0885 11.0238 14.0885Z"
       id="Vector" />
  </g>
</svg>
