<?xml version="1.0" encoding="UTF-8" standalone="no"?>
<svg
   xmlns:dc="http://purl.org/dc/elements/1.1/"
   xmlns:cc="http://creativecommons.org/ns#"
   xmlns:rdf="http://www.w3.org/1999/02/22-rdf-syntax-ns#"
   xmlns:svg="http://www.w3.org/2000/svg"
   xmlns="http://www.w3.org/2000/svg"
   width="24"
   height="20"
   viewBox="0 0 24 20"
   version="1.1"
   id="svg4">
  <metadata
     id="metadata10">
    <rdf:RDF>
      <cc:Work
         rdf:about="">
        <dc:format>image/svg+xml</dc:format>
        <dc:type
           rdf:resource="http://purl.org/dc/dcmitype/StillImage" />
        <dc:title></dc:title>
      </cc:Work>
    </rdf:RDF>
  </metadata>
  <defs
     id="defs8" />
  <g
     id="Canvas"
     fill="none"
     style="stroke:#000000" />
  <path
     d="m 12.033203,6.4570312 c -2.6466108,0 -4.8124999,2.1678423 -4.8124999,4.8144528 0,2.646611 2.1658891,4.8125 4.8124999,4.8125 2.646611,0 4.814453,-2.165889 4.814453,-4.8125 0,-2.6466105 -2.167842,-4.8144528 -4.814453,-4.8144528 z m 0,2 c 1.565731,0 2.814453,1.2487225 2.814453,2.8144528 0,1.565731 -1.248722,2.8125 -2.814453,2.8125 -1.565731,0 -2.8124999,-1.246769 -2.8124999,-2.8125 0,-1.5657303 1.2467689,-2.8144528 2.8124999,-2.8144528 z M 9,0 A 1.0001,1.0001 0 0 0 8.1679688,0.4453125 L 6.4648438,3 H 3 C 2.2047408,3 1.4412489,3.3165531 0.87890625,3.8789062 0.31656579,4.4412437 0,5.2047358 0,6 v 11 c 0,0.795249 0.31660513,1.558751 0.87890625,2.121094 C 1.4412572,19.683485 2.2047534,20 3,20 h 18 c 0.795232,0 1.558739,-0.316551 2.121094,-0.878906 C 23.683449,18.558739 24,17.795232 24,17 V 6 C 24,5.2047534 23.683488,4.4412554 23.121094,3.8789062 22.558747,3.3165898 21.795244,3 21,3 H 17.535156 L 15.832031,0.4453125 A 1.0001,1.0001 0 0 0 15,0 Z m 0.5351562,2 h 4.9296878 l 1.703125,2.5546875 A 1.0001,1.0001 0 0 0 17,5 h 4 c 0.265556,0 0.519178,0.1051252 0.707031,0.2929688 C 21.894837,5.4807596 22,5.7343866 22,6 v 11 c 0,0.265568 -0.105124,0.519186 -0.292969,0.707031 C 21.519186,17.894876 21.265568,18 21,18 H 3 C 2.7343866,18 2.4807638,17.89484 2.2929688,17.707031 2.1051259,17.519174 2,17.265551 2,17 V 6 C 2,5.7344042 2.1051652,5.4807713 2.2929688,5.2929688 2.4807721,5.1051619 2.7343992,5 3,5 H 7 A 1.0001,1.0001 0 0 0 7.8320312,4.5546875 Z"
     style="color:#000000;font-style:normal;font-variant:normal;font-weight:normal;font-stretch:normal;font-size:medium;line-height:normal;font-family:sans-serif;font-variant-ligatures:normal;font-variant-position:normal;font-variant-caps:normal;font-variant-numeric:normal;font-variant-alternates:normal;font-feature-settings:normal;text-indent:0;text-align:start;text-decoration:none;text-decoration-line:none;text-decoration-style:solid;text-decoration-color:#000000;letter-spacing:normal;word-spacing:normal;text-transform:none;writing-mode:lr-tb;direction:ltr;text-orientation:mixed;dominant-baseline:auto;baseline-shift:baseline;text-anchor:start;white-space:normal;shape-padding:0;clip-rule:nonzero;display:inline;overflow:visible;visibility:visible;opacity:0.95999995;isolation:auto;mix-blend-mode:normal;color-interpolation:sRGB;color-interpolation-filters:linearRGB;solid-color:#000000;solid-opacity:1;vector-effect:none;fill:#000000;fill-opacity:1;fill-rule:nonzero;stroke:none;stroke-width:2;stroke-linecap:round;stroke-linejoin:round;stroke-miterlimit:4;stroke-dasharray:none;stroke-dashoffset:0;stroke-opacity:1;color-rendering:auto;image-rendering:auto;shape-rendering:auto;text-rendering:auto;enable-background:accumulate"
     id="path817" />
</svg>
