<?xml version="1.0" encoding="UTF-8" standalone="no"?>
<svg
   xmlns:dc="http://purl.org/dc/elements/1.1/"
   xmlns:cc="http://creativecommons.org/ns#"
   xmlns:rdf="http://www.w3.org/1999/02/22-rdf-syntax-ns#"
   xmlns:svg="http://www.w3.org/2000/svg"
   xmlns="http://www.w3.org/2000/svg"
   id="svg1718"
   version="1.1"
   viewBox="0 0 22 24"
   height="24"
   width="22">
  <metadata
     id="metadata1724">
    <rdf:RDF>
      <cc:Work
         rdf:about="">
        <dc:format>image/svg+xml</dc:format>
        <dc:type
           rdf:resource="http://purl.org/dc/dcmitype/StillImage" />
        <dc:title></dc:title>
      </cc:Work>
    </rdf:RDF>
  </metadata>
  <defs
     id="defs1722" />
  <g
     style="fill:#000000"
     fill="none"
     id="Canvas">
    <path
       style="fill:#000000"
       fill="white"
       d="M 15.5705 16.2837C 15.5168 16.2837 15.5168 16.2307 15.4632 16.2307C 15.4632 16.2307 15.0317 16.0177 14.655 15.4855C 17.0795 15.0593 18.5336 14.4212 18.5886 14.3682C 18.8043 14.2622 18.9116 14.1021 18.9653 13.889C 19.019 13.676 18.9116 13.4629 18.7496 13.3039C 16.9175 11.5473 16.6481 7.4502 16.5945 6.59902C 16.5945 5.26863 16.3251 3.14002 15.0318 1.64946C 14.0616 0.532153 12.661 0 10.9374 0C 9.21377 0 7.81199 0.532153 6.84301 1.64946C 5.54974 3.08585 5.28035 5.10846 5.28035 6.43884C 5.28035 6.49185 5.22669 11.3341 3.12526 13.3039C 2.96321 13.4639 2.90954 13.676 2.90954 13.889C 2.96321 14.1021 3.07159 14.2611 3.28625 14.3682C 3.33992 14.4212 4.74051 15.1134 7.27344 15.4855C 6.95039 15.9646 6.51894 16.1777 6.51894 16.1777C 6.51894 16.1777 6.46528 16.1777 6.46528 16.2307C 0.215778 19.9558 0 23.0418 0 23.3618C 0 23.7339 0.269387 24 0.646097 24C 1.02386 24 1.34693 23.7339 1.34693 23.3618C 1.34693 23.3618 1.50898 20.8071 6.89683 17.5611L 8.51315 23.5207C 8.62049 23.8398 8.88986 23.9998 9.15925 23.9998L 9.3213 23.9998C 9.69801 23.8938 9.91374 23.5207 9.80641 23.2016L 9.10558 20.7009C 9.64435 20.967 10.2368 21.1801 10.9913 21.1801C 11.7458 21.1801 12.3382 21.02 12.877 20.7539L 12.2298 23.2016C 12.1225 23.5737 12.3372 23.9468 12.715 23.9998L 12.877 23.9998C 13.1464 23.9998 13.4694 23.7868 13.5231 23.5207L 15.1394 17.5611C 20.4735 20.754 20.6893 23.2546 20.6893 23.3618C 20.6893 23.7339 21.0124 24 21.3354 24C 21.7121 24 21.9815 23.6809 21.9815 23.3618C 22.0899 23.0417 21.9274 20.0088 15.5705 16.2837ZM 7.97406 2.55365C 8.6749 1.75542 9.6977 1.32927 11.0445 1.32927C 12.3914 1.32927 13.4153 1.70135 14.115 2.55365C 14.9232 3.40488 15.1925 4.62926 15.2999 5.69362C 13.7909 5.10846 13.2521 2.66088 13.2521 2.6066C 13.1984 2.28752 12.929 2.07444 12.606 2.07444C 12.283 2.07444 12.0136 2.23451 11.9052 2.5536C 10.9897 5.64061 8.02654 6.65064 6.62465 6.971C 6.68042 5.90669 6.8418 3.88403 7.97406 2.55365ZM 15.3547 7.07695C 15.3547 7.39603 15.301 7.6091 15.301 7.6621L 15.301 7.76812C 15.301 9.20451 14.6002 10.2688 13.9541 11.2801C 13.6847 11.7062 13.3617 12.1843 13.1996 12.6104C 13.0376 12.7705 12.2841 13.6218 11.0445 13.6218C 9.69759 13.6218 8.94309 12.6104 8.83577 12.5044C 8.62005 12.0783 8.40432 11.7062 8.13493 11.2801C 7.5425 10.3758 7.00373 9.47053 6.84166 8.30027C 8.13493 8.0342 10.9897 7.18296 12.5524 4.5752C 13.0375 5.58754 13.9005 6.81087 15.3547 7.07695ZM 7.8655 14.261C 6.51857 14.0479 5.49468 13.7819 4.84864 13.5158C 5.49474 12.6646 5.87252 11.6003 6.14191 10.536C 6.4113 11.0682 6.68068 11.5473 6.95007 11.9724C 7.43518 12.7176 7.86555 13.3558 7.86555 13.995L 7.8655 14.261ZM 13.5226 18.5182L 13.4689 18.5712C 13.4689 18.5712 12.6071 19.7956 11.0981 19.7956C 9.58914 19.7956 8.67365 18.5182 8.67365 18.4652L 8.61998 18.4122L 8.13487 16.7098C 8.61999 16.2306 9.1051 15.4854 9.21242 14.4752C 9.69753 14.7412 10.3436 14.9543 11.0981 14.9543C 11.8526 14.9543 12.4451 14.7412 12.9838 14.5282C 13.0912 15.5395 13.6299 16.2847 14.0614 16.7628L 13.5226 18.5182ZM 14.2235 13.9949C 14.2235 13.4098 14.6549 12.7706 15.1389 11.9723C 15.4083 11.5462 15.7314 11.0681 15.9471 10.5359C 16.2165 11.5472 16.6479 12.6116 17.2404 13.4628C 16.5943 13.6759 15.5704 13.9949 14.2235 14.208L 14.2235 13.9949Z"
       id="Vector" />
  </g>
</svg>
