<svg width="100" height="75" viewBox="0 0 100 75" fill="none" xmlns="http://www.w3.org/2000/svg">
<path d="M95.312 12.5H83.781L77.531 0H53.719L47.469 12.5H25V6.25H9.375V12.5H4.6875C2.0977 12.5 0 14.5977 0 17.1875V70.3125C0 72.9023 2.0977 75 4.6875 75H95.3125C97.9023 75 100 72.9023 100 70.3125V17.1875C100 14.5977 97.9023 12.5 95.3125 12.5H95.312ZM12.5 9.375H21.875V12.5H12.5V9.375ZM96.875 70.313C96.875 70.7271 96.7109 71.1255 96.418 71.4185C96.125 71.7115 95.7266 71.8755 95.3125 71.8755H4.68747C3.82419 71.8755 3.12497 71.1763 3.12497 70.313V17.188C3.12497 16.3248 3.82419 15.6255 4.68747 15.6255H49.4065L55.6565 3.12553H75.5945L81.8445 15.6255H95.3135C95.7275 15.6255 96.126 15.7896 96.419 16.0826C96.712 16.3755 96.876 16.774 96.876 17.1881L96.875 70.313Z" fill="#E5E5E5"/>
<path d="M0 0H3.125V50H0V0Z" transform="translate(21.875 18.75)" fill="#E5E5E5"/>
<path d="M25.0002 0C18.3713 0 12.0122 2.6328 7.3242 7.3242C2.6328 12.0117 1.63574e-06 18.3712 1.63574e-06 25.0002C1.63574e-06 31.6292 2.6328 37.9882 7.3242 42.6762C12.0117 47.3676 18.3712 50.0004 25.0002 50.0004C31.6292 50.0004 37.9882 47.3676 42.6762 42.6762C47.3676 37.9887 50.0004 31.6292 50.0004 25.0002C50.0004 18.3712 47.3676 12.0122 42.6762 7.3242C37.9887 2.6328 31.6292 0 25.0002 0ZM25.0002 46.875C19.1994 46.875 13.6332 44.5703 9.5312 40.4688C5.4292 36.3673 3.125 30.8008 3.125 24.9998C3.125 19.1988 5.4297 13.6328 9.5312 9.5308C13.6327 5.4288 19.1992 3.1246 25.0002 3.1246C30.8012 3.1246 36.3672 5.4293 40.4692 9.5308C44.5712 13.6323 46.8754 19.1988 46.8754 24.9998C46.8754 30.8008 44.5707 36.3668 40.4692 40.4688C36.3677 44.5708 30.8012 46.875 25.0002 46.875Z" transform="translate(40.6248 18.75)" fill="#E5E5E5"/>
<path d="M15.6251 0C11.4806 0 7.5079 1.6445 4.5781 4.5781C1.6445 7.5078 8.17871e-07 11.4804 8.17871e-07 15.6251C8.17871e-07 19.7698 1.6445 23.7423 4.5781 26.6721C7.5078 29.6057 11.4804 31.2502 15.6251 31.2502C19.7698 31.2502 23.7423 29.6057 26.6721 26.6721C29.6057 23.7424 31.2502 19.7698 31.2502 15.6251C31.2502 11.4804 29.6057 7.5079 26.6721 4.5781C23.7424 1.6445 19.7698 0 15.6251 0ZM15.6251 28.125C10.5704 28.125 6.0118 25.0781 4.0781 20.4102C2.1406 15.7383 3.21091 10.3592 6.7851 6.7852C10.3593 3.211 15.7382 2.1407 20.4101 4.0782C25.0781 6.0118 28.1249 10.5704 28.1249 15.6252C28.1249 18.9416 26.8085 22.1213 24.4647 24.465C22.1209 26.8087 18.9413 28.1252 15.6249 28.1252L15.6251 28.125Z" transform="translate(49.9999 28.125)" fill="#E5E5E5"/>
<path d="M6.25 3.126C6.25 7.294 0 7.294 0 3.126C0 -1.042 6.25 -1.042 6.25 3.126Z" transform="translate(37.5 18.749)" fill="#E5E5E5"/>
</svg>
