<svg width="38" height="33" viewBox="0 0 38 33" fill="none" xmlns="http://www.w3.org/2000/svg">
<path d="M15.054 1.64865L0.461747 25.8627C0.160889 26.3805 0.00169821 26.9677 1.36116e-05 27.5657C-0.00167099 28.1637 0.154209 28.7518 0.452145 29.2713C0.750081 29.7909 1.17969 30.2238 1.69822 30.5271C2.21676 30.8304 2.80615 30.9934 3.40776 31H32.5922C33.1938 30.9934 33.7832 30.8304 34.3018 30.5271C34.8203 30.2238 35.2499 29.7909 35.5479 29.2713C35.8458 28.7518 36.0017 28.1637 36 27.5657C35.9983 26.9677 35.8391 26.3805 35.5383 25.8627L20.946 1.64865C20.6389 1.14537 20.2064 0.729269 19.6904 0.440489C19.1744 0.151709 18.5922 -1.67617e-07 18 -1.67617e-07C17.4078 -1.67617e-07 16.8256 0.151709 16.3096 0.440489C15.7936 0.729269 15.3611 1.14537 15.054 1.64865V1.64865Z" transform="translate(1 1)" stroke="#F8728A" stroke-width="2" stroke-linecap="round" stroke-linejoin="round"/>
<path d="M0 0V6.84979" transform="translate(19 12)" stroke="#F8728A" stroke-width="2" stroke-linecap="round" stroke-linejoin="round"/>
<path d="M0 0V1" transform="translate(19 23.5498)" stroke="#F8728A" stroke-width="2" stroke-linecap="round" stroke-linejoin="round"/>
</svg>
