<svg width="9" height="10" viewBox="0 0 9 10" fill="none" xmlns="http://www.w3.org/2000/svg">
<path d="M0.852194 4.07066C0.626248 4.07059 0.409573 3.98555 0.249779 3.83422C0.089985 3.68288 0.000145198 3.47765 0 3.2636V0.79259C0.00400393 0.581084 0.0955053 0.379523 0.25481 0.231289C0.414114 0.0830551 0.628485 -5.43351e-08 0.851783 -5.43351e-08C1.07508 -5.43351e-08 1.28945 0.0830551 1.44876 0.231289C1.60806 0.379523 1.69956 0.581084 1.70357 0.79259V3.26386C1.7036 3.36981 1.68161 3.47473 1.63884 3.57263C1.59608 3.67052 1.53338 3.75949 1.45432 3.83443C1.37526 3.90937 1.2814 3.96883 1.17808 4.0094C1.07477 4.04998 0.964034 4.07088 0.852194 4.07092" transform="translate(0 3.11328)" fill="white"/>
<path d="M0.622778 -2.9872e-08C0.457643 -2.9872e-08 0.299272 0.0621453 0.182504 0.172765C0.0657365 0.283384 0.000136985 0.433416 0.000136985 0.589855V3.0606C-0.00160139 3.13912 0.0132221 3.21718 0.0437387 3.2902C0.0742553 3.36322 0.119851 3.42974 0.177853 3.48585C0.235856 3.54197 0.305098 3.58655 0.381522 3.61698C0.457946 3.64741 0.540013 3.66309 0.622915 3.66309C0.705817 3.66309 0.787884 3.64741 0.864308 3.61698C0.940732 3.58655 1.00997 3.54197 1.06798 3.48585C1.12598 3.42974 1.17157 3.36322 1.20209 3.2902C1.23261 3.21718 1.24743 3.13912 1.24569 3.0606V0.589596C1.24555 0.433133 1.17982 0.283129 1.06296 0.172565C0.946092 0.0620022 0.787664 -6.88957e-05 0.622504 -2.9872e-08" transform="translate(0.228516 3.31543)" fill="white"/>
<path d="M6.0689 3.43784H5.8399H0.229553H2.08991e-08V3.22167C2.08991e-08 2.33079 0.5117 1.50245 1.35047 1.01303L1.02422 0.44912C1.00417 0.414962 0.991428 0.377392 0.986728 0.338561C0.982027 0.299731 0.98546 0.260404 0.996828 0.222832C1.00871 0.184581 1.02852 0.148955 1.05509 0.118034C1.08166 0.0871126 1.11447 0.0615151 1.1516 0.0427353C1.19725 0.0186895 1.24866 0.00617793 1.30089 0.00640463C1.35758 0.00644726 1.41323 0.0209211 1.46199 0.0483122C1.51076 0.0757034 1.55086 0.115005 1.57811 0.162108L1.91942 0.751184C2.6405 0.503787 3.43032 0.503787 4.1514 0.751184L4.49217 0.162108C4.51147 0.12659 4.53809 0.0950975 4.57046 0.0694908C4.60282 0.0438842 4.64028 0.0246828 4.68061 0.0130211C4.72094 0.00135947 4.76333 -0.00252596 4.80528 0.00159442C4.84722 0.0057148 4.88787 0.0177574 4.92482 0.0370107C4.96177 0.0562641 4.99427 0.0823376 5.0204 0.113691C5.04653 0.145044 5.06577 0.181041 5.07696 0.219555C5.08816 0.258069 5.0911 0.298319 5.0856 0.337927C5.08011 0.377535 5.06628 0.415697 5.04495 0.450158L4.71898 1.0138C5.55665 1.50401 6.0689 2.33183 6.0689 3.22089V3.43784Z" transform="translate(1.46387)" fill="white"/>
<path d="M4.18098 0.878577L4.61543 0.126012C4.62186 0.116557 4.62616 0.105947 4.62807 0.0948451C4.62997 0.0837433 4.62943 0.0723891 4.62649 0.0614926C4.62355 0.0505961 4.61827 0.0403918 4.61097 0.0315182C4.60368 0.0226445 4.59453 0.0152924 4.5841 0.00992174C4.57367 0.00455109 4.56218 0.00127748 4.55035 0.000305698C4.53852 -0.00066608 4.52661 0.000684902 4.51536 0.00427409C4.50411 0.00786328 4.49376 0.0136135 4.48496 0.0211649C4.47616 0.0287164 4.4691 0.0379066 4.46423 0.0481607L4.02594 0.807732C3.64163 0.648136 3.22657 0.565739 2.80695 0.565739C2.38734 0.565739 1.97228 0.648136 1.58797 0.807732L1.14776 0.0481607C1.14273 0.0381438 1.13559 0.0292033 1.12679 0.0218838C1.11798 0.0145644 1.1077 0.00901927 1.09656 0.00558627C1.08542 0.00215328 1.07367 0.000904267 1.062 0.00191535C1.05034 0.00292644 1.03901 0.00617646 1.02872 0.0114674C1.01842 0.0167583 1.00937 0.0239794 1.00212 0.0326908C0.994866 0.0414021 0.98956 0.0514213 0.986525 0.0621381C0.98349 0.0728548 0.98279 0.0840446 0.984467 0.0950259C0.986144 0.106007 0.990164 0.11655 0.996281 0.126012L1.43128 0.878577C0.576621 1.29612 -0.000547431 2.09124 4.27308e-07 3.00392H5.61034C5.61034 2.09124 5.03509 1.29794 4.18098 0.879356V0.878577ZM1.5288 2.04116C1.48227 2.04111 1.43681 2.02799 1.39815 2.00347C1.35949 1.97894 1.32937 1.94411 1.3116 1.90337C1.29383 1.86263 1.28921 1.81782 1.29832 1.7746C1.30743 1.73137 1.32987 1.69168 1.36278 1.66053C1.3957 1.62938 1.43763 1.60817 1.48327 1.59959C1.52891 1.59101 1.5762 1.59544 1.61918 1.61232C1.66216 1.6292 1.6989 1.65777 1.72474 1.69443C1.75059 1.73108 1.76438 1.77417 1.76438 1.81824C1.76438 1.84754 1.75828 1.87655 1.74644 1.90361C1.7346 1.93067 1.71724 1.95526 1.69536 1.97596C1.67348 1.99666 1.64751 2.01308 1.61893 2.02427C1.59035 2.03545 1.55972 2.04119 1.5288 2.04116ZM4.08319 2.04116C4.03655 2.04126 3.99093 2.02825 3.9521 2.00376C3.91328 1.97928 3.883 1.94443 3.8651 1.90363C3.8472 1.86283 3.84249 1.81791 3.85156 1.77457C3.86064 1.73123 3.88308 1.69142 3.91606 1.66018C3.94904 1.62894 3.99107 1.60767 4.03682 1.59907C4.08257 1.59048 4.12998 1.59494 4.17305 1.6119C4.21612 1.62885 4.2529 1.65754 4.27875 1.69432C4.30459 1.7311 4.31833 1.77432 4.31822 1.8185C4.31826 1.84775 4.3122 1.87672 4.3004 1.90375C4.2886 1.93078 4.27129 1.95534 4.24946 1.97602C4.22763 1.9967 4.20171 2.0131 4.17317 2.02428C4.14464 2.03546 4.11406 2.04119 4.08319 2.04116Z" transform="translate(1.69336 0.217773)" fill="white"/>
<path d="M1.96928 6.78917C1.74347 6.78897 1.52698 6.7039 1.36731 6.55264C1.20765 6.40138 1.11785 6.19628 1.11763 5.98237V4.89245H0.893557C0.776181 4.89248 0.659947 4.8706 0.551502 4.82806C0.443056 4.78551 0.344525 4.72314 0.26154 4.6445C0.178555 4.56586 0.112743 4.4725 0.0678662 4.36975C0.0229896 4.267 -7.17881e-05 4.15688 2.05663e-07 4.04568V0.217206V3.16779e-08H0.229005H5.79716H6.02644V0.216946V4.04594C6.02615 4.27046 5.93184 4.48569 5.76421 4.64439C5.59658 4.8031 5.36933 4.89231 5.13234 4.89245H4.90717V5.98237C4.90695 6.19624 4.81719 6.40129 4.65758 6.55255C4.49798 6.7038 4.28155 6.7889 4.0558 6.78917C3.82994 6.78903 3.61338 6.704 3.45366 6.55273C3.29393 6.40146 3.20409 6.19633 3.20388 5.98237V4.89245H2.82038V5.98237C2.82023 6.19633 2.73047 6.40149 2.57079 6.55281C2.41112 6.70412 2.19458 6.78923 1.96873 6.78943" transform="translate(1.4873 3.21094)" fill="white"/>
<path d="M0.000547867 3.82952C0.000331338 3.91227 0.0173688 3.99426 0.0506822 4.07076C0.0839956 4.14726 0.132929 4.21678 0.194675 4.27532C0.25642 4.33387 0.329761 4.38028 0.410489 4.4119C0.491218 4.44352 0.577743 4.45973 0.6651 4.4596H1.11763V5.76698C1.11589 5.84547 1.13071 5.92349 1.16121 5.99648C1.19172 6.06947 1.23729 6.13596 1.29527 6.19205C1.35325 6.24814 1.42246 6.2927 1.49885 6.32312C1.57524 6.35354 1.65727 6.36921 1.74014 6.36921C1.823 6.36921 1.90503 6.35354 1.98142 6.32312C2.05781 6.2927 2.12703 6.24814 2.185 6.19205C2.24298 6.13596 2.28855 6.06947 2.31906 5.99648C2.34956 5.92349 2.36438 5.84547 2.36264 5.76698V4.45934H3.20333V5.76672C3.20675 5.92112 3.27389 6.06811 3.39036 6.17616C3.50684 6.28421 3.66336 6.34472 3.82638 6.34472C3.9894 6.34472 4.14593 6.28421 4.2624 6.17616C4.37887 6.06811 4.44601 5.92112 4.44943 5.76672V4.45908H4.90361C5.07988 4.45901 5.24891 4.39262 5.37353 4.27452C5.49815 4.15641 5.56816 3.99625 5.56816 3.82926V-3.16779e-08H-4.17983e-09L0.000547867 3.82952Z" transform="translate(1.71582 3.42578)" fill="white"/>
<path d="M0.851783 4.09908C0.625935 4.09901 0.409357 4.01399 0.249658 3.8627C0.0899592 3.71141 0.000209182 3.50624 0.000136573 3.29228V0.821532C-0.00189251 0.714347 0.0186401 0.607853 0.0605351 0.508268C0.10243 0.408683 0.164848 0.318002 0.244145 0.241522C0.323441 0.165042 0.418027 0.104294 0.522379 0.062826C0.626732 0.0213577 0.738758 2.26572e-08 0.85192 2.26572e-08C0.965081 2.26572e-08 1.07711 0.0213577 1.18146 0.062826C1.28581 0.104294 1.3804 0.165042 1.4597 0.241522C1.53899 0.318002 1.60141 0.408683 1.6433 0.508268C1.6852 0.607853 1.70573 0.714347 1.7037 0.821532V3.29228C1.70356 3.50619 1.61383 3.71132 1.45422 3.86262C1.2946 4.01393 1.07813 4.09907 0.852331 4.09934" transform="translate(7.29688 3.08301)" fill="white"/>
<path d="M0.622642 8.71141e-08C0.540839 3.41583e-05 0.459844 0.0153318 0.384283 0.0450193C0.308721 0.0747068 0.240072 0.118203 0.182254 0.173024C0.124436 0.227845 0.0785828 0.292918 0.0473116 0.364527C0.0160404 0.436136 -3.58537e-05 0.512879 1.2714e-07 0.590374V3.06112C1.2714e-07 3.21763 0.0656287 3.36773 0.182448 3.4784C0.299267 3.58906 0.457708 3.65124 0.622915 3.65124C0.788122 3.65124 0.946564 3.58906 1.06338 3.4784C1.1802 3.36773 1.24583 3.21763 1.24583 3.06112V0.590374C1.24587 0.512891 1.22979 0.436161 1.19851 0.364567C1.16724 0.292972 1.12138 0.227916 1.06356 0.173116C1.00574 0.118315 0.937087 0.0748436 0.861527 0.0451844C0.785967 0.0155252 0.704979 0.000259442 0.623189 0.00025945" transform="translate(7.52539 3.31445)" fill="white"/>
<path d="M0.622778 3.09786C0.457643 3.09786 0.299272 3.16001 0.182504 3.27063C0.0657365 3.38125 0.000136985 3.53128 0.000136985 3.68772V6.15847C-0.00160139 6.23699 0.0132221 6.31505 0.0437387 6.38807C0.0742553 6.46109 0.119851 6.52761 0.177853 6.58372C0.235856 6.63983 0.305098 6.68441 0.381522 6.71485C0.457946 6.74528 0.540013 6.76096 0.622915 6.76096C0.705817 6.76096 0.787884 6.74528 0.864308 6.71485C0.940732 6.68441 1.00997 6.63983 1.06798 6.58372C1.12598 6.52761 1.17157 6.46109 1.20209 6.38807C1.23261 6.31505 1.24743 6.23699 1.24569 6.15847V3.68746C1.24555 3.531 1.17982 3.38099 1.06296 3.27043C0.946092 3.15987 0.787664 3.0978 0.622504 3.09786H0.622778ZM5.64554 0.878577L6.08 0.126012C6.08643 0.116557 6.09073 0.105947 6.09263 0.0948451C6.09453 0.0837434 6.094 0.0723891 6.09105 0.0614926C6.08811 0.0505961 6.08283 0.0403918 6.07553 0.0315182C6.06824 0.0226445 6.05909 0.0152924 6.04866 0.00992174C6.03823 0.00455109 6.02674 0.00127748 6.01491 0.000305698C6.00308 -0.00066608 5.99117 0.000684902 5.97992 0.00427409C5.96867 0.00786329 5.95832 0.0136135 5.94952 0.0211649C5.94072 0.0287164 5.93366 0.0379066 5.92879 0.0481607L5.4905 0.807992C5.10621 0.648319 4.69114 0.565879 4.27152 0.565879C3.85189 0.565879 3.43682 0.648319 3.05253 0.807992L2.61233 0.0481607C2.60729 0.0381438 2.60015 0.0292033 2.59135 0.0218838C2.58255 0.0145644 2.57226 0.00901927 2.56112 0.00558628C2.54999 0.00215328 2.53823 0.000904267 2.52656 0.00191535C2.5149 0.00292644 2.50358 0.00617646 2.49328 0.0114674C2.48299 0.0167583 2.47394 0.0239794 2.46668 0.0326908C2.45943 0.0414021 2.45412 0.0514213 2.45109 0.0621381C2.44805 0.0728548 2.44735 0.0840446 2.44903 0.0950259C2.45071 0.106007 2.45473 0.11655 2.46084 0.126012L2.89584 0.878577C2.04118 1.29612 1.46401 2.09124 1.46456 3.00392H7.07491C7.07491 2.09124 6.49966 1.29794 5.64554 0.879356V0.878577ZM2.99336 2.04116C2.94683 2.04111 2.90137 2.02799 2.86271 2.00347C2.82405 1.97894 2.79393 1.94411 2.77616 1.90337C2.7584 1.86263 2.75377 1.81782 2.76289 1.7746C2.772 1.73137 2.79443 1.69168 2.82735 1.66053C2.86027 1.62938 2.90219 1.60818 2.94783 1.59959C2.99347 1.59101 3.04077 1.59544 3.08375 1.61232C3.12673 1.6292 3.16346 1.65777 3.1893 1.69443C3.21515 1.73108 3.22894 1.77417 3.22894 1.81825C3.22894 1.84754 3.22285 1.87655 3.211 1.90361C3.19916 1.93067 3.1818 1.95526 3.15992 1.97596C3.13805 1.99666 3.11207 2.01308 3.08349 2.02427C3.05491 2.03545 3.02429 2.04119 2.99336 2.04116ZM5.54775 2.04116C5.50111 2.04126 5.45549 2.02825 5.41667 2.00376C5.37784 1.97928 5.34756 1.94443 5.32966 1.90363C5.31176 1.86283 5.30705 1.81791 5.31612 1.77457C5.3252 1.73123 5.34765 1.69142 5.38062 1.66018C5.4136 1.62894 5.45563 1.60767 5.50138 1.59907C5.54713 1.59048 5.59454 1.59494 5.63761 1.6119C5.68068 1.62886 5.71746 1.65754 5.74331 1.69432C5.76915 1.7311 5.78289 1.77432 5.78278 1.8185C5.78271 1.87754 5.75793 1.93413 5.71386 1.97587C5.6698 2.01761 5.61006 2.04109 5.54775 2.04116ZM1.4873 3.20893V7.03793C1.48715 7.12065 1.50425 7.20257 1.53759 7.27902C1.57094 7.35546 1.61988 7.42492 1.68162 7.4834C1.74336 7.54189 1.81667 7.58826 1.89737 7.61985C1.97806 7.65144 2.06454 7.66763 2.15185 7.66749H2.60438V8.97488C2.60438 9.13132 2.66998 9.28135 2.78675 9.39197C2.90352 9.50259 3.06189 9.56473 3.22702 9.56473C3.39216 9.56473 3.55053 9.50259 3.6673 9.39197C3.78406 9.28135 3.84966 9.13132 3.84966 8.97488V7.66775H4.69035V8.97488C4.68861 9.0534 4.70344 9.13145 4.73395 9.20448C4.76447 9.2775 4.81007 9.34402 4.86807 9.40013C4.92607 9.45624 4.99531 9.50082 5.07174 9.53126C5.14816 9.56169 5.23023 9.57737 5.31313 9.57737C5.39603 9.57737 5.4781 9.56169 5.55452 9.53126C5.63095 9.50082 5.70019 9.45624 5.75819 9.40013C5.8162 9.34402 5.86179 9.2775 5.89231 9.20448C5.92282 9.13145 5.93765 9.0534 5.93591 8.97488V7.66749H6.38981C6.56613 7.66749 6.73523 7.60114 6.85991 7.48302C6.98459 7.36491 7.05464 7.20471 7.05464 7.03767V3.20841L1.4873 3.20893ZM8.54152 3.68668C8.54326 3.60816 8.52844 3.5301 8.49792 3.45708C8.46741 3.38406 8.42181 3.31754 8.36381 3.26143C8.30581 3.20532 8.23656 3.16074 8.16014 3.1303C8.08372 3.09987 8.00165 3.08419 7.91875 3.08419C7.83584 3.08419 7.75378 3.09987 7.67735 3.1303C7.60093 3.16074 7.53169 3.20532 7.47368 3.26143C7.41568 3.31754 7.37009 3.38406 7.33957 3.45708C7.30905 3.5301 7.29423 3.60816 7.29597 3.68668V6.15743C7.29423 6.23595 7.30905 6.31401 7.33957 6.38703C7.37009 6.46005 7.41568 6.52657 7.47368 6.58268C7.53169 6.63879 7.60093 6.68337 7.67735 6.71381C7.75378 6.74424 7.83584 6.75992 7.91875 6.75992C8.00165 6.75992 8.08372 6.74424 8.16014 6.71381C8.23656 6.68337 8.30581 6.63879 8.36381 6.58268C8.42181 6.52657 8.46741 6.46005 8.49792 6.38703C8.52844 6.31401 8.54326 6.23595 8.54152 6.15743V3.68668Z" transform="translate(0.228516 0.217773)" fill="#5DDF89"/>
</svg>
