<svg xmlns="http://www.w3.org/2000/svg" xmlns:xlink="http://www.w3.org/1999/xlink"  viewBox="0 0 100% 100%" width="100%" height="100%" >
	<style type="text/css"><![CDATA[ 
		@media (max-width: 1024px){

			.top{
				transform: rotate(180deg) translate(-664px, -344px);
				
			}
			.bottom{
				transform: translate(54px, 444px);
			}

		}

		@media (max-width: 813px){

			.top{
				transform: rotate(180deg) translate(-664px, -244px);
				
			}
			.bottom{
				transform: translate(54px, 544px);
			}


		}
		@media (max-width: 420px){
			.top{
				transform: rotate(180deg) translate(-864px, -244px) scale(1.5);
				
			}
			.bottom{
				transform: translate(-200px, 644px) scale(1.5);
			}
		}
		

	]]></style>
	<defs>
		<clipPath id="_clipPath_rL4eTsn0AD2IrOLlCsHB2d0tIgO4QujW">
			<rect width="180" height="180"/>
		</clipPath>
	</defs>
	

		<svg x="0%" y="-10%" width="90%" height="90%" viewBox="0 0 864 644" ><path id="Vector" d="M 45.7215 419.815C 31.2288 434.269 19.7302 451.442 11.8844 470.349C 4.03863 489.257 0 509.527 0 529.998C 0 550.47 4.03863 570.74 11.8844 589.648C 19.7302 608.555 31.2288 625.728 45.7215 640.182L 49.4022 644L 491.915 201.494C 494.805 198.575 498.245 196.258 502.036 194.677C 505.826 193.095 509.893 192.281 514 192.281C 518.107 192.281 522.174 193.095 525.964 194.677C 529.755 196.258 533.195 198.575 536.085 201.494L 978.598 644L 982.279 640.182C 996.771 625.728 1008.27 608.555 1016.12 589.648C 1023.96 570.74 1028 550.47 1028 529.998C 1028 509.527 1023.96 489.257 1016.12 470.349C 1008.27 451.442 996.771 434.269 982.279 419.815L 596.613 34.1739C 574.685 12.29 544.975 0 514 0C 483.025 0 453.315 12.29 431.387 34.1739L 45.7215 419.815Z" class="top"  fill="white" style="opacity:0.08;" transform="rotate(180) translate(-464 -344)"/>
		</svg>

		<svg x="25%" y="10%" width="90%" height="90%" viewBox="0 0 864 644"  ><path id="Vector" d="M 45.7215 419.815C 31.2288 434.269 19.7302 451.442 11.8844 470.349C 4.03863 489.257 0 509.527 0 529.998C 0 550.47 4.03863 570.74 11.8844 589.648C 19.7302 608.555 31.2288 625.728 45.7215 640.182L 49.4022 644L 491.915 201.494C 494.805 198.575 498.245 196.258 502.036 194.677C 505.826 193.095 509.893 192.281 514 192.281C 518.107 192.281 522.174 193.095 525.964 194.677C 529.755 196.258 533.195 198.575 536.085 201.494L 978.598 644L 982.279 640.182C 996.771 625.728 1008.27 608.555 1016.12 589.648C 1023.96 570.74 1028 550.47 1028 529.998C 1028 509.527 1023.96 489.257 1016.12 470.349C 1008.27 451.442 996.771 434.269 982.279 419.815L 596.613 34.1739C 574.685 12.29 544.975 0 514 0C 483.025 0 453.315 12.29 431.387 34.1739L 45.7215 419.815Z" fill="white" class="bottom" style="opacity:0.08;"/>
	</svg>
</svg>