<svg width="25" height="21" viewBox="0 0 25 21" fill="none" xmlns="http://www.w3.org/2000/svg">
<path d="M10.557 17.103C10.3988 17.3758 10.1717 17.6023 9.8984 17.7597C9.62515 17.9171 9.31534 18 9 18C8.68466 18 8.37485 17.9171 8.1016 17.7597C7.82834 17.6023 7.60123 17.3758 7.443 17.103M18 13.5024H0C0.716085 13.5024 1.40284 13.2179 1.90919 12.7114C2.41554 12.205 2.7 11.5181 2.7 10.8019V6.30112C2.7 4.62996 3.36375 3.02724 4.54523 1.84555C5.72671 0.663866 7.32914 0 9 0C10.6709 0 12.2733 0.663866 13.4548 1.84555C14.6363 3.02724 15.3 4.62996 15.3 6.30112V10.8019C15.3 11.5181 15.5845 12.205 16.0908 12.7114C16.5972 13.2179 17.2839 13.5024 18 13.5024Z" transform="translate(1.47363 1.55371)" stroke="#797296" stroke-width="2" stroke-linecap="round" stroke-linejoin="round"/>
<ellipse cx="1.83871" cy="1.82143" rx="1.83871" ry="1.82143" transform="translate(20.9961 0.553711)" fill="#F86173"/>
</svg>
