<svg width="18" height="18" viewBox="0 0 18 18" fill="none" xmlns="http://www.w3.org/2000/svg">
<path d="M9.384 15.2C9.24335 15.4425 9.04147 15.6437 8.79858 15.7836C8.55569 15.9235 8.2803 15.9972 8 15.9972C7.7197 15.9972 7.44431 15.9235 7.20142 15.7836C6.95853 15.6437 6.75665 15.4425 6.616 15.2M16 12H0C0.63652 12 1.24697 11.7471 1.69706 11.2971C2.14714 10.847 2.4 10.2365 2.4 9.6V5.6C2.4 4.11479 2.99 2.69041 4.0402 1.6402C5.09041 0.589998 6.51479 -8.34465e-08 8 -8.34465e-08C9.48521 -8.34465e-08 10.9096 0.589998 11.9598 1.6402C13.01 2.69041 13.6 4.11479 13.6 5.6V9.6C13.6 10.2365 13.8529 10.847 14.3029 11.2971C14.753 11.7471 15.3635 12 16 12Z" transform="translate(1 1)" stroke="#F8728A" stroke-linecap="round" stroke-linejoin="round"/>
</svg>
