<svg width="16" height="14" viewBox="0 0 16 14" fill="none" xmlns="http://www.w3.org/2000/svg">
<path d="M14.6667 10.6667C14.6667 11.0203 14.5262 11.3594 14.2761 11.6095C14.0261 11.8595 13.687 12 13.3333 12H1.33333C0.979711 12 0.640573 11.8595 0.390524 11.6095C0.140476 11.3594 0 11.0203 0 10.6667V3.33333C0 2.97971 0.140476 2.64057 0.390524 2.39052C0.640573 2.14048 0.979711 2 1.33333 2H4L5.33333 0H9.33333L10.6667 2H13.3333C13.687 2 14.0261 2.14048 14.2761 2.39052C14.5262 2.64057 14.6667 2.97971 14.6667 3.33333V10.6667Z" transform="translate(0.666748 1.33301)" stroke="#F8728A" stroke-linecap="round" stroke-linejoin="round"/>
<path d="M5.33333 2.66667C5.33333 4.13943 4.13943 5.33333 2.66667 5.33333C1.19391 5.33333 0 4.13943 0 2.66667C0 1.19391 1.19391 0 2.66667 0C4.13943 0 5.33333 1.19391 5.33333 2.66667Z" transform="translate(5.33325 5.33301)" stroke="#F8728A" stroke-linecap="round" stroke-linejoin="round"/>
</svg>
