<svg width="20" height="17" viewBox="0 0 20 17" fill="none" xmlns="http://www.w3.org/2000/svg">
<path d="M18 13.3333C18 13.7754 17.8276 14.1993 17.5207 14.5118C17.2138 14.8244 16.7976 15 16.3636 15H1.63636C1.20237 15 0.786158 14.8244 0.47928 14.5118C0.172402 14.1993 0 13.7754 0 13.3333V4.16667C0 3.72464 0.172402 3.30072 0.47928 2.98816C0.786158 2.67559 1.20237 2.5 1.63636 2.5H4.90909L6.54545 0H11.4545L13.0909 2.5H16.3636C16.7976 2.5 17.2138 2.67559 17.5207 2.98816C17.8276 3.30072 18 3.72464 18 4.16667V13.3333Z" transform="translate(1 1)" stroke="#F8728A" stroke-linecap="round" stroke-linejoin="round"/>
<path d="M3.27273 6.66667C5.0802 6.66667 6.54545 5.17428 6.54545 3.33333C6.54545 1.49238 5.0802 0 3.27273 0C1.46525 0 0 1.49238 0 3.33333C0 5.17428 1.46525 6.66667 3.27273 6.66667Z" transform="translate(6.72726 6)" stroke="#F8728A" stroke-linecap="round" stroke-linejoin="round"/>
</svg>
