<svg width="20" height="18" viewBox="0 0 20 18" fill="none" xmlns="http://www.w3.org/2000/svg">
<mask id="path-1-inside-1" fill="white">
<path fill-rule="evenodd" clip-rule="evenodd" d="M3.86238e-05 4.80762V3C3.86238e-05 1.34277 1.34318 0 3.00004 0H4.56092C4.60493 0 4.64895 0 4.69296 0H14.6279C14.6719 0 14.7159 0 14.7599 0H16.3208C17.9776 0 19.3208 1.34277 19.3208 3V4.80273C19.3209 4.81934 19.3209 4.83594 19.3208 4.85254V11.4902C19.3208 13.1475 17.9776 14.4902 16.3208 14.4902H11.9754L9.66038 16.9053L7.34539 14.4902H3.00004C1.34318 14.4902 3.86238e-05 13.1475 3.86238e-05 11.4902V4.84766C-1.28746e-05 4.83398 -1.28746e-05 4.82129 3.86238e-05 4.80762Z"/>
</mask>
<path d="M3.86238e-05 4.80762L1.00004 4.81138V4.80762H3.86238e-05ZM19.3208 4.80273H18.3208L18.3208 4.80756L19.3208 4.80273ZM19.3208 4.85254L18.3208 4.84771V4.85254H19.3208ZM11.9754 14.4902V13.4902H11.5487L11.2535 13.7982L11.9754 14.4902ZM9.66038 16.9053L8.93848 17.5973L9.66037 18.3504L10.3823 17.5973L9.66038 16.9053ZM7.34539 14.4902L8.06729 13.7982L7.77205 13.4902H7.34539V14.4902ZM3.86238e-05 4.84766H1.00005L1.00003 4.84389L3.86238e-05 4.84766ZM1.00004 4.80762V3H-0.999961V4.80762H1.00004ZM1.00004 3C1.00004 1.89514 1.89539 1 3.00004 1V-1C0.79098 -1 -0.999961 0.790408 -0.999961 3H1.00004ZM3.00004 1H4.56092V-1H3.00004V1ZM4.56092 1C4.561 1 4.56109 1 4.56117 1C4.56126 1 4.56135 1 4.56143 1C4.56152 1 4.5616 1 4.56169 1C4.56178 1 4.56186 1 4.56195 1C4.56203 1 4.56212 1 4.5622 1C4.56229 1 4.56238 1 4.56246 1C4.56255 1 4.56263 1 4.56272 1C4.56281 1 4.56289 1 4.56298 1C4.56306 1 4.56315 1 4.56324 1C4.56332 1 4.56341 1 4.56349 1C4.56358 1 4.56367 1 4.56375 1C4.56384 1 4.56392 1 4.56401 1C4.5641 1 4.56418 1 4.56427 1C4.56435 1 4.56444 1 4.56453 1C4.56461 1 4.5647 1 4.56478 1C4.56487 1 4.56496 1 4.56504 1C4.56513 1 4.56521 1 4.5653 1C4.56539 1 4.56547 1 4.56556 1C4.56564 1 4.56573 1 4.56582 1C4.5659 1 4.56599 1 4.56607 1C4.56616 1 4.56625 1 4.56633 1C4.56642 1 4.5665 1 4.56659 1C4.56667 1 4.56676 1 4.56685 1C4.56693 1 4.56702 1 4.5671 1C4.56719 1 4.56728 1 4.56736 1C4.56745 1 4.56753 1 4.56762 1C4.56771 1 4.56779 1 4.56788 1C4.56796 1 4.56805 1 4.56814 1C4.56822 1 4.56831 1 4.56839 1C4.56848 1 4.56857 1 4.56865 1C4.56874 1 4.56882 1 4.56891 1C4.569 1 4.56908 1 4.56917 1C4.56925 1 4.56934 1 4.56943 1C4.56951 1 4.5696 1 4.56968 1C4.56977 1 4.56986 1 4.56994 1C4.57003 1 4.57011 1 4.5702 1C4.57029 1 4.57037 1 4.57046 1C4.57054 1 4.57063 1 4.57071 1C4.5708 1 4.57089 1 4.57097 1C4.57106 1 4.57115 1 4.57123 1C4.57132 1 4.5714 1 4.57149 1C4.57157 1 4.57166 1 4.57175 1C4.57183 1 4.57192 1 4.572 1C4.57209 1 4.57218 1 4.57226 1C4.57235 1 4.57243 1 4.57252 1C4.57261 1 4.57269 1 4.57278 1C4.57286 1 4.57295 1 4.57304 1C4.57312 1 4.57321 1 4.57329 1C4.57338 1 4.57347 1 4.57355 1C4.57364 1 4.57372 1 4.57381 1C4.5739 1 4.57398 1 4.57407 1C4.57415 1 4.57424 1 4.57433 1C4.57441 1 4.5745 1 4.57458 1C4.57467 1 4.57476 1 4.57484 1C4.57493 1 4.57501 1 4.5751 1C4.57519 1 4.57527 1 4.57536 1C4.57544 1 4.57553 1 4.57561 1C4.5757 1 4.57579 1 4.57587 1C4.57596 1 4.57605 1 4.57613 1C4.57622 1 4.5763 1 4.57639 1C4.57647 1 4.57656 1 4.57665 1C4.57673 1 4.57682 1 4.5769 1C4.57699 1 4.57708 1 4.57716 1C4.57725 1 4.57733 1 4.57742 1C4.57751 1 4.57759 1 4.57768 1C4.57776 1 4.57785 1 4.57794 1C4.57802 1 4.57811 1 4.57819 1C4.57828 1 4.57837 1 4.57845 1C4.57854 1 4.57862 1 4.57871 1C4.5788 1 4.57888 1 4.57897 1C4.57905 1 4.57914 1 4.57923 1C4.57931 1 4.5794 1 4.57948 1C4.57957 1 4.57966 1 4.57974 1C4.57983 1 4.57991 1 4.58 1C4.58009 1 4.58017 1 4.58026 1C4.58034 1 4.58043 1 4.58051 1C4.5806 1 4.58069 1 4.58077 1C4.58086 1 4.58094 1 4.58103 1C4.58112 1 4.5812 1 4.58129 1C4.58137 1 4.58146 1 4.58155 1C4.58163 1 4.58172 1 4.5818 1C4.58189 1 4.58198 1 4.58206 1C4.58215 1 4.58223 1 4.58232 1C4.58241 1 4.58249 1 4.58258 1C4.58266 1 4.58275 1 4.58284 1C4.58292 1 4.58301 1 4.58309 1C4.58318 1 4.58327 1 4.58335 1C4.58344 1 4.58352 1 4.58361 1C4.5837 1 4.58378 1 4.58387 1C4.58395 1 4.58404 1 4.58413 1C4.58421 1 4.5843 1 4.58438 1C4.58447 1 4.58456 1 4.58464 1C4.58473 1 4.58481 1 4.5849 1C4.58499 1 4.58507 1 4.58516 1C4.58524 1 4.58533 1 4.58541 1C4.5855 1 4.58559 1 4.58567 1C4.58576 1 4.58584 1 4.58593 1C4.58602 1 4.5861 1 4.58619 1C4.58627 1 4.58636 1 4.58645 1C4.58653 1 4.58662 1 4.5867 1C4.58679 1 4.58688 1 4.58696 1C4.58705 1 4.58713 1 4.58722 1C4.58731 1 4.58739 1 4.58748 1C4.58756 1 4.58765 1 4.58774 1C4.58782 1 4.58791 1 4.58799 1C4.58808 1 4.58817 1 4.58825 1C4.58834 1 4.58842 1 4.58851 1C4.5886 1 4.58868 1 4.58877 1C4.58885 1 4.58894 1 4.58903 1C4.58911 1 4.5892 1 4.58928 1C4.58937 1 4.58946 1 4.58954 1C4.58963 1 4.58971 1 4.5898 1C4.58989 1 4.58997 1 4.59006 1C4.59014 1 4.59023 1 4.59031 1C4.5904 1 4.59049 1 4.59057 1C4.59066 1 4.59074 1 4.59083 1C4.59092 1 4.591 1 4.59109 1C4.59117 1 4.59126 1 4.59135 1C4.59143 1 4.59152 1 4.5916 1C4.59169 1 4.59178 1 4.59186 1C4.59195 1 4.59203 1 4.59212 1C4.59221 1 4.59229 1 4.59238 1C4.59246 1 4.59255 1 4.59264 1C4.59272 1 4.59281 1 4.59289 1C4.59298 1 4.59307 1 4.59315 1C4.59324 1 4.59332 1 4.59341 1C4.5935 1 4.59358 1 4.59367 1C4.59375 1 4.59384 1 4.59393 1C4.59401 1 4.5941 1 4.59418 1C4.59427 1 4.59436 1 4.59444 1C4.59453 1 4.59461 1 4.5947 1C4.59479 1 4.59487 1 4.59496 1C4.59504 1 4.59513 1 4.59521 1C4.5953 1 4.59539 1 4.59547 1C4.59556 1 4.59564 1 4.59573 1C4.59582 1 4.5959 1 4.59599 1C4.59607 1 4.59616 1 4.59625 1C4.59633 1 4.59642 1 4.5965 1C4.59659 1 4.59668 1 4.59676 1C4.59685 1 4.59693 1 4.59702 1C4.59711 1 4.59719 1 4.59728 1C4.59736 1 4.59745 1 4.59754 1C4.59762 1 4.59771 1 4.59779 1C4.59788 1 4.59797 1 4.59805 1C4.59814 1 4.59822 1 4.59831 1C4.5984 1 4.59848 1 4.59857 1C4.59865 1 4.59874 1 4.59883 1C4.59891 1 4.599 1 4.59908 1C4.59917 1 4.59926 1 4.59934 1C4.59943 1 4.59951 1 4.5996 1C4.59969 1 4.59977 1 4.59986 1C4.59994 1 4.60003 1 4.60011 1C4.6002 1 4.60029 1 4.60037 1C4.60046 1 4.60054 1 4.60063 1C4.60072 1 4.6008 1 4.60089 1C4.60097 1 4.60106 1 4.60115 1C4.60123 1 4.60132 1 4.6014 1C4.60149 1 4.60158 1 4.60166 1C4.60175 1 4.60183 1 4.60192 1C4.60201 1 4.60209 1 4.60218 1C4.60226 1 4.60235 1 4.60244 1C4.60252 1 4.60261 1 4.60269 1C4.60278 1 4.60287 1 4.60295 1C4.60304 1 4.60312 1 4.60321 1C4.6033 1 4.60338 1 4.60347 1C4.60355 1 4.60364 1 4.60373 1C4.60381 1 4.6039 1 4.60398 1C4.60407 1 4.60416 1 4.60424 1C4.60433 1 4.60441 1 4.6045 1C4.60459 1 4.60467 1 4.60476 1C4.60484 1 4.60493 1 4.60501 1C4.6051 1 4.60519 1 4.60527 1C4.60536 1 4.60544 1 4.60553 1C4.60562 1 4.6057 1 4.60579 1C4.60587 1 4.60596 1 4.60605 1C4.60613 1 4.60622 1 4.6063 1C4.60639 1 4.60648 1 4.60656 1C4.60665 1 4.60673 1 4.60682 1C4.60691 1 4.60699 1 4.60708 1C4.60716 1 4.60725 1 4.60734 1C4.60742 1 4.60751 1 4.60759 1C4.60768 1 4.60777 1 4.60785 1C4.60794 1 4.60802 1 4.60811 1C4.6082 1 4.60828 1 4.60837 1C4.60845 1 4.60854 1 4.60863 1C4.60871 1 4.6088 1 4.60888 1C4.60897 1 4.60906 1 4.60914 1C4.60923 1 4.60931 1 4.6094 1C4.60949 1 4.60957 1 4.60966 1C4.60974 1 4.60983 1 4.60992 1C4.61 1 4.61009 1 4.61017 1C4.61026 1 4.61034 1 4.61043 1C4.61052 1 4.6106 1 4.61069 1C4.61077 1 4.61086 1 4.61095 1C4.61103 1 4.61112 1 4.6112 1C4.61129 1 4.61138 1 4.61146 1C4.61155 1 4.61163 1 4.61172 1C4.61181 1 4.61189 1 4.61198 1C4.61206 1 4.61215 1 4.61224 1C4.61232 1 4.61241 1 4.61249 1C4.61258 1 4.61267 1 4.61275 1C4.61284 1 4.61292 1 4.61301 1C4.6131 1 4.61318 1 4.61327 1C4.61335 1 4.61344 1 4.61353 1C4.61361 1 4.6137 1 4.61378 1C4.61387 1 4.61396 1 4.61404 1C4.61413 1 4.61421 1 4.6143 1C4.61439 1 4.61447 1 4.61456 1C4.61464 1 4.61473 1 4.61482 1C4.6149 1 4.61499 1 4.61507 1C4.61516 1 4.61524 1 4.61533 1C4.61542 1 4.6155 1 4.61559 1C4.61567 1 4.61576 1 4.61585 1C4.61593 1 4.61602 1 4.6161 1C4.61619 1 4.61628 1 4.61636 1C4.61645 1 4.61653 1 4.61662 1C4.61671 1 4.61679 1 4.61688 1C4.61696 1 4.61705 1 4.61714 1C4.61722 1 4.61731 1 4.61739 1C4.61748 1 4.61757 1 4.61765 1C4.61774 1 4.61782 1 4.61791 1C4.618 1 4.61808 1 4.61817 1C4.61825 1 4.61834 1 4.61843 1C4.61851 1 4.6186 1 4.61868 1C4.61877 1 4.61886 1 4.61894 1C4.61903 1 4.61911 1 4.6192 1C4.61929 1 4.61937 1 4.61946 1C4.61954 1 4.61963 1 4.61972 1C4.6198 1 4.61989 1 4.61997 1C4.62006 1 4.62014 1 4.62023 1C4.62032 1 4.6204 1 4.62049 1C4.62057 1 4.62066 1 4.62075 1C4.62083 1 4.62092 1 4.621 1C4.62109 1 4.62118 1 4.62126 1C4.62135 1 4.62143 1 4.62152 1C4.62161 1 4.62169 1 4.62178 1C4.62186 1 4.62195 1 4.62204 1C4.62212 1 4.62221 1 4.62229 1C4.62238 1 4.62247 1 4.62255 1C4.62264 1 4.62272 1 4.62281 1C4.6229 1 4.62298 1 4.62307 1C4.62315 1 4.62324 1 4.62333 1C4.62341 1 4.6235 1 4.62358 1C4.62367 1 4.62376 1 4.62384 1C4.62393 1 4.62401 1 4.6241 1C4.62419 1 4.62427 1 4.62436 1C4.62444 1 4.62453 1 4.62462 1C4.6247 1 4.62479 1 4.62487 1C4.62496 1 4.62505 1 4.62513 1C4.62522 1 4.6253 1 4.62539 1C4.62547 1 4.62556 1 4.62565 1C4.62573 1 4.62582 1 4.62591 1C4.62599 1 4.62608 1 4.62616 1C4.62625 1 4.62633 1 4.62642 1C4.62651 1 4.62659 1 4.62668 1C4.62676 1 4.62685 1 4.62694 1C4.62702 1 4.62711 1 4.62719 1C4.62728 1 4.62737 1 4.62745 1C4.62754 1 4.62762 1 4.62771 1C4.6278 1 4.62788 1 4.62797 1C4.62805 1 4.62814 1 4.62823 1C4.62831 1 4.6284 1 4.62848 1C4.62857 1 4.62866 1 4.62874 1C4.62883 1 4.62891 1 4.629 1C4.62909 1 4.62917 1 4.62926 1C4.62934 1 4.62943 1 4.62952 1C4.6296 1 4.62969 1 4.62977 1C4.62986 1 4.62995 1 4.63003 1C4.63012 1 4.6302 1 4.63029 1C4.63037 1 4.63046 1 4.63055 1C4.63063 1 4.63072 1 4.63081 1C4.63089 1 4.63098 1 4.63106 1C4.63115 1 4.63123 1 4.63132 1C4.63141 1 4.63149 1 4.63158 1C4.63166 1 4.63175 1 4.63184 1C4.63192 1 4.63201 1 4.63209 1C4.63218 1 4.63227 1 4.63235 1C4.63244 1 4.63252 1 4.63261 1C4.6327 1 4.63278 1 4.63287 1C4.63295 1 4.63304 1 4.63313 1C4.63321 1 4.6333 1 4.63338 1C4.63347 1 4.63356 1 4.63364 1C4.63373 1 4.63381 1 4.6339 1C4.63399 1 4.63407 1 4.63416 1C4.63424 1 4.63433 1 4.63442 1C4.6345 1 4.63459 1 4.63467 1C4.63476 1 4.63485 1 4.63493 1C4.63502 1 4.6351 1 4.63519 1C4.63528 1 4.63536 1 4.63545 1C4.63553 1 4.63562 1 4.6357 1C4.63579 1 4.63588 1 4.63596 1C4.63605 1 4.63614 1 4.63622 1C4.63631 1 4.63639 1 4.63648 1C4.63656 1 4.63665 1 4.63674 1C4.63682 1 4.63691 1 4.63699 1C4.63708 1 4.63717 1 4.63725 1C4.63734 1 4.63742 1 4.63751 1C4.6376 1 4.63768 1 4.63777 1C4.63785 1 4.63794 1 4.63803 1C4.63811 1 4.6382 1 4.63828 1C4.63837 1 4.63846 1 4.63854 1C4.63863 1 4.63871 1 4.6388 1C4.63889 1 4.63897 1 4.63906 1C4.63914 1 4.63923 1 4.63932 1C4.6394 1 4.63949 1 4.63957 1C4.63966 1 4.63975 1 4.63983 1C4.63992 1 4.64 1 4.64009 1C4.64018 1 4.64026 1 4.64035 1C4.64043 1 4.64052 1 4.6406 1C4.64069 1 4.64078 1 4.64086 1C4.64095 1 4.64104 1 4.64112 1C4.64121 1 4.64129 1 4.64138 1C4.64146 1 4.64155 1 4.64164 1C4.64172 1 4.64181 1 4.64189 1C4.64198 1 4.64207 1 4.64215 1C4.64224 1 4.64232 1 4.64241 1C4.6425 1 4.64258 1 4.64267 1C4.64275 1 4.64284 1 4.64293 1C4.64301 1 4.6431 1 4.64318 1C4.64327 1 4.64336 1 4.64344 1C4.64353 1 4.64361 1 4.6437 1C4.64379 1 4.64387 1 4.64396 1C4.64404 1 4.64413 1 4.64422 1C4.6443 1 4.64439 1 4.64447 1C4.64456 1 4.64465 1 4.64473 1C4.64482 1 4.6449 1 4.64499 1C4.64508 1 4.64516 1 4.64525 1C4.64533 1 4.64542 1 4.64551 1C4.64559 1 4.64568 1 4.64576 1C4.64585 1 4.64594 1 4.64602 1C4.64611 1 4.64619 1 4.64628 1C4.64636 1 4.64645 1 4.64654 1C4.64662 1 4.64671 1 4.64679 1C4.64688 1 4.64697 1 4.64705 1C4.64714 1 4.64722 1 4.64731 1C4.6474 1 4.64748 1 4.64757 1C4.64765 1 4.64774 1 4.64783 1C4.64791 1 4.648 1 4.64808 1C4.64817 1 4.64826 1 4.64834 1C4.64843 1 4.64851 1 4.6486 1C4.64869 1 4.64877 1 4.64886 1C4.64894 1 4.64903 1 4.64912 1C4.6492 1 4.64929 1 4.64937 1C4.64946 1 4.64955 1 4.64963 1C4.64972 1 4.6498 1 4.64989 1C4.64998 1 4.65006 1 4.65015 1C4.65023 1 4.65032 1 4.65041 1C4.65049 1 4.65058 1 4.65066 1C4.65075 1 4.65084 1 4.65092 1C4.65101 1 4.65109 1 4.65118 1C4.65127 1 4.65135 1 4.65144 1C4.65152 1 4.65161 1 4.65169 1C4.65178 1 4.65187 1 4.65195 1C4.65204 1 4.65212 1 4.65221 1C4.6523 1 4.65238 1 4.65247 1C4.65255 1 4.65264 1 4.65273 1C4.65281 1 4.6529 1 4.65298 1C4.65307 1 4.65316 1 4.65324 1C4.65333 1 4.65341 1 4.6535 1C4.65359 1 4.65367 1 4.65376 1C4.65384 1 4.65393 1 4.65402 1C4.6541 1 4.65419 1 4.65427 1C4.65436 1 4.65445 1 4.65453 1C4.65462 1 4.6547 1 4.65479 1C4.65488 1 4.65496 1 4.65505 1C4.65513 1 4.65522 1 4.65531 1C4.65539 1 4.65548 1 4.65556 1C4.65565 1 4.65574 1 4.65582 1C4.65591 1 4.65599 1 4.65608 1C4.65617 1 4.65625 1 4.65634 1C4.65642 1 4.65651 1 4.65659 1C4.65668 1 4.65677 1 4.65685 1C4.65694 1 4.65702 1 4.65711 1C4.6572 1 4.65728 1 4.65737 1C4.65745 1 4.65754 1 4.65763 1C4.65771 1 4.6578 1 4.65788 1C4.65797 1 4.65806 1 4.65814 1C4.65823 1 4.65831 1 4.6584 1C4.65849 1 4.65857 1 4.65866 1C4.65874 1 4.65883 1 4.65892 1C4.659 1 4.65909 1 4.65917 1C4.65926 1 4.65935 1 4.65943 1C4.65952 1 4.6596 1 4.65969 1C4.65978 1 4.65986 1 4.65995 1C4.66003 1 4.66012 1 4.66021 1C4.66029 1 4.66038 1 4.66046 1C4.66055 1 4.66063 1 4.66072 1C4.66081 1 4.66089 1 4.66098 1C4.66107 1 4.66115 1 4.66124 1C4.66132 1 4.66141 1 4.66149 1C4.66158 1 4.66167 1 4.66175 1C4.66184 1 4.66192 1 4.66201 1C4.6621 1 4.66218 1 4.66227 1C4.66235 1 4.66244 1 4.66253 1C4.66261 1 4.6627 1 4.66278 1C4.66287 1 4.66296 1 4.66304 1C4.66313 1 4.66321 1 4.6633 1C4.66339 1 4.66347 1 4.66356 1C4.66364 1 4.66373 1 4.66382 1C4.6639 1 4.66399 1 4.66407 1C4.66416 1 4.66425 1 4.66433 1C4.66442 1 4.6645 1 4.66459 1C4.66468 1 4.66476 1 4.66485 1C4.66493 1 4.66502 1 4.66511 1C4.66519 1 4.66528 1 4.66536 1C4.66545 1 4.66553 1 4.66562 1C4.66571 1 4.66579 1 4.66588 1C4.66597 1 4.66605 1 4.66614 1C4.66622 1 4.66631 1 4.66639 1C4.66648 1 4.66657 1 4.66665 1C4.66674 1 4.66682 1 4.66691 1C4.667 1 4.66708 1 4.66717 1C4.66725 1 4.66734 1 4.66743 1C4.66751 1 4.6676 1 4.66768 1C4.66777 1 4.66786 1 4.66794 1C4.66803 1 4.66811 1 4.6682 1C4.66829 1 4.66837 1 4.66846 1C4.66854 1 4.66863 1 4.66872 1C4.6688 1 4.66889 1 4.66897 1C4.66906 1 4.66915 1 4.66923 1C4.66932 1 4.6694 1 4.66949 1C4.66958 1 4.66966 1 4.66975 1C4.66983 1 4.66992 1 4.67001 1C4.67009 1 4.67018 1 4.67026 1C4.67035 1 4.67043 1 4.67052 1C4.67061 1 4.67069 1 4.67078 1C4.67087 1 4.67095 1 4.67104 1C4.67112 1 4.67121 1 4.67129 1C4.67138 1 4.67147 1 4.67155 1C4.67164 1 4.67172 1 4.67181 1C4.6719 1 4.67198 1 4.67207 1C4.67215 1 4.67224 1 4.67233 1C4.67241 1 4.6725 1 4.67258 1C4.67267 1 4.67276 1 4.67284 1C4.67293 1 4.67301 1 4.6731 1C4.67319 1 4.67327 1 4.67336 1C4.67344 1 4.67353 1 4.67362 1C4.6737 1 4.67379 1 4.67387 1C4.67396 1 4.67405 1 4.67413 1C4.67422 1 4.6743 1 4.67439 1C4.67448 1 4.67456 1 4.67465 1C4.67473 1 4.67482 1 4.67491 1C4.67499 1 4.67508 1 4.67516 1C4.67525 1 4.67533 1 4.67542 1C4.67551 1 4.67559 1 4.67568 1C4.67577 1 4.67585 1 4.67594 1C4.67602 1 4.67611 1 4.67619 1C4.67628 1 4.67637 1 4.67645 1C4.67654 1 4.67662 1 4.67671 1C4.6768 1 4.67688 1 4.67697 1C4.67705 1 4.67714 1 4.67723 1C4.67731 1 4.6774 1 4.67748 1C4.67757 1 4.67766 1 4.67774 1C4.67783 1 4.67791 1 4.678 1C4.67809 1 4.67817 1 4.67826 1C4.67834 1 4.67843 1 4.67852 1C4.6786 1 4.67869 1 4.67877 1C4.67886 1 4.67895 1 4.67903 1C4.67912 1 4.6792 1 4.67929 1C4.67938 1 4.67946 1 4.67955 1C4.67963 1 4.67972 1 4.67981 1C4.67989 1 4.67998 1 4.68006 1C4.68015 1 4.68023 1 4.68032 1C4.68041 1 4.68049 1 4.68058 1C4.68067 1 4.68075 1 4.68084 1C4.68092 1 4.68101 1 4.68109 1C4.68118 1 4.68127 1 4.68135 1C4.68144 1 4.68152 1 4.68161 1C4.6817 1 4.68178 1 4.68187 1C4.68195 1 4.68204 1 4.68213 1C4.68221 1 4.6823 1 4.68238 1C4.68247 1 4.68256 1 4.68264 1C4.68273 1 4.68281 1 4.6829 1C4.68299 1 4.68307 1 4.68316 1C4.68324 1 4.68333 1 4.68342 1C4.6835 1 4.68359 1 4.68367 1C4.68376 1 4.68385 1 4.68393 1C4.68402 1 4.6841 1 4.68419 1C4.68428 1 4.68436 1 4.68445 1C4.68453 1 4.68462 1 4.68471 1C4.68479 1 4.68488 1 4.68496 1C4.68505 1 4.68513 1 4.68522 1C4.68531 1 4.68539 1 4.68548 1C4.68556 1 4.68565 1 4.68574 1C4.68582 1 4.68591 1 4.68599 1C4.68608 1 4.68617 1 4.68625 1C4.68634 1 4.68642 1 4.68651 1C4.6866 1 4.68668 1 4.68677 1C4.68685 1 4.68694 1 4.68703 1C4.68711 1 4.6872 1 4.68728 1C4.68737 1 4.68746 1 4.68754 1C4.68763 1 4.68771 1 4.6878 1C4.68789 1 4.68797 1 4.68806 1C4.68814 1 4.68823 1 4.68832 1C4.6884 1 4.68849 1 4.68857 1C4.68866 1 4.68875 1 4.68883 1C4.68892 1 4.689 1 4.68909 1C4.68918 1 4.68926 1 4.68935 1C4.68943 1 4.68952 1 4.6896 1C4.68969 1 4.68978 1 4.68986 1C4.68995 1 4.69003 1 4.69012 1C4.69021 1 4.69029 1 4.69038 1C4.69046 1 4.69055 1 4.69064 1C4.69072 1 4.69081 1 4.69089 1C4.69098 1 4.69107 1 4.69115 1C4.69124 1 4.69132 1 4.69141 1C4.6915 1 4.69158 1 4.69167 1C4.69175 1 4.69184 1 4.69193 1C4.69201 1 4.6921 1 4.69218 1C4.69227 1 4.69236 1 4.69244 1C4.69253 1 4.69261 1 4.6927 1C4.69279 1 4.69287 1 4.69296 1V-1C4.69287 -1 4.69279 -1 4.6927 -1C4.69261 -1 4.69253 -1 4.69244 -1C4.69236 -1 4.69227 -1 4.69218 -1C4.6921 -1 4.69201 -1 4.69193 -1C4.69184 -1 4.69175 -1 4.69167 -1C4.69158 -1 4.6915 -1 4.69141 -1C4.69132 -1 4.69124 -1 4.69115 -1C4.69107 -1 4.69098 -1 4.69089 -1C4.69081 -1 4.69072 -1 4.69064 -1C4.69055 -1 4.69046 -1 4.69038 -1C4.69029 -1 4.69021 -1 4.69012 -1C4.69003 -1 4.68995 -1 4.68986 -1C4.68978 -1 4.68969 -1 4.6896 -1C4.68952 -1 4.68943 -1 4.68935 -1C4.68926 -1 4.68918 -1 4.68909 -1C4.689 -1 4.68892 -1 4.68883 -1C4.68875 -1 4.68866 -1 4.68857 -1C4.68849 -1 4.6884 -1 4.68832 -1C4.68823 -1 4.68814 -1 4.68806 -1C4.68797 -1 4.68789 -1 4.6878 -1C4.68771 -1 4.68763 -1 4.68754 -1C4.68746 -1 4.68737 -1 4.68728 -1C4.6872 -1 4.68711 -1 4.68703 -1C4.68694 -1 4.68685 -1 4.68677 -1C4.68668 -1 4.6866 -1 4.68651 -1C4.68642 -1 4.68634 -1 4.68625 -1C4.68617 -1 4.68608 -1 4.68599 -1C4.68591 -1 4.68582 -1 4.68574 -1C4.68565 -1 4.68556 -1 4.68548 -1C4.68539 -1 4.68531 -1 4.68522 -1C4.68513 -1 4.68505 -1 4.68496 -1C4.68488 -1 4.68479 -1 4.68471 -1C4.68462 -1 4.68453 -1 4.68445 -1C4.68436 -1 4.68428 -1 4.68419 -1C4.6841 -1 4.68402 -1 4.68393 -1C4.68385 -1 4.68376 -1 4.68367 -1C4.68359 -1 4.6835 -1 4.68342 -1C4.68333 -1 4.68324 -1 4.68316 -1C4.68307 -1 4.68299 -1 4.6829 -1C4.68281 -1 4.68273 -1 4.68264 -1C4.68256 -1 4.68247 -1 4.68238 -1C4.6823 -1 4.68221 -1 4.68213 -1C4.68204 -1 4.68195 -1 4.68187 -1C4.68178 -1 4.6817 -1 4.68161 -1C4.68152 -1 4.68144 -1 4.68135 -1C4.68127 -1 4.68118 -1 4.68109 -1C4.68101 -1 4.68092 -1 4.68084 -1C4.68075 -1 4.68067 -1 4.68058 -1C4.68049 -1 4.68041 -1 4.68032 -1C4.68023 -1 4.68015 -1 4.68006 -1C4.67998 -1 4.67989 -1 4.67981 -1C4.67972 -1 4.67963 -1 4.67955 -1C4.67946 -1 4.67938 -1 4.67929 -1C4.6792 -1 4.67912 -1 4.67903 -1C4.67895 -1 4.67886 -1 4.67877 -1C4.67869 -1 4.6786 -1 4.67852 -1C4.67843 -1 4.67834 -1 4.67826 -1C4.67817 -1 4.67809 -1 4.678 -1C4.67791 -1 4.67783 -1 4.67774 -1C4.67766 -1 4.67757 -1 4.67748 -1C4.6774 -1 4.67731 -1 4.67723 -1C4.67714 -1 4.67705 -1 4.67697 -1C4.67688 -1 4.6768 -1 4.67671 -1C4.67662 -1 4.67654 -1 4.67645 -1C4.67637 -1 4.67628 -1 4.67619 -1C4.67611 -1 4.67602 -1 4.67594 -1C4.67585 -1 4.67577 -1 4.67568 -1C4.67559 -1 4.67551 -1 4.67542 -1C4.67533 -1 4.67525 -1 4.67516 -1C4.67508 -1 4.67499 -1 4.67491 -1C4.67482 -1 4.67473 -1 4.67465 -1C4.67456 -1 4.67448 -1 4.67439 -1C4.6743 -1 4.67422 -1 4.67413 -1C4.67405 -1 4.67396 -1 4.67387 -1C4.67379 -1 4.6737 -1 4.67362 -1C4.67353 -1 4.67344 -1 4.67336 -1C4.67327 -1 4.67319 -1 4.6731 -1C4.67301 -1 4.67293 -1 4.67284 -1C4.67276 -1 4.67267 -1 4.67258 -1C4.6725 -1 4.67241 -1 4.67233 -1C4.67224 -1 4.67215 -1 4.67207 -1C4.67198 -1 4.6719 -1 4.67181 -1C4.67172 -1 4.67164 -1 4.67155 -1C4.67147 -1 4.67138 -1 4.67129 -1C4.67121 -1 4.67112 -1 4.67104 -1C4.67095 -1 4.67087 -1 4.67078 -1C4.67069 -1 4.67061 -1 4.67052 -1C4.67043 -1 4.67035 -1 4.67026 -1C4.67018 -1 4.67009 -1 4.67001 -1C4.66992 -1 4.66983 -1 4.66975 -1C4.66966 -1 4.66958 -1 4.66949 -1C4.6694 -1 4.66932 -1 4.66923 -1C4.66915 -1 4.66906 -1 4.66897 -1C4.66889 -1 4.6688 -1 4.66872 -1C4.66863 -1 4.66854 -1 4.66846 -1C4.66837 -1 4.66829 -1 4.6682 -1C4.66811 -1 4.66803 -1 4.66794 -1C4.66786 -1 4.66777 -1 4.66768 -1C4.6676 -1 4.66751 -1 4.66743 -1C4.66734 -1 4.66725 -1 4.66717 -1C4.66708 -1 4.667 -1 4.66691 -1C4.66682 -1 4.66674 -1 4.66665 -1C4.66657 -1 4.66648 -1 4.66639 -1C4.66631 -1 4.66622 -1 4.66614 -1C4.66605 -1 4.66597 -1 4.66588 -1C4.66579 -1 4.66571 -1 4.66562 -1C4.66553 -1 4.66545 -1 4.66536 -1C4.66528 -1 4.66519 -1 4.66511 -1C4.66502 -1 4.66493 -1 4.66485 -1C4.66476 -1 4.66468 -1 4.66459 -1C4.6645 -1 4.66442 -1 4.66433 -1C4.66425 -1 4.66416 -1 4.66407 -1C4.66399 -1 4.6639 -1 4.66382 -1C4.66373 -1 4.66364 -1 4.66356 -1C4.66347 -1 4.66339 -1 4.6633 -1C4.66321 -1 4.66313 -1 4.66304 -1C4.66296 -1 4.66287 -1 4.66278 -1C4.6627 -1 4.66261 -1 4.66253 -1C4.66244 -1 4.66235 -1 4.66227 -1C4.66218 -1 4.6621 -1 4.66201 -1C4.66192 -1 4.66184 -1 4.66175 -1C4.66167 -1 4.66158 -1 4.66149 -1C4.66141 -1 4.66132 -1 4.66124 -1C4.66115 -1 4.66107 -1 4.66098 -1C4.66089 -1 4.66081 -1 4.66072 -1C4.66063 -1 4.66055 -1 4.66046 -1C4.66038 -1 4.66029 -1 4.66021 -1C4.66012 -1 4.66003 -1 4.65995 -1C4.65986 -1 4.65978 -1 4.65969 -1C4.6596 -1 4.65952 -1 4.65943 -1C4.65935 -1 4.65926 -1 4.65917 -1C4.65909 -1 4.659 -1 4.65892 -1C4.65883 -1 4.65874 -1 4.65866 -1C4.65857 -1 4.65849 -1 4.6584 -1C4.65831 -1 4.65823 -1 4.65814 -1C4.65806 -1 4.65797 -1 4.65788 -1C4.6578 -1 4.65771 -1 4.65763 -1C4.65754 -1 4.65745 -1 4.65737 -1C4.65728 -1 4.6572 -1 4.65711 -1C4.65702 -1 4.65694 -1 4.65685 -1C4.65677 -1 4.65668 -1 4.65659 -1C4.65651 -1 4.65642 -1 4.65634 -1C4.65625 -1 4.65617 -1 4.65608 -1C4.65599 -1 4.65591 -1 4.65582 -1C4.65574 -1 4.65565 -1 4.65556 -1C4.65548 -1 4.65539 -1 4.65531 -1C4.65522 -1 4.65513 -1 4.65505 -1C4.65496 -1 4.65488 -1 4.65479 -1C4.6547 -1 4.65462 -1 4.65453 -1C4.65445 -1 4.65436 -1 4.65427 -1C4.65419 -1 4.6541 -1 4.65402 -1C4.65393 -1 4.65384 -1 4.65376 -1C4.65367 -1 4.65359 -1 4.6535 -1C4.65341 -1 4.65333 -1 4.65324 -1C4.65316 -1 4.65307 -1 4.65298 -1C4.6529 -1 4.65281 -1 4.65273 -1C4.65264 -1 4.65255 -1 4.65247 -1C4.65238 -1 4.6523 -1 4.65221 -1C4.65212 -1 4.65204 -1 4.65195 -1C4.65187 -1 4.65178 -1 4.65169 -1C4.65161 -1 4.65152 -1 4.65144 -1C4.65135 -1 4.65127 -1 4.65118 -1C4.65109 -1 4.65101 -1 4.65092 -1C4.65084 -1 4.65075 -1 4.65066 -1C4.65058 -1 4.65049 -1 4.65041 -1C4.65032 -1 4.65023 -1 4.65015 -1C4.65006 -1 4.64998 -1 4.64989 -1C4.6498 -1 4.64972 -1 4.64963 -1C4.64955 -1 4.64946 -1 4.64937 -1C4.64929 -1 4.6492 -1 4.64912 -1C4.64903 -1 4.64894 -1 4.64886 -1C4.64877 -1 4.64869 -1 4.6486 -1C4.64851 -1 4.64843 -1 4.64834 -1C4.64826 -1 4.64817 -1 4.64808 -1C4.648 -1 4.64791 -1 4.64783 -1C4.64774 -1 4.64765 -1 4.64757 -1C4.64748 -1 4.6474 -1 4.64731 -1C4.64722 -1 4.64714 -1 4.64705 -1C4.64697 -1 4.64688 -1 4.64679 -1C4.64671 -1 4.64662 -1 4.64654 -1C4.64645 -1 4.64636 -1 4.64628 -1C4.64619 -1 4.64611 -1 4.64602 -1C4.64594 -1 4.64585 -1 4.64576 -1C4.64568 -1 4.64559 -1 4.64551 -1C4.64542 -1 4.64533 -1 4.64525 -1C4.64516 -1 4.64508 -1 4.64499 -1C4.6449 -1 4.64482 -1 4.64473 -1C4.64465 -1 4.64456 -1 4.64447 -1C4.64439 -1 4.6443 -1 4.64422 -1C4.64413 -1 4.64404 -1 4.64396 -1C4.64387 -1 4.64379 -1 4.6437 -1C4.64361 -1 4.64353 -1 4.64344 -1C4.64336 -1 4.64327 -1 4.64318 -1C4.6431 -1 4.64301 -1 4.64293 -1C4.64284 -1 4.64275 -1 4.64267 -1C4.64258 -1 4.6425 -1 4.64241 -1C4.64232 -1 4.64224 -1 4.64215 -1C4.64207 -1 4.64198 -1 4.64189 -1C4.64181 -1 4.64172 -1 4.64164 -1C4.64155 -1 4.64146 -1 4.64138 -1C4.64129 -1 4.64121 -1 4.64112 -1C4.64104 -1 4.64095 -1 4.64086 -1C4.64078 -1 4.64069 -1 4.6406 -1C4.64052 -1 4.64043 -1 4.64035 -1C4.64026 -1 4.64018 -1 4.64009 -1C4.64 -1 4.63992 -1 4.63983 -1C4.63975 -1 4.63966 -1 4.63957 -1C4.63949 -1 4.6394 -1 4.63932 -1C4.63923 -1 4.63914 -1 4.63906 -1C4.63897 -1 4.63889 -1 4.6388 -1C4.63871 -1 4.63863 -1 4.63854 -1C4.63846 -1 4.63837 -1 4.63828 -1C4.6382 -1 4.63811 -1 4.63803 -1C4.63794 -1 4.63785 -1 4.63777 -1C4.63768 -1 4.6376 -1 4.63751 -1C4.63742 -1 4.63734 -1 4.63725 -1C4.63717 -1 4.63708 -1 4.63699 -1C4.63691 -1 4.63682 -1 4.63674 -1C4.63665 -1 4.63656 -1 4.63648 -1C4.63639 -1 4.63631 -1 4.63622 -1C4.63614 -1 4.63605 -1 4.63596 -1C4.63588 -1 4.63579 -1 4.6357 -1C4.63562 -1 4.63553 -1 4.63545 -1C4.63536 -1 4.63528 -1 4.63519 -1C4.6351 -1 4.63502 -1 4.63493 -1C4.63485 -1 4.63476 -1 4.63467 -1C4.63459 -1 4.6345 -1 4.63442 -1C4.63433 -1 4.63424 -1 4.63416 -1C4.63407 -1 4.63399 -1 4.6339 -1C4.63381 -1 4.63373 -1 4.63364 -1C4.63356 -1 4.63347 -1 4.63338 -1C4.6333 -1 4.63321 -1 4.63313 -1C4.63304 -1 4.63295 -1 4.63287 -1C4.63278 -1 4.6327 -1 4.63261 -1C4.63252 -1 4.63244 -1 4.63235 -1C4.63227 -1 4.63218 -1 4.63209 -1C4.63201 -1 4.63192 -1 4.63184 -1C4.63175 -1 4.63166 -1 4.63158 -1C4.63149 -1 4.63141 -1 4.63132 -1C4.63123 -1 4.63115 -1 4.63106 -1C4.63098 -1 4.63089 -1 4.63081 -1C4.63072 -1 4.63063 -1 4.63055 -1C4.63046 -1 4.63037 -1 4.63029 -1C4.6302 -1 4.63012 -1 4.63003 -1C4.62995 -1 4.62986 -1 4.62977 -1C4.62969 -1 4.6296 -1 4.62952 -1C4.62943 -1 4.62934 -1 4.62926 -1C4.62917 -1 4.62909 -1 4.629 -1C4.62891 -1 4.62883 -1 4.62874 -1C4.62866 -1 4.62857 -1 4.62848 -1C4.6284 -1 4.62831 -1 4.62823 -1C4.62814 -1 4.62805 -1 4.62797 -1C4.62788 -1 4.6278 -1 4.62771 -1C4.62762 -1 4.62754 -1 4.62745 -1C4.62737 -1 4.62728 -1 4.62719 -1C4.62711 -1 4.62702 -1 4.62694 -1C4.62685 -1 4.62676 -1 4.62668 -1C4.62659 -1 4.62651 -1 4.62642 -1C4.62633 -1 4.62625 -1 4.62616 -1C4.62608 -1 4.62599 -1 4.62591 -1C4.62582 -1 4.62573 -1 4.62565 -1C4.62556 -1 4.62547 -1 4.62539 -1C4.6253 -1 4.62522 -1 4.62513 -1C4.62505 -1 4.62496 -1 4.62487 -1C4.62479 -1 4.6247 -1 4.62462 -1C4.62453 -1 4.62444 -1 4.62436 -1C4.62427 -1 4.62419 -1 4.6241 -1C4.62401 -1 4.62393 -1 4.62384 -1C4.62376 -1 4.62367 -1 4.62358 -1C4.6235 -1 4.62341 -1 4.62333 -1C4.62324 -1 4.62315 -1 4.62307 -1C4.62298 -1 4.6229 -1 4.62281 -1C4.62272 -1 4.62264 -1 4.62255 -1C4.62247 -1 4.62238 -1 4.62229 -1C4.62221 -1 4.62212 -1 4.62204 -1C4.62195 -1 4.62186 -1 4.62178 -1C4.62169 -1 4.62161 -1 4.62152 -1C4.62143 -1 4.62135 -1 4.62126 -1C4.62118 -1 4.62109 -1 4.621 -1C4.62092 -1 4.62083 -1 4.62075 -1C4.62066 -1 4.62057 -1 4.62049 -1C4.6204 -1 4.62032 -1 4.62023 -1C4.62014 -1 4.62006 -1 4.61997 -1C4.61989 -1 4.6198 -1 4.61972 -1C4.61963 -1 4.61954 -1 4.61946 -1C4.61937 -1 4.61929 -1 4.6192 -1C4.61911 -1 4.61903 -1 4.61894 -1C4.61886 -1 4.61877 -1 4.61868 -1C4.6186 -1 4.61851 -1 4.61843 -1C4.61834 -1 4.61825 -1 4.61817 -1C4.61808 -1 4.618 -1 4.61791 -1C4.61782 -1 4.61774 -1 4.61765 -1C4.61757 -1 4.61748 -1 4.61739 -1C4.61731 -1 4.61722 -1 4.61714 -1C4.61705 -1 4.61696 -1 4.61688 -1C4.61679 -1 4.61671 -1 4.61662 -1C4.61653 -1 4.61645 -1 4.61636 -1C4.61628 -1 4.61619 -1 4.6161 -1C4.61602 -1 4.61593 -1 4.61585 -1C4.61576 -1 4.61567 -1 4.61559 -1C4.6155 -1 4.61542 -1 4.61533 -1C4.61524 -1 4.61516 -1 4.61507 -1C4.61499 -1 4.6149 -1 4.61482 -1C4.61473 -1 4.61464 -1 4.61456 -1C4.61447 -1 4.61439 -1 4.6143 -1C4.61421 -1 4.61413 -1 4.61404 -1C4.61396 -1 4.61387 -1 4.61378 -1C4.6137 -1 4.61361 -1 4.61353 -1C4.61344 -1 4.61335 -1 4.61327 -1C4.61318 -1 4.6131 -1 4.61301 -1C4.61292 -1 4.61284 -1 4.61275 -1C4.61267 -1 4.61258 -1 4.61249 -1C4.61241 -1 4.61232 -1 4.61224 -1C4.61215 -1 4.61206 -1 4.61198 -1C4.61189 -1 4.61181 -1 4.61172 -1C4.61163 -1 4.61155 -1 4.61146 -1C4.61138 -1 4.61129 -1 4.6112 -1C4.61112 -1 4.61103 -1 4.61095 -1C4.61086 -1 4.61077 -1 4.61069 -1C4.6106 -1 4.61052 -1 4.61043 -1C4.61034 -1 4.61026 -1 4.61017 -1C4.61009 -1 4.61 -1 4.60992 -1C4.60983 -1 4.60974 -1 4.60966 -1C4.60957 -1 4.60949 -1 4.6094 -1C4.60931 -1 4.60923 -1 4.60914 -1C4.60906 -1 4.60897 -1 4.60888 -1C4.6088 -1 4.60871 -1 4.60863 -1C4.60854 -1 4.60845 -1 4.60837 -1C4.60828 -1 4.6082 -1 4.60811 -1C4.60802 -1 4.60794 -1 4.60785 -1C4.60777 -1 4.60768 -1 4.60759 -1C4.60751 -1 4.60742 -1 4.60734 -1C4.60725 -1 4.60716 -1 4.60708 -1C4.60699 -1 4.60691 -1 4.60682 -1C4.60673 -1 4.60665 -1 4.60656 -1C4.60648 -1 4.60639 -1 4.6063 -1C4.60622 -1 4.60613 -1 4.60605 -1C4.60596 -1 4.60587 -1 4.60579 -1C4.6057 -1 4.60562 -1 4.60553 -1C4.60544 -1 4.60536 -1 4.60527 -1C4.60519 -1 4.6051 -1 4.60501 -1C4.60493 -1 4.60484 -1 4.60476 -1C4.60467 -1 4.60459 -1 4.6045 -1C4.60441 -1 4.60433 -1 4.60424 -1C4.60416 -1 4.60407 -1 4.60398 -1C4.6039 -1 4.60381 -1 4.60373 -1C4.60364 -1 4.60355 -1 4.60347 -1C4.60338 -1 4.6033 -1 4.60321 -1C4.60312 -1 4.60304 -1 4.60295 -1C4.60287 -1 4.60278 -1 4.60269 -1C4.60261 -1 4.60252 -1 4.60244 -1C4.60235 -1 4.60226 -1 4.60218 -1C4.60209 -1 4.60201 -1 4.60192 -1C4.60183 -1 4.60175 -1 4.60166 -1C4.60158 -1 4.60149 -1 4.6014 -1C4.60132 -1 4.60123 -1 4.60115 -1C4.60106 -1 4.60097 -1 4.60089 -1C4.6008 -1 4.60072 -1 4.60063 -1C4.60054 -1 4.60046 -1 4.60037 -1C4.60029 -1 4.6002 -1 4.60011 -1C4.60003 -1 4.59994 -1 4.59986 -1C4.59977 -1 4.59969 -1 4.5996 -1C4.59951 -1 4.59943 -1 4.59934 -1C4.59926 -1 4.59917 -1 4.59908 -1C4.599 -1 4.59891 -1 4.59883 -1C4.59874 -1 4.59865 -1 4.59857 -1C4.59848 -1 4.5984 -1 4.59831 -1C4.59822 -1 4.59814 -1 4.59805 -1C4.59797 -1 4.59788 -1 4.59779 -1C4.59771 -1 4.59762 -1 4.59754 -1C4.59745 -1 4.59736 -1 4.59728 -1C4.59719 -1 4.59711 -1 4.59702 -1C4.59693 -1 4.59685 -1 4.59676 -1C4.59668 -1 4.59659 -1 4.5965 -1C4.59642 -1 4.59633 -1 4.59625 -1C4.59616 -1 4.59607 -1 4.59599 -1C4.5959 -1 4.59582 -1 4.59573 -1C4.59564 -1 4.59556 -1 4.59547 -1C4.59539 -1 4.5953 -1 4.59521 -1C4.59513 -1 4.59504 -1 4.59496 -1C4.59487 -1 4.59479 -1 4.5947 -1C4.59461 -1 4.59453 -1 4.59444 -1C4.59436 -1 4.59427 -1 4.59418 -1C4.5941 -1 4.59401 -1 4.59393 -1C4.59384 -1 4.59375 -1 4.59367 -1C4.59358 -1 4.5935 -1 4.59341 -1C4.59332 -1 4.59324 -1 4.59315 -1C4.59307 -1 4.59298 -1 4.59289 -1C4.59281 -1 4.59272 -1 4.59264 -1C4.59255 -1 4.59246 -1 4.59238 -1C4.59229 -1 4.59221 -1 4.59212 -1C4.59203 -1 4.59195 -1 4.59186 -1C4.59178 -1 4.59169 -1 4.5916 -1C4.59152 -1 4.59143 -1 4.59135 -1C4.59126 -1 4.59117 -1 4.59109 -1C4.591 -1 4.59092 -1 4.59083 -1C4.59074 -1 4.59066 -1 4.59057 -1C4.59049 -1 4.5904 -1 4.59031 -1C4.59023 -1 4.59014 -1 4.59006 -1C4.58997 -1 4.58989 -1 4.5898 -1C4.58971 -1 4.58963 -1 4.58954 -1C4.58946 -1 4.58937 -1 4.58928 -1C4.5892 -1 4.58911 -1 4.58903 -1C4.58894 -1 4.58885 -1 4.58877 -1C4.58868 -1 4.5886 -1 4.58851 -1C4.58842 -1 4.58834 -1 4.58825 -1C4.58817 -1 4.58808 -1 4.58799 -1C4.58791 -1 4.58782 -1 4.58774 -1C4.58765 -1 4.58756 -1 4.58748 -1C4.58739 -1 4.58731 -1 4.58722 -1C4.58713 -1 4.58705 -1 4.58696 -1C4.58688 -1 4.58679 -1 4.5867 -1C4.58662 -1 4.58653 -1 4.58645 -1C4.58636 -1 4.58627 -1 4.58619 -1C4.5861 -1 4.58602 -1 4.58593 -1C4.58584 -1 4.58576 -1 4.58567 -1C4.58559 -1 4.5855 -1 4.58541 -1C4.58533 -1 4.58524 -1 4.58516 -1C4.58507 -1 4.58499 -1 4.5849 -1C4.58481 -1 4.58473 -1 4.58464 -1C4.58456 -1 4.58447 -1 4.58438 -1C4.5843 -1 4.58421 -1 4.58413 -1C4.58404 -1 4.58395 -1 4.58387 -1C4.58378 -1 4.5837 -1 4.58361 -1C4.58352 -1 4.58344 -1 4.58335 -1C4.58327 -1 4.58318 -1 4.58309 -1C4.58301 -1 4.58292 -1 4.58284 -1C4.58275 -1 4.58266 -1 4.58258 -1C4.58249 -1 4.58241 -1 4.58232 -1C4.58223 -1 4.58215 -1 4.58206 -1C4.58198 -1 4.58189 -1 4.5818 -1C4.58172 -1 4.58163 -1 4.58155 -1C4.58146 -1 4.58137 -1 4.58129 -1C4.5812 -1 4.58112 -1 4.58103 -1C4.58094 -1 4.58086 -1 4.58077 -1C4.58069 -1 4.5806 -1 4.58051 -1C4.58043 -1 4.58034 -1 4.58026 -1C4.58017 -1 4.58009 -1 4.58 -1C4.57991 -1 4.57983 -1 4.57974 -1C4.57966 -1 4.57957 -1 4.57948 -1C4.5794 -1 4.57931 -1 4.57923 -1C4.57914 -1 4.57905 -1 4.57897 -1C4.57888 -1 4.5788 -1 4.57871 -1C4.57862 -1 4.57854 -1 4.57845 -1C4.57837 -1 4.57828 -1 4.57819 -1C4.57811 -1 4.57802 -1 4.57794 -1C4.57785 -1 4.57776 -1 4.57768 -1C4.57759 -1 4.57751 -1 4.57742 -1C4.57733 -1 4.57725 -1 4.57716 -1C4.57708 -1 4.57699 -1 4.5769 -1C4.57682 -1 4.57673 -1 4.57665 -1C4.57656 -1 4.57647 -1 4.57639 -1C4.5763 -1 4.57622 -1 4.57613 -1C4.57605 -1 4.57596 -1 4.57587 -1C4.57579 -1 4.5757 -1 4.57561 -1C4.57553 -1 4.57544 -1 4.57536 -1C4.57527 -1 4.57519 -1 4.5751 -1C4.57501 -1 4.57493 -1 4.57484 -1C4.57476 -1 4.57467 -1 4.57458 -1C4.5745 -1 4.57441 -1 4.57433 -1C4.57424 -1 4.57415 -1 4.57407 -1C4.57398 -1 4.5739 -1 4.57381 -1C4.57372 -1 4.57364 -1 4.57355 -1C4.57347 -1 4.57338 -1 4.57329 -1C4.57321 -1 4.57312 -1 4.57304 -1C4.57295 -1 4.57286 -1 4.57278 -1C4.57269 -1 4.57261 -1 4.57252 -1C4.57243 -1 4.57235 -1 4.57226 -1C4.57218 -1 4.57209 -1 4.572 -1C4.57192 -1 4.57183 -1 4.57175 -1C4.57166 -1 4.57157 -1 4.57149 -1C4.5714 -1 4.57132 -1 4.57123 -1C4.57115 -1 4.57106 -1 4.57097 -1C4.57089 -1 4.5708 -1 4.57071 -1C4.57063 -1 4.57054 -1 4.57046 -1C4.57037 -1 4.57029 -1 4.5702 -1C4.57011 -1 4.57003 -1 4.56994 -1C4.56986 -1 4.56977 -1 4.56968 -1C4.5696 -1 4.56951 -1 4.56943 -1C4.56934 -1 4.56925 -1 4.56917 -1C4.56908 -1 4.569 -1 4.56891 -1C4.56882 -1 4.56874 -1 4.56865 -1C4.56857 -1 4.56848 -1 4.56839 -1C4.56831 -1 4.56822 -1 4.56814 -1C4.56805 -1 4.56796 -1 4.56788 -1C4.56779 -1 4.56771 -1 4.56762 -1C4.56753 -1 4.56745 -1 4.56736 -1C4.56728 -1 4.56719 -1 4.5671 -1C4.56702 -1 4.56693 -1 4.56685 -1C4.56676 -1 4.56667 -1 4.56659 -1C4.5665 -1 4.56642 -1 4.56633 -1C4.56625 -1 4.56616 -1 4.56607 -1C4.56599 -1 4.5659 -1 4.56582 -1C4.56573 -1 4.56564 -1 4.56556 -1C4.56547 -1 4.56539 -1 4.5653 -1C4.56521 -1 4.56513 -1 4.56504 -1C4.56496 -1 4.56487 -1 4.56478 -1C4.5647 -1 4.56461 -1 4.56453 -1C4.56444 -1 4.56435 -1 4.56427 -1C4.56418 -1 4.5641 -1 4.56401 -1C4.56392 -1 4.56384 -1 4.56375 -1C4.56367 -1 4.56358 -1 4.56349 -1C4.56341 -1 4.56332 -1 4.56324 -1C4.56315 -1 4.56306 -1 4.56298 -1C4.56289 -1 4.56281 -1 4.56272 -1C4.56263 -1 4.56255 -1 4.56246 -1C4.56238 -1 4.56229 -1 4.5622 -1C4.56212 -1 4.56203 -1 4.56195 -1C4.56186 -1 4.56178 -1 4.56169 -1C4.5616 -1 4.56152 -1 4.56143 -1C4.56135 -1 4.56126 -1 4.56117 -1C4.56109 -1 4.561 -1 4.56092 -1V1ZM4.69296 1H14.6279V-1H4.69296V1ZM14.6279 1C14.628 1 14.6281 1 14.6282 1C14.6282 1 14.6283 1 14.6284 1C14.6285 1 14.6286 1 14.6287 1C14.6288 1 14.6288 1 14.6289 1C14.629 1 14.6291 1 14.6292 1C14.6293 1 14.6294 1 14.6294 1C14.6295 1 14.6296 1 14.6297 1C14.6298 1 14.6299 1 14.63 1C14.63 1 14.6301 1 14.6302 1C14.6303 1 14.6304 1 14.6305 1C14.6306 1 14.6306 1 14.6307 1C14.6308 1 14.6309 1 14.631 1C14.6311 1 14.6312 1 14.6313 1C14.6313 1 14.6314 1 14.6315 1C14.6316 1 14.6317 1 14.6318 1C14.6319 1 14.6319 1 14.632 1C14.6321 1 14.6322 1 14.6323 1C14.6324 1 14.6325 1 14.6325 1C14.6326 1 14.6327 1 14.6328 1C14.6329 1 14.633 1 14.6331 1C14.6331 1 14.6332 1 14.6333 1C14.6334 1 14.6335 1 14.6336 1C14.6337 1 14.6337 1 14.6338 1C14.6339 1 14.634 1 14.6341 1C14.6342 1 14.6343 1 14.6343 1C14.6344 1 14.6345 1 14.6346 1C14.6347 1 14.6348 1 14.6349 1C14.6349 1 14.635 1 14.6351 1C14.6352 1 14.6353 1 14.6354 1C14.6355 1 14.6355 1 14.6356 1C14.6357 1 14.6358 1 14.6359 1C14.636 1 14.6361 1 14.6362 1C14.6362 1 14.6363 1 14.6364 1C14.6365 1 14.6366 1 14.6367 1C14.6368 1 14.6368 1 14.6369 1C14.637 1 14.6371 1 14.6372 1C14.6373 1 14.6374 1 14.6374 1C14.6375 1 14.6376 1 14.6377 1C14.6378 1 14.6379 1 14.638 1C14.638 1 14.6381 1 14.6382 1C14.6383 1 14.6384 1 14.6385 1C14.6386 1 14.6386 1 14.6387 1C14.6388 1 14.6389 1 14.639 1C14.6391 1 14.6392 1 14.6392 1C14.6393 1 14.6394 1 14.6395 1C14.6396 1 14.6397 1 14.6398 1C14.6398 1 14.6399 1 14.64 1C14.6401 1 14.6402 1 14.6403 1C14.6404 1 14.6404 1 14.6405 1C14.6406 1 14.6407 1 14.6408 1C14.6409 1 14.641 1 14.6411 1C14.6411 1 14.6412 1 14.6413 1C14.6414 1 14.6415 1 14.6416 1C14.6417 1 14.6417 1 14.6418 1C14.6419 1 14.642 1 14.6421 1C14.6422 1 14.6423 1 14.6423 1C14.6424 1 14.6425 1 14.6426 1C14.6427 1 14.6428 1 14.6429 1C14.6429 1 14.643 1 14.6431 1C14.6432 1 14.6433 1 14.6434 1C14.6435 1 14.6435 1 14.6436 1C14.6437 1 14.6438 1 14.6439 1C14.644 1 14.6441 1 14.6441 1C14.6442 1 14.6443 1 14.6444 1C14.6445 1 14.6446 1 14.6447 1C14.6447 1 14.6448 1 14.6449 1C14.645 1 14.6451 1 14.6452 1C14.6453 1 14.6453 1 14.6454 1C14.6455 1 14.6456 1 14.6457 1C14.6458 1 14.6459 1 14.646 1C14.646 1 14.6461 1 14.6462 1C14.6463 1 14.6464 1 14.6465 1C14.6466 1 14.6466 1 14.6467 1C14.6468 1 14.6469 1 14.647 1C14.6471 1 14.6472 1 14.6472 1C14.6473 1 14.6474 1 14.6475 1C14.6476 1 14.6477 1 14.6478 1C14.6478 1 14.6479 1 14.648 1C14.6481 1 14.6482 1 14.6483 1C14.6484 1 14.6484 1 14.6485 1C14.6486 1 14.6487 1 14.6488 1C14.6489 1 14.649 1 14.649 1C14.6491 1 14.6492 1 14.6493 1C14.6494 1 14.6495 1 14.6496 1C14.6496 1 14.6497 1 14.6498 1C14.6499 1 14.65 1 14.6501 1C14.6502 1 14.6502 1 14.6503 1C14.6504 1 14.6505 1 14.6506 1C14.6507 1 14.6508 1 14.6508 1C14.6509 1 14.651 1 14.6511 1C14.6512 1 14.6513 1 14.6514 1C14.6515 1 14.6515 1 14.6516 1C14.6517 1 14.6518 1 14.6519 1C14.652 1 14.6521 1 14.6521 1C14.6522 1 14.6523 1 14.6524 1C14.6525 1 14.6526 1 14.6527 1C14.6527 1 14.6528 1 14.6529 1C14.653 1 14.6531 1 14.6532 1C14.6533 1 14.6533 1 14.6534 1C14.6535 1 14.6536 1 14.6537 1C14.6538 1 14.6539 1 14.6539 1C14.654 1 14.6541 1 14.6542 1C14.6543 1 14.6544 1 14.6545 1C14.6545 1 14.6546 1 14.6547 1C14.6548 1 14.6549 1 14.655 1C14.6551 1 14.6551 1 14.6552 1C14.6553 1 14.6554 1 14.6555 1C14.6556 1 14.6557 1 14.6557 1C14.6558 1 14.6559 1 14.656 1C14.6561 1 14.6562 1 14.6563 1C14.6564 1 14.6564 1 14.6565 1C14.6566 1 14.6567 1 14.6568 1C14.6569 1 14.657 1 14.657 1C14.6571 1 14.6572 1 14.6573 1C14.6574 1 14.6575 1 14.6576 1C14.6576 1 14.6577 1 14.6578 1C14.6579 1 14.658 1 14.6581 1C14.6582 1 14.6582 1 14.6583 1C14.6584 1 14.6585 1 14.6586 1C14.6587 1 14.6588 1 14.6588 1C14.6589 1 14.659 1 14.6591 1C14.6592 1 14.6593 1 14.6594 1C14.6594 1 14.6595 1 14.6596 1C14.6597 1 14.6598 1 14.6599 1C14.66 1 14.66 1 14.6601 1C14.6602 1 14.6603 1 14.6604 1C14.6605 1 14.6606 1 14.6607 1C14.6607 1 14.6608 1 14.6609 1C14.661 1 14.6611 1 14.6612 1C14.6613 1 14.6613 1 14.6614 1C14.6615 1 14.6616 1 14.6617 1C14.6618 1 14.6619 1 14.6619 1C14.662 1 14.6621 1 14.6622 1C14.6623 1 14.6624 1 14.6625 1C14.6625 1 14.6626 1 14.6627 1C14.6628 1 14.6629 1 14.663 1C14.6631 1 14.6631 1 14.6632 1C14.6633 1 14.6634 1 14.6635 1C14.6636 1 14.6637 1 14.6637 1C14.6638 1 14.6639 1 14.664 1C14.6641 1 14.6642 1 14.6643 1C14.6643 1 14.6644 1 14.6645 1C14.6646 1 14.6647 1 14.6648 1C14.6649 1 14.6649 1 14.665 1C14.6651 1 14.6652 1 14.6653 1C14.6654 1 14.6655 1 14.6656 1C14.6656 1 14.6657 1 14.6658 1C14.6659 1 14.666 1 14.6661 1C14.6662 1 14.6662 1 14.6663 1C14.6664 1 14.6665 1 14.6666 1C14.6667 1 14.6668 1 14.6668 1C14.6669 1 14.667 1 14.6671 1C14.6672 1 14.6673 1 14.6674 1C14.6674 1 14.6675 1 14.6676 1C14.6677 1 14.6678 1 14.6679 1C14.668 1 14.668 1 14.6681 1C14.6682 1 14.6683 1 14.6684 1C14.6685 1 14.6686 1 14.6686 1C14.6687 1 14.6688 1 14.6689 1C14.669 1 14.6691 1 14.6692 1C14.6692 1 14.6693 1 14.6694 1C14.6695 1 14.6696 1 14.6697 1C14.6698 1 14.6698 1 14.6699 1C14.67 1 14.6701 1 14.6702 1C14.6703 1 14.6704 1 14.6705 1C14.6705 1 14.6706 1 14.6707 1C14.6708 1 14.6709 1 14.671 1C14.6711 1 14.6711 1 14.6712 1C14.6713 1 14.6714 1 14.6715 1C14.6716 1 14.6717 1 14.6717 1C14.6718 1 14.6719 1 14.672 1C14.6721 1 14.6722 1 14.6723 1C14.6723 1 14.6724 1 14.6725 1C14.6726 1 14.6727 1 14.6728 1C14.6729 1 14.6729 1 14.673 1C14.6731 1 14.6732 1 14.6733 1C14.6734 1 14.6735 1 14.6735 1C14.6736 1 14.6737 1 14.6738 1C14.6739 1 14.674 1 14.6741 1C14.6741 1 14.6742 1 14.6743 1C14.6744 1 14.6745 1 14.6746 1C14.6747 1 14.6747 1 14.6748 1C14.6749 1 14.675 1 14.6751 1C14.6752 1 14.6753 1 14.6754 1C14.6754 1 14.6755 1 14.6756 1C14.6757 1 14.6758 1 14.6759 1C14.676 1 14.676 1 14.6761 1C14.6762 1 14.6763 1 14.6764 1C14.6765 1 14.6766 1 14.6766 1C14.6767 1 14.6768 1 14.6769 1C14.677 1 14.6771 1 14.6772 1C14.6772 1 14.6773 1 14.6774 1C14.6775 1 14.6776 1 14.6777 1C14.6778 1 14.6778 1 14.6779 1C14.678 1 14.6781 1 14.6782 1C14.6783 1 14.6784 1 14.6784 1C14.6785 1 14.6786 1 14.6787 1C14.6788 1 14.6789 1 14.679 1C14.679 1 14.6791 1 14.6792 1C14.6793 1 14.6794 1 14.6795 1C14.6796 1 14.6796 1 14.6797 1C14.6798 1 14.6799 1 14.68 1C14.6801 1 14.6802 1 14.6803 1C14.6803 1 14.6804 1 14.6805 1C14.6806 1 14.6807 1 14.6808 1C14.6809 1 14.6809 1 14.681 1C14.6811 1 14.6812 1 14.6813 1C14.6814 1 14.6815 1 14.6815 1C14.6816 1 14.6817 1 14.6818 1C14.6819 1 14.682 1 14.6821 1C14.6821 1 14.6822 1 14.6823 1C14.6824 1 14.6825 1 14.6826 1C14.6827 1 14.6827 1 14.6828 1C14.6829 1 14.683 1 14.6831 1C14.6832 1 14.6833 1 14.6833 1C14.6834 1 14.6835 1 14.6836 1C14.6837 1 14.6838 1 14.6839 1C14.6839 1 14.684 1 14.6841 1C14.6842 1 14.6843 1 14.6844 1C14.6845 1 14.6845 1 14.6846 1C14.6847 1 14.6848 1 14.6849 1C14.685 1 14.6851 1 14.6852 1C14.6852 1 14.6853 1 14.6854 1C14.6855 1 14.6856 1 14.6857 1C14.6858 1 14.6858 1 14.6859 1C14.686 1 14.6861 1 14.6862 1C14.6863 1 14.6864 1 14.6864 1C14.6865 1 14.6866 1 14.6867 1C14.6868 1 14.6869 1 14.687 1C14.687 1 14.6871 1 14.6872 1C14.6873 1 14.6874 1 14.6875 1C14.6876 1 14.6876 1 14.6877 1C14.6878 1 14.6879 1 14.688 1C14.6881 1 14.6882 1 14.6882 1C14.6883 1 14.6884 1 14.6885 1C14.6886 1 14.6887 1 14.6888 1C14.6888 1 14.6889 1 14.689 1C14.6891 1 14.6892 1 14.6893 1C14.6894 1 14.6894 1 14.6895 1C14.6896 1 14.6897 1 14.6898 1C14.6899 1 14.69 1 14.6901 1C14.6901 1 14.6902 1 14.6903 1C14.6904 1 14.6905 1 14.6906 1C14.6907 1 14.6907 1 14.6908 1C14.6909 1 14.691 1 14.6911 1C14.6912 1 14.6913 1 14.6913 1C14.6914 1 14.6915 1 14.6916 1C14.6917 1 14.6918 1 14.6919 1C14.6919 1 14.692 1 14.6921 1C14.6922 1 14.6923 1 14.6924 1C14.6925 1 14.6925 1 14.6926 1C14.6927 1 14.6928 1 14.6929 1C14.693 1 14.6931 1 14.6931 1C14.6932 1 14.6933 1 14.6934 1C14.6935 1 14.6936 1 14.6937 1C14.6937 1 14.6938 1 14.6939 1C14.694 1 14.6941 1 14.6942 1C14.6943 1 14.6943 1 14.6944 1C14.6945 1 14.6946 1 14.6947 1C14.6948 1 14.6949 1 14.695 1C14.695 1 14.6951 1 14.6952 1C14.6953 1 14.6954 1 14.6955 1C14.6956 1 14.6956 1 14.6957 1C14.6958 1 14.6959 1 14.696 1C14.6961 1 14.6962 1 14.6962 1C14.6963 1 14.6964 1 14.6965 1C14.6966 1 14.6967 1 14.6968 1C14.6968 1 14.6969 1 14.697 1C14.6971 1 14.6972 1 14.6973 1C14.6974 1 14.6974 1 14.6975 1C14.6976 1 14.6977 1 14.6978 1C14.6979 1 14.698 1 14.698 1C14.6981 1 14.6982 1 14.6983 1C14.6984 1 14.6985 1 14.6986 1C14.6986 1 14.6987 1 14.6988 1C14.6989 1 14.699 1 14.6991 1C14.6992 1 14.6992 1 14.6993 1C14.6994 1 14.6995 1 14.6996 1C14.6997 1 14.6998 1 14.6999 1C14.6999 1 14.7 1 14.7001 1C14.7002 1 14.7003 1 14.7004 1C14.7005 1 14.7005 1 14.7006 1C14.7007 1 14.7008 1 14.7009 1C14.701 1 14.7011 1 14.7011 1C14.7012 1 14.7013 1 14.7014 1C14.7015 1 14.7016 1 14.7017 1C14.7017 1 14.7018 1 14.7019 1C14.702 1 14.7021 1 14.7022 1C14.7023 1 14.7023 1 14.7024 1C14.7025 1 14.7026 1 14.7027 1C14.7028 1 14.7029 1 14.7029 1C14.703 1 14.7031 1 14.7032 1C14.7033 1 14.7034 1 14.7035 1C14.7035 1 14.7036 1 14.7037 1C14.7038 1 14.7039 1 14.704 1C14.7041 1 14.7041 1 14.7042 1C14.7043 1 14.7044 1 14.7045 1C14.7046 1 14.7047 1 14.7048 1C14.7048 1 14.7049 1 14.705 1C14.7051 1 14.7052 1 14.7053 1C14.7054 1 14.7054 1 14.7055 1C14.7056 1 14.7057 1 14.7058 1C14.7059 1 14.706 1 14.706 1C14.7061 1 14.7062 1 14.7063 1C14.7064 1 14.7065 1 14.7066 1C14.7066 1 14.7067 1 14.7068 1C14.7069 1 14.707 1 14.7071 1C14.7072 1 14.7072 1 14.7073 1C14.7074 1 14.7075 1 14.7076 1C14.7077 1 14.7078 1 14.7078 1C14.7079 1 14.708 1 14.7081 1C14.7082 1 14.7083 1 14.7084 1C14.7084 1 14.7085 1 14.7086 1C14.7087 1 14.7088 1 14.7089 1C14.709 1 14.709 1 14.7091 1C14.7092 1 14.7093 1 14.7094 1C14.7095 1 14.7096 1 14.7097 1C14.7097 1 14.7098 1 14.7099 1C14.71 1 14.7101 1 14.7102 1C14.7103 1 14.7103 1 14.7104 1C14.7105 1 14.7106 1 14.7107 1C14.7108 1 14.7109 1 14.7109 1C14.711 1 14.7111 1 14.7112 1C14.7113 1 14.7114 1 14.7115 1C14.7115 1 14.7116 1 14.7117 1C14.7118 1 14.7119 1 14.712 1C14.7121 1 14.7121 1 14.7122 1C14.7123 1 14.7124 1 14.7125 1C14.7126 1 14.7127 1 14.7127 1C14.7128 1 14.7129 1 14.713 1C14.7131 1 14.7132 1 14.7133 1C14.7133 1 14.7134 1 14.7135 1C14.7136 1 14.7137 1 14.7138 1C14.7139 1 14.7139 1 14.714 1C14.7141 1 14.7142 1 14.7143 1C14.7144 1 14.7145 1 14.7146 1C14.7146 1 14.7147 1 14.7148 1C14.7149 1 14.715 1 14.7151 1C14.7152 1 14.7152 1 14.7153 1C14.7154 1 14.7155 1 14.7156 1C14.7157 1 14.7158 1 14.7158 1C14.7159 1 14.716 1 14.7161 1C14.7162 1 14.7163 1 14.7164 1C14.7164 1 14.7165 1 14.7166 1C14.7167 1 14.7168 1 14.7169 1C14.717 1 14.717 1 14.7171 1C14.7172 1 14.7173 1 14.7174 1C14.7175 1 14.7176 1 14.7176 1C14.7177 1 14.7178 1 14.7179 1C14.718 1 14.7181 1 14.7182 1C14.7182 1 14.7183 1 14.7184 1C14.7185 1 14.7186 1 14.7187 1C14.7188 1 14.7188 1 14.7189 1C14.719 1 14.7191 1 14.7192 1C14.7193 1 14.7194 1 14.7195 1C14.7195 1 14.7196 1 14.7197 1C14.7198 1 14.7199 1 14.72 1C14.7201 1 14.7201 1 14.7202 1C14.7203 1 14.7204 1 14.7205 1C14.7206 1 14.7207 1 14.7207 1C14.7208 1 14.7209 1 14.721 1C14.7211 1 14.7212 1 14.7213 1C14.7213 1 14.7214 1 14.7215 1C14.7216 1 14.7217 1 14.7218 1C14.7219 1 14.7219 1 14.722 1C14.7221 1 14.7222 1 14.7223 1C14.7224 1 14.7225 1 14.7225 1C14.7226 1 14.7227 1 14.7228 1C14.7229 1 14.723 1 14.7231 1C14.7231 1 14.7232 1 14.7233 1C14.7234 1 14.7235 1 14.7236 1C14.7237 1 14.7237 1 14.7238 1C14.7239 1 14.724 1 14.7241 1C14.7242 1 14.7243 1 14.7244 1C14.7244 1 14.7245 1 14.7246 1C14.7247 1 14.7248 1 14.7249 1C14.725 1 14.725 1 14.7251 1C14.7252 1 14.7253 1 14.7254 1C14.7255 1 14.7256 1 14.7256 1C14.7257 1 14.7258 1 14.7259 1C14.726 1 14.7261 1 14.7262 1C14.7262 1 14.7263 1 14.7264 1C14.7265 1 14.7266 1 14.7267 1C14.7268 1 14.7268 1 14.7269 1C14.727 1 14.7271 1 14.7272 1C14.7273 1 14.7274 1 14.7274 1C14.7275 1 14.7276 1 14.7277 1C14.7278 1 14.7279 1 14.728 1C14.728 1 14.7281 1 14.7282 1C14.7283 1 14.7284 1 14.7285 1C14.7286 1 14.7286 1 14.7287 1C14.7288 1 14.7289 1 14.729 1C14.7291 1 14.7292 1 14.7293 1C14.7293 1 14.7294 1 14.7295 1C14.7296 1 14.7297 1 14.7298 1C14.7299 1 14.7299 1 14.73 1C14.7301 1 14.7302 1 14.7303 1C14.7304 1 14.7305 1 14.7305 1C14.7306 1 14.7307 1 14.7308 1C14.7309 1 14.731 1 14.7311 1C14.7311 1 14.7312 1 14.7313 1C14.7314 1 14.7315 1 14.7316 1C14.7317 1 14.7317 1 14.7318 1C14.7319 1 14.732 1 14.7321 1C14.7322 1 14.7323 1 14.7323 1C14.7324 1 14.7325 1 14.7326 1C14.7327 1 14.7328 1 14.7329 1C14.7329 1 14.733 1 14.7331 1C14.7332 1 14.7333 1 14.7334 1C14.7335 1 14.7335 1 14.7336 1C14.7337 1 14.7338 1 14.7339 1C14.734 1 14.7341 1 14.7342 1C14.7342 1 14.7343 1 14.7344 1C14.7345 1 14.7346 1 14.7347 1C14.7348 1 14.7348 1 14.7349 1C14.735 1 14.7351 1 14.7352 1C14.7353 1 14.7354 1 14.7354 1C14.7355 1 14.7356 1 14.7357 1C14.7358 1 14.7359 1 14.736 1C14.736 1 14.7361 1 14.7362 1C14.7363 1 14.7364 1 14.7365 1C14.7366 1 14.7366 1 14.7367 1C14.7368 1 14.7369 1 14.737 1C14.7371 1 14.7372 1 14.7372 1C14.7373 1 14.7374 1 14.7375 1C14.7376 1 14.7377 1 14.7378 1C14.7378 1 14.7379 1 14.738 1C14.7381 1 14.7382 1 14.7383 1C14.7384 1 14.7384 1 14.7385 1C14.7386 1 14.7387 1 14.7388 1C14.7389 1 14.739 1 14.7391 1C14.7391 1 14.7392 1 14.7393 1C14.7394 1 14.7395 1 14.7396 1C14.7397 1 14.7397 1 14.7398 1C14.7399 1 14.74 1 14.7401 1C14.7402 1 14.7403 1 14.7403 1C14.7404 1 14.7405 1 14.7406 1C14.7407 1 14.7408 1 14.7409 1C14.7409 1 14.741 1 14.7411 1C14.7412 1 14.7413 1 14.7414 1C14.7415 1 14.7415 1 14.7416 1C14.7417 1 14.7418 1 14.7419 1C14.742 1 14.7421 1 14.7421 1C14.7422 1 14.7423 1 14.7424 1C14.7425 1 14.7426 1 14.7427 1C14.7427 1 14.7428 1 14.7429 1C14.743 1 14.7431 1 14.7432 1C14.7433 1 14.7433 1 14.7434 1C14.7435 1 14.7436 1 14.7437 1C14.7438 1 14.7439 1 14.744 1C14.744 1 14.7441 1 14.7442 1C14.7443 1 14.7444 1 14.7445 1C14.7446 1 14.7446 1 14.7447 1C14.7448 1 14.7449 1 14.745 1C14.7451 1 14.7452 1 14.7452 1C14.7453 1 14.7454 1 14.7455 1C14.7456 1 14.7457 1 14.7458 1C14.7458 1 14.7459 1 14.746 1C14.7461 1 14.7462 1 14.7463 1C14.7464 1 14.7464 1 14.7465 1C14.7466 1 14.7467 1 14.7468 1C14.7469 1 14.747 1 14.747 1C14.7471 1 14.7472 1 14.7473 1C14.7474 1 14.7475 1 14.7476 1C14.7476 1 14.7477 1 14.7478 1C14.7479 1 14.748 1 14.7481 1C14.7482 1 14.7482 1 14.7483 1C14.7484 1 14.7485 1 14.7486 1C14.7487 1 14.7488 1 14.7489 1C14.7489 1 14.749 1 14.7491 1C14.7492 1 14.7493 1 14.7494 1C14.7495 1 14.7495 1 14.7496 1C14.7497 1 14.7498 1 14.7499 1C14.75 1 14.7501 1 14.7501 1C14.7502 1 14.7503 1 14.7504 1C14.7505 1 14.7506 1 14.7507 1C14.7507 1 14.7508 1 14.7509 1C14.751 1 14.7511 1 14.7512 1C14.7513 1 14.7513 1 14.7514 1C14.7515 1 14.7516 1 14.7517 1C14.7518 1 14.7519 1 14.7519 1C14.752 1 14.7521 1 14.7522 1C14.7523 1 14.7524 1 14.7525 1C14.7525 1 14.7526 1 14.7527 1C14.7528 1 14.7529 1 14.753 1C14.7531 1 14.7531 1 14.7532 1C14.7533 1 14.7534 1 14.7535 1C14.7536 1 14.7537 1 14.7538 1C14.7538 1 14.7539 1 14.754 1C14.7541 1 14.7542 1 14.7543 1C14.7544 1 14.7544 1 14.7545 1C14.7546 1 14.7547 1 14.7548 1C14.7549 1 14.755 1 14.755 1C14.7551 1 14.7552 1 14.7553 1C14.7554 1 14.7555 1 14.7556 1C14.7556 1 14.7557 1 14.7558 1C14.7559 1 14.756 1 14.7561 1C14.7562 1 14.7562 1 14.7563 1C14.7564 1 14.7565 1 14.7566 1C14.7567 1 14.7568 1 14.7568 1C14.7569 1 14.757 1 14.7571 1C14.7572 1 14.7573 1 14.7574 1C14.7574 1 14.7575 1 14.7576 1C14.7577 1 14.7578 1 14.7579 1C14.758 1 14.758 1 14.7581 1C14.7582 1 14.7583 1 14.7584 1C14.7585 1 14.7586 1 14.7586 1C14.7587 1 14.7588 1 14.7589 1C14.759 1 14.7591 1 14.7592 1C14.7593 1 14.7593 1 14.7594 1C14.7595 1 14.7596 1 14.7597 1C14.7598 1 14.7599 1 14.7599 1V-1C14.7599 -1 14.7598 -1 14.7597 -1C14.7596 -1 14.7595 -1 14.7594 -1C14.7593 -1 14.7593 -1 14.7592 -1C14.7591 -1 14.759 -1 14.7589 -1C14.7588 -1 14.7587 -1 14.7586 -1C14.7586 -1 14.7585 -1 14.7584 -1C14.7583 -1 14.7582 -1 14.7581 -1C14.758 -1 14.758 -1 14.7579 -1C14.7578 -1 14.7577 -1 14.7576 -1C14.7575 -1 14.7574 -1 14.7574 -1C14.7573 -1 14.7572 -1 14.7571 -1C14.757 -1 14.7569 -1 14.7568 -1C14.7568 -1 14.7567 -1 14.7566 -1C14.7565 -1 14.7564 -1 14.7563 -1C14.7562 -1 14.7562 -1 14.7561 -1C14.756 -1 14.7559 -1 14.7558 -1C14.7557 -1 14.7556 -1 14.7556 -1C14.7555 -1 14.7554 -1 14.7553 -1C14.7552 -1 14.7551 -1 14.755 -1C14.755 -1 14.7549 -1 14.7548 -1C14.7547 -1 14.7546 -1 14.7545 -1C14.7544 -1 14.7544 -1 14.7543 -1C14.7542 -1 14.7541 -1 14.754 -1C14.7539 -1 14.7538 -1 14.7538 -1C14.7537 -1 14.7536 -1 14.7535 -1C14.7534 -1 14.7533 -1 14.7532 -1C14.7531 -1 14.7531 -1 14.753 -1C14.7529 -1 14.7528 -1 14.7527 -1C14.7526 -1 14.7525 -1 14.7525 -1C14.7524 -1 14.7523 -1 14.7522 -1C14.7521 -1 14.752 -1 14.7519 -1C14.7519 -1 14.7518 -1 14.7517 -1C14.7516 -1 14.7515 -1 14.7514 -1C14.7513 -1 14.7513 -1 14.7512 -1C14.7511 -1 14.751 -1 14.7509 -1C14.7508 -1 14.7507 -1 14.7507 -1C14.7506 -1 14.7505 -1 14.7504 -1C14.7503 -1 14.7502 -1 14.7501 -1C14.7501 -1 14.75 -1 14.7499 -1C14.7498 -1 14.7497 -1 14.7496 -1C14.7495 -1 14.7495 -1 14.7494 -1C14.7493 -1 14.7492 -1 14.7491 -1C14.749 -1 14.7489 -1 14.7489 -1C14.7488 -1 14.7487 -1 14.7486 -1C14.7485 -1 14.7484 -1 14.7483 -1C14.7482 -1 14.7482 -1 14.7481 -1C14.748 -1 14.7479 -1 14.7478 -1C14.7477 -1 14.7476 -1 14.7476 -1C14.7475 -1 14.7474 -1 14.7473 -1C14.7472 -1 14.7471 -1 14.747 -1C14.747 -1 14.7469 -1 14.7468 -1C14.7467 -1 14.7466 -1 14.7465 -1C14.7464 -1 14.7464 -1 14.7463 -1C14.7462 -1 14.7461 -1 14.746 -1C14.7459 -1 14.7458 -1 14.7458 -1C14.7457 -1 14.7456 -1 14.7455 -1C14.7454 -1 14.7453 -1 14.7452 -1C14.7452 -1 14.7451 -1 14.745 -1C14.7449 -1 14.7448 -1 14.7447 -1C14.7446 -1 14.7446 -1 14.7445 -1C14.7444 -1 14.7443 -1 14.7442 -1C14.7441 -1 14.744 -1 14.744 -1C14.7439 -1 14.7438 -1 14.7437 -1C14.7436 -1 14.7435 -1 14.7434 -1C14.7433 -1 14.7433 -1 14.7432 -1C14.7431 -1 14.743 -1 14.7429 -1C14.7428 -1 14.7427 -1 14.7427 -1C14.7426 -1 14.7425 -1 14.7424 -1C14.7423 -1 14.7422 -1 14.7421 -1C14.7421 -1 14.742 -1 14.7419 -1C14.7418 -1 14.7417 -1 14.7416 -1C14.7415 -1 14.7415 -1 14.7414 -1C14.7413 -1 14.7412 -1 14.7411 -1C14.741 -1 14.7409 -1 14.7409 -1C14.7408 -1 14.7407 -1 14.7406 -1C14.7405 -1 14.7404 -1 14.7403 -1C14.7403 -1 14.7402 -1 14.7401 -1C14.74 -1 14.7399 -1 14.7398 -1C14.7397 -1 14.7397 -1 14.7396 -1C14.7395 -1 14.7394 -1 14.7393 -1C14.7392 -1 14.7391 -1 14.7391 -1C14.739 -1 14.7389 -1 14.7388 -1C14.7387 -1 14.7386 -1 14.7385 -1C14.7384 -1 14.7384 -1 14.7383 -1C14.7382 -1 14.7381 -1 14.738 -1C14.7379 -1 14.7378 -1 14.7378 -1C14.7377 -1 14.7376 -1 14.7375 -1C14.7374 -1 14.7373 -1 14.7372 -1C14.7372 -1 14.7371 -1 14.737 -1C14.7369 -1 14.7368 -1 14.7367 -1C14.7366 -1 14.7366 -1 14.7365 -1C14.7364 -1 14.7363 -1 14.7362 -1C14.7361 -1 14.736 -1 14.736 -1C14.7359 -1 14.7358 -1 14.7357 -1C14.7356 -1 14.7355 -1 14.7354 -1C14.7354 -1 14.7353 -1 14.7352 -1C14.7351 -1 14.735 -1 14.7349 -1C14.7348 -1 14.7348 -1 14.7347 -1C14.7346 -1 14.7345 -1 14.7344 -1C14.7343 -1 14.7342 -1 14.7342 -1C14.7341 -1 14.734 -1 14.7339 -1C14.7338 -1 14.7337 -1 14.7336 -1C14.7335 -1 14.7335 -1 14.7334 -1C14.7333 -1 14.7332 -1 14.7331 -1C14.733 -1 14.7329 -1 14.7329 -1C14.7328 -1 14.7327 -1 14.7326 -1C14.7325 -1 14.7324 -1 14.7323 -1C14.7323 -1 14.7322 -1 14.7321 -1C14.732 -1 14.7319 -1 14.7318 -1C14.7317 -1 14.7317 -1 14.7316 -1C14.7315 -1 14.7314 -1 14.7313 -1C14.7312 -1 14.7311 -1 14.7311 -1C14.731 -1 14.7309 -1 14.7308 -1C14.7307 -1 14.7306 -1 14.7305 -1C14.7305 -1 14.7304 -1 14.7303 -1C14.7302 -1 14.7301 -1 14.73 -1C14.7299 -1 14.7299 -1 14.7298 -1C14.7297 -1 14.7296 -1 14.7295 -1C14.7294 -1 14.7293 -1 14.7293 -1C14.7292 -1 14.7291 -1 14.729 -1C14.7289 -1 14.7288 -1 14.7287 -1C14.7286 -1 14.7286 -1 14.7285 -1C14.7284 -1 14.7283 -1 14.7282 -1C14.7281 -1 14.728 -1 14.728 -1C14.7279 -1 14.7278 -1 14.7277 -1C14.7276 -1 14.7275 -1 14.7274 -1C14.7274 -1 14.7273 -1 14.7272 -1C14.7271 -1 14.727 -1 14.7269 -1C14.7268 -1 14.7268 -1 14.7267 -1C14.7266 -1 14.7265 -1 14.7264 -1C14.7263 -1 14.7262 -1 14.7262 -1C14.7261 -1 14.726 -1 14.7259 -1C14.7258 -1 14.7257 -1 14.7256 -1C14.7256 -1 14.7255 -1 14.7254 -1C14.7253 -1 14.7252 -1 14.7251 -1C14.725 -1 14.725 -1 14.7249 -1C14.7248 -1 14.7247 -1 14.7246 -1C14.7245 -1 14.7244 -1 14.7244 -1C14.7243 -1 14.7242 -1 14.7241 -1C14.724 -1 14.7239 -1 14.7238 -1C14.7237 -1 14.7237 -1 14.7236 -1C14.7235 -1 14.7234 -1 14.7233 -1C14.7232 -1 14.7231 -1 14.7231 -1C14.723 -1 14.7229 -1 14.7228 -1C14.7227 -1 14.7226 -1 14.7225 -1C14.7225 -1 14.7224 -1 14.7223 -1C14.7222 -1 14.7221 -1 14.722 -1C14.7219 -1 14.7219 -1 14.7218 -1C14.7217 -1 14.7216 -1 14.7215 -1C14.7214 -1 14.7213 -1 14.7213 -1C14.7212 -1 14.7211 -1 14.721 -1C14.7209 -1 14.7208 -1 14.7207 -1C14.7207 -1 14.7206 -1 14.7205 -1C14.7204 -1 14.7203 -1 14.7202 -1C14.7201 -1 14.7201 -1 14.72 -1C14.7199 -1 14.7198 -1 14.7197 -1C14.7196 -1 14.7195 -1 14.7195 -1C14.7194 -1 14.7193 -1 14.7192 -1C14.7191 -1 14.719 -1 14.7189 -1C14.7188 -1 14.7188 -1 14.7187 -1C14.7186 -1 14.7185 -1 14.7184 -1C14.7183 -1 14.7182 -1 14.7182 -1C14.7181 -1 14.718 -1 14.7179 -1C14.7178 -1 14.7177 -1 14.7176 -1C14.7176 -1 14.7175 -1 14.7174 -1C14.7173 -1 14.7172 -1 14.7171 -1C14.717 -1 14.717 -1 14.7169 -1C14.7168 -1 14.7167 -1 14.7166 -1C14.7165 -1 14.7164 -1 14.7164 -1C14.7163 -1 14.7162 -1 14.7161 -1C14.716 -1 14.7159 -1 14.7158 -1C14.7158 -1 14.7157 -1 14.7156 -1C14.7155 -1 14.7154 -1 14.7153 -1C14.7152 -1 14.7152 -1 14.7151 -1C14.715 -1 14.7149 -1 14.7148 -1C14.7147 -1 14.7146 -1 14.7146 -1C14.7145 -1 14.7144 -1 14.7143 -1C14.7142 -1 14.7141 -1 14.714 -1C14.7139 -1 14.7139 -1 14.7138 -1C14.7137 -1 14.7136 -1 14.7135 -1C14.7134 -1 14.7133 -1 14.7133 -1C14.7132 -1 14.7131 -1 14.713 -1C14.7129 -1 14.7128 -1 14.7127 -1C14.7127 -1 14.7126 -1 14.7125 -1C14.7124 -1 14.7123 -1 14.7122 -1C14.7121 -1 14.7121 -1 14.712 -1C14.7119 -1 14.7118 -1 14.7117 -1C14.7116 -1 14.7115 -1 14.7115 -1C14.7114 -1 14.7113 -1 14.7112 -1C14.7111 -1 14.711 -1 14.7109 -1C14.7109 -1 14.7108 -1 14.7107 -1C14.7106 -1 14.7105 -1 14.7104 -1C14.7103 -1 14.7103 -1 14.7102 -1C14.7101 -1 14.71 -1 14.7099 -1C14.7098 -1 14.7097 -1 14.7097 -1C14.7096 -1 14.7095 -1 14.7094 -1C14.7093 -1 14.7092 -1 14.7091 -1C14.709 -1 14.709 -1 14.7089 -1C14.7088 -1 14.7087 -1 14.7086 -1C14.7085 -1 14.7084 -1 14.7084 -1C14.7083 -1 14.7082 -1 14.7081 -1C14.708 -1 14.7079 -1 14.7078 -1C14.7078 -1 14.7077 -1 14.7076 -1C14.7075 -1 14.7074 -1 14.7073 -1C14.7072 -1 14.7072 -1 14.7071 -1C14.707 -1 14.7069 -1 14.7068 -1C14.7067 -1 14.7066 -1 14.7066 -1C14.7065 -1 14.7064 -1 14.7063 -1C14.7062 -1 14.7061 -1 14.706 -1C14.706 -1 14.7059 -1 14.7058 -1C14.7057 -1 14.7056 -1 14.7055 -1C14.7054 -1 14.7054 -1 14.7053 -1C14.7052 -1 14.7051 -1 14.705 -1C14.7049 -1 14.7048 -1 14.7048 -1C14.7047 -1 14.7046 -1 14.7045 -1C14.7044 -1 14.7043 -1 14.7042 -1C14.7041 -1 14.7041 -1 14.704 -1C14.7039 -1 14.7038 -1 14.7037 -1C14.7036 -1 14.7035 -1 14.7035 -1C14.7034 -1 14.7033 -1 14.7032 -1C14.7031 -1 14.703 -1 14.7029 -1C14.7029 -1 14.7028 -1 14.7027 -1C14.7026 -1 14.7025 -1 14.7024 -1C14.7023 -1 14.7023 -1 14.7022 -1C14.7021 -1 14.702 -1 14.7019 -1C14.7018 -1 14.7017 -1 14.7017 -1C14.7016 -1 14.7015 -1 14.7014 -1C14.7013 -1 14.7012 -1 14.7011 -1C14.7011 -1 14.701 -1 14.7009 -1C14.7008 -1 14.7007 -1 14.7006 -1C14.7005 -1 14.7005 -1 14.7004 -1C14.7003 -1 14.7002 -1 14.7001 -1C14.7 -1 14.6999 -1 14.6999 -1C14.6998 -1 14.6997 -1 14.6996 -1C14.6995 -1 14.6994 -1 14.6993 -1C14.6992 -1 14.6992 -1 14.6991 -1C14.699 -1 14.6989 -1 14.6988 -1C14.6987 -1 14.6986 -1 14.6986 -1C14.6985 -1 14.6984 -1 14.6983 -1C14.6982 -1 14.6981 -1 14.698 -1C14.698 -1 14.6979 -1 14.6978 -1C14.6977 -1 14.6976 -1 14.6975 -1C14.6974 -1 14.6974 -1 14.6973 -1C14.6972 -1 14.6971 -1 14.697 -1C14.6969 -1 14.6968 -1 14.6968 -1C14.6967 -1 14.6966 -1 14.6965 -1C14.6964 -1 14.6963 -1 14.6962 -1C14.6962 -1 14.6961 -1 14.696 -1C14.6959 -1 14.6958 -1 14.6957 -1C14.6956 -1 14.6956 -1 14.6955 -1C14.6954 -1 14.6953 -1 14.6952 -1C14.6951 -1 14.695 -1 14.695 -1C14.6949 -1 14.6948 -1 14.6947 -1C14.6946 -1 14.6945 -1 14.6944 -1C14.6943 -1 14.6943 -1 14.6942 -1C14.6941 -1 14.694 -1 14.6939 -1C14.6938 -1 14.6937 -1 14.6937 -1C14.6936 -1 14.6935 -1 14.6934 -1C14.6933 -1 14.6932 -1 14.6931 -1C14.6931 -1 14.693 -1 14.6929 -1C14.6928 -1 14.6927 -1 14.6926 -1C14.6925 -1 14.6925 -1 14.6924 -1C14.6923 -1 14.6922 -1 14.6921 -1C14.692 -1 14.6919 -1 14.6919 -1C14.6918 -1 14.6917 -1 14.6916 -1C14.6915 -1 14.6914 -1 14.6913 -1C14.6913 -1 14.6912 -1 14.6911 -1C14.691 -1 14.6909 -1 14.6908 -1C14.6907 -1 14.6907 -1 14.6906 -1C14.6905 -1 14.6904 -1 14.6903 -1C14.6902 -1 14.6901 -1 14.6901 -1C14.69 -1 14.6899 -1 14.6898 -1C14.6897 -1 14.6896 -1 14.6895 -1C14.6894 -1 14.6894 -1 14.6893 -1C14.6892 -1 14.6891 -1 14.689 -1C14.6889 -1 14.6888 -1 14.6888 -1C14.6887 -1 14.6886 -1 14.6885 -1C14.6884 -1 14.6883 -1 14.6882 -1C14.6882 -1 14.6881 -1 14.688 -1C14.6879 -1 14.6878 -1 14.6877 -1C14.6876 -1 14.6876 -1 14.6875 -1C14.6874 -1 14.6873 -1 14.6872 -1C14.6871 -1 14.687 -1 14.687 -1C14.6869 -1 14.6868 -1 14.6867 -1C14.6866 -1 14.6865 -1 14.6864 -1C14.6864 -1 14.6863 -1 14.6862 -1C14.6861 -1 14.686 -1 14.6859 -1C14.6858 -1 14.6858 -1 14.6857 -1C14.6856 -1 14.6855 -1 14.6854 -1C14.6853 -1 14.6852 -1 14.6852 -1C14.6851 -1 14.685 -1 14.6849 -1C14.6848 -1 14.6847 -1 14.6846 -1C14.6845 -1 14.6845 -1 14.6844 -1C14.6843 -1 14.6842 -1 14.6841 -1C14.684 -1 14.6839 -1 14.6839 -1C14.6838 -1 14.6837 -1 14.6836 -1C14.6835 -1 14.6834 -1 14.6833 -1C14.6833 -1 14.6832 -1 14.6831 -1C14.683 -1 14.6829 -1 14.6828 -1C14.6827 -1 14.6827 -1 14.6826 -1C14.6825 -1 14.6824 -1 14.6823 -1C14.6822 -1 14.6821 -1 14.6821 -1C14.682 -1 14.6819 -1 14.6818 -1C14.6817 -1 14.6816 -1 14.6815 -1C14.6815 -1 14.6814 -1 14.6813 -1C14.6812 -1 14.6811 -1 14.681 -1C14.6809 -1 14.6809 -1 14.6808 -1C14.6807 -1 14.6806 -1 14.6805 -1C14.6804 -1 14.6803 -1 14.6803 -1C14.6802 -1 14.6801 -1 14.68 -1C14.6799 -1 14.6798 -1 14.6797 -1C14.6796 -1 14.6796 -1 14.6795 -1C14.6794 -1 14.6793 -1 14.6792 -1C14.6791 -1 14.679 -1 14.679 -1C14.6789 -1 14.6788 -1 14.6787 -1C14.6786 -1 14.6785 -1 14.6784 -1C14.6784 -1 14.6783 -1 14.6782 -1C14.6781 -1 14.678 -1 14.6779 -1C14.6778 -1 14.6778 -1 14.6777 -1C14.6776 -1 14.6775 -1 14.6774 -1C14.6773 -1 14.6772 -1 14.6772 -1C14.6771 -1 14.677 -1 14.6769 -1C14.6768 -1 14.6767 -1 14.6766 -1C14.6766 -1 14.6765 -1 14.6764 -1C14.6763 -1 14.6762 -1 14.6761 -1C14.676 -1 14.676 -1 14.6759 -1C14.6758 -1 14.6757 -1 14.6756 -1C14.6755 -1 14.6754 -1 14.6754 -1C14.6753 -1 14.6752 -1 14.6751 -1C14.675 -1 14.6749 -1 14.6748 -1C14.6747 -1 14.6747 -1 14.6746 -1C14.6745 -1 14.6744 -1 14.6743 -1C14.6742 -1 14.6741 -1 14.6741 -1C14.674 -1 14.6739 -1 14.6738 -1C14.6737 -1 14.6736 -1 14.6735 -1C14.6735 -1 14.6734 -1 14.6733 -1C14.6732 -1 14.6731 -1 14.673 -1C14.6729 -1 14.6729 -1 14.6728 -1C14.6727 -1 14.6726 -1 14.6725 -1C14.6724 -1 14.6723 -1 14.6723 -1C14.6722 -1 14.6721 -1 14.672 -1C14.6719 -1 14.6718 -1 14.6717 -1C14.6717 -1 14.6716 -1 14.6715 -1C14.6714 -1 14.6713 -1 14.6712 -1C14.6711 -1 14.6711 -1 14.671 -1C14.6709 -1 14.6708 -1 14.6707 -1C14.6706 -1 14.6705 -1 14.6705 -1C14.6704 -1 14.6703 -1 14.6702 -1C14.6701 -1 14.67 -1 14.6699 -1C14.6698 -1 14.6698 -1 14.6697 -1C14.6696 -1 14.6695 -1 14.6694 -1C14.6693 -1 14.6692 -1 14.6692 -1C14.6691 -1 14.669 -1 14.6689 -1C14.6688 -1 14.6687 -1 14.6686 -1C14.6686 -1 14.6685 -1 14.6684 -1C14.6683 -1 14.6682 -1 14.6681 -1C14.668 -1 14.668 -1 14.6679 -1C14.6678 -1 14.6677 -1 14.6676 -1C14.6675 -1 14.6674 -1 14.6674 -1C14.6673 -1 14.6672 -1 14.6671 -1C14.667 -1 14.6669 -1 14.6668 -1C14.6668 -1 14.6667 -1 14.6666 -1C14.6665 -1 14.6664 -1 14.6663 -1C14.6662 -1 14.6662 -1 14.6661 -1C14.666 -1 14.6659 -1 14.6658 -1C14.6657 -1 14.6656 -1 14.6656 -1C14.6655 -1 14.6654 -1 14.6653 -1C14.6652 -1 14.6651 -1 14.665 -1C14.6649 -1 14.6649 -1 14.6648 -1C14.6647 -1 14.6646 -1 14.6645 -1C14.6644 -1 14.6643 -1 14.6643 -1C14.6642 -1 14.6641 -1 14.664 -1C14.6639 -1 14.6638 -1 14.6637 -1C14.6637 -1 14.6636 -1 14.6635 -1C14.6634 -1 14.6633 -1 14.6632 -1C14.6631 -1 14.6631 -1 14.663 -1C14.6629 -1 14.6628 -1 14.6627 -1C14.6626 -1 14.6625 -1 14.6625 -1C14.6624 -1 14.6623 -1 14.6622 -1C14.6621 -1 14.662 -1 14.6619 -1C14.6619 -1 14.6618 -1 14.6617 -1C14.6616 -1 14.6615 -1 14.6614 -1C14.6613 -1 14.6613 -1 14.6612 -1C14.6611 -1 14.661 -1 14.6609 -1C14.6608 -1 14.6607 -1 14.6607 -1C14.6606 -1 14.6605 -1 14.6604 -1C14.6603 -1 14.6602 -1 14.6601 -1C14.66 -1 14.66 -1 14.6599 -1C14.6598 -1 14.6597 -1 14.6596 -1C14.6595 -1 14.6594 -1 14.6594 -1C14.6593 -1 14.6592 -1 14.6591 -1C14.659 -1 14.6589 -1 14.6588 -1C14.6588 -1 14.6587 -1 14.6586 -1C14.6585 -1 14.6584 -1 14.6583 -1C14.6582 -1 14.6582 -1 14.6581 -1C14.658 -1 14.6579 -1 14.6578 -1C14.6577 -1 14.6576 -1 14.6576 -1C14.6575 -1 14.6574 -1 14.6573 -1C14.6572 -1 14.6571 -1 14.657 -1C14.657 -1 14.6569 -1 14.6568 -1C14.6567 -1 14.6566 -1 14.6565 -1C14.6564 -1 14.6564 -1 14.6563 -1C14.6562 -1 14.6561 -1 14.656 -1C14.6559 -1 14.6558 -1 14.6557 -1C14.6557 -1 14.6556 -1 14.6555 -1C14.6554 -1 14.6553 -1 14.6552 -1C14.6551 -1 14.6551 -1 14.655 -1C14.6549 -1 14.6548 -1 14.6547 -1C14.6546 -1 14.6545 -1 14.6545 -1C14.6544 -1 14.6543 -1 14.6542 -1C14.6541 -1 14.654 -1 14.6539 -1C14.6539 -1 14.6538 -1 14.6537 -1C14.6536 -1 14.6535 -1 14.6534 -1C14.6533 -1 14.6533 -1 14.6532 -1C14.6531 -1 14.653 -1 14.6529 -1C14.6528 -1 14.6527 -1 14.6527 -1C14.6526 -1 14.6525 -1 14.6524 -1C14.6523 -1 14.6522 -1 14.6521 -1C14.6521 -1 14.652 -1 14.6519 -1C14.6518 -1 14.6517 -1 14.6516 -1C14.6515 -1 14.6515 -1 14.6514 -1C14.6513 -1 14.6512 -1 14.6511 -1C14.651 -1 14.6509 -1 14.6508 -1C14.6508 -1 14.6507 -1 14.6506 -1C14.6505 -1 14.6504 -1 14.6503 -1C14.6502 -1 14.6502 -1 14.6501 -1C14.65 -1 14.6499 -1 14.6498 -1C14.6497 -1 14.6496 -1 14.6496 -1C14.6495 -1 14.6494 -1 14.6493 -1C14.6492 -1 14.6491 -1 14.649 -1C14.649 -1 14.6489 -1 14.6488 -1C14.6487 -1 14.6486 -1 14.6485 -1C14.6484 -1 14.6484 -1 14.6483 -1C14.6482 -1 14.6481 -1 14.648 -1C14.6479 -1 14.6478 -1 14.6478 -1C14.6477 -1 14.6476 -1 14.6475 -1C14.6474 -1 14.6473 -1 14.6472 -1C14.6472 -1 14.6471 -1 14.647 -1C14.6469 -1 14.6468 -1 14.6467 -1C14.6466 -1 14.6466 -1 14.6465 -1C14.6464 -1 14.6463 -1 14.6462 -1C14.6461 -1 14.646 -1 14.646 -1C14.6459 -1 14.6458 -1 14.6457 -1C14.6456 -1 14.6455 -1 14.6454 -1C14.6453 -1 14.6453 -1 14.6452 -1C14.6451 -1 14.645 -1 14.6449 -1C14.6448 -1 14.6447 -1 14.6447 -1C14.6446 -1 14.6445 -1 14.6444 -1C14.6443 -1 14.6442 -1 14.6441 -1C14.6441 -1 14.644 -1 14.6439 -1C14.6438 -1 14.6437 -1 14.6436 -1C14.6435 -1 14.6435 -1 14.6434 -1C14.6433 -1 14.6432 -1 14.6431 -1C14.643 -1 14.6429 -1 14.6429 -1C14.6428 -1 14.6427 -1 14.6426 -1C14.6425 -1 14.6424 -1 14.6423 -1C14.6423 -1 14.6422 -1 14.6421 -1C14.642 -1 14.6419 -1 14.6418 -1C14.6417 -1 14.6417 -1 14.6416 -1C14.6415 -1 14.6414 -1 14.6413 -1C14.6412 -1 14.6411 -1 14.6411 -1C14.641 -1 14.6409 -1 14.6408 -1C14.6407 -1 14.6406 -1 14.6405 -1C14.6404 -1 14.6404 -1 14.6403 -1C14.6402 -1 14.6401 -1 14.64 -1C14.6399 -1 14.6398 -1 14.6398 -1C14.6397 -1 14.6396 -1 14.6395 -1C14.6394 -1 14.6393 -1 14.6392 -1C14.6392 -1 14.6391 -1 14.639 -1C14.6389 -1 14.6388 -1 14.6387 -1C14.6386 -1 14.6386 -1 14.6385 -1C14.6384 -1 14.6383 -1 14.6382 -1C14.6381 -1 14.638 -1 14.638 -1C14.6379 -1 14.6378 -1 14.6377 -1C14.6376 -1 14.6375 -1 14.6374 -1C14.6374 -1 14.6373 -1 14.6372 -1C14.6371 -1 14.637 -1 14.6369 -1C14.6368 -1 14.6368 -1 14.6367 -1C14.6366 -1 14.6365 -1 14.6364 -1C14.6363 -1 14.6362 -1 14.6362 -1C14.6361 -1 14.636 -1 14.6359 -1C14.6358 -1 14.6357 -1 14.6356 -1C14.6355 -1 14.6355 -1 14.6354 -1C14.6353 -1 14.6352 -1 14.6351 -1C14.635 -1 14.6349 -1 14.6349 -1C14.6348 -1 14.6347 -1 14.6346 -1C14.6345 -1 14.6344 -1 14.6343 -1C14.6343 -1 14.6342 -1 14.6341 -1C14.634 -1 14.6339 -1 14.6338 -1C14.6337 -1 14.6337 -1 14.6336 -1C14.6335 -1 14.6334 -1 14.6333 -1C14.6332 -1 14.6331 -1 14.6331 -1C14.633 -1 14.6329 -1 14.6328 -1C14.6327 -1 14.6326 -1 14.6325 -1C14.6325 -1 14.6324 -1 14.6323 -1C14.6322 -1 14.6321 -1 14.632 -1C14.6319 -1 14.6319 -1 14.6318 -1C14.6317 -1 14.6316 -1 14.6315 -1C14.6314 -1 14.6313 -1 14.6313 -1C14.6312 -1 14.6311 -1 14.631 -1C14.6309 -1 14.6308 -1 14.6307 -1C14.6306 -1 14.6306 -1 14.6305 -1C14.6304 -1 14.6303 -1 14.6302 -1C14.6301 -1 14.63 -1 14.63 -1C14.6299 -1 14.6298 -1 14.6297 -1C14.6296 -1 14.6295 -1 14.6294 -1C14.6294 -1 14.6293 -1 14.6292 -1C14.6291 -1 14.629 -1 14.6289 -1C14.6288 -1 14.6288 -1 14.6287 -1C14.6286 -1 14.6285 -1 14.6284 -1C14.6283 -1 14.6282 -1 14.6282 -1C14.6281 -1 14.628 -1 14.6279 -1V1ZM14.7599 1H16.3208V-1H14.7599V1ZM16.3208 1C17.4254 1 18.3208 1.89514 18.3208 3H20.3208C20.3208 0.790408 18.5299 -1 16.3208 -1V1ZM18.3208 3V4.80273H20.3208V3H18.3208ZM18.3208 4.80756C18.3209 4.82094 18.3209 4.83433 18.3208 4.84771L20.3208 4.85736C20.3209 4.83755 20.3209 4.81773 20.3208 4.79791L18.3208 4.80756ZM18.3208 4.85254V11.4902H20.3208V4.85254H18.3208ZM18.3208 11.4902C18.3208 12.5951 17.4254 13.4902 16.3208 13.4902V15.4902C18.5299 15.4902 20.3208 13.6998 20.3208 11.4902H18.3208ZM16.3208 13.4902H11.9754V15.4902H16.3208V13.4902ZM11.2535 13.7982L8.93848 16.2133L10.3823 17.5973L12.6973 15.1822L11.2535 13.7982ZM10.3823 16.2133L8.06729 13.7982L6.62349 15.1822L8.93848 17.5973L10.3823 16.2133ZM7.34539 13.4902H3.00004V15.4902H7.34539V13.4902ZM3.00004 13.4902C1.89539 13.4902 1.00004 12.5951 1.00004 11.4902H-0.999961C-0.999961 13.6998 0.790981 15.4902 3.00004 15.4902V13.4902ZM1.00004 11.4902V4.84766H-0.999961V11.4902H1.00004ZM1.00003 4.84389C0.99999 4.83273 0.99999 4.82254 1.00003 4.81138L-0.999954 4.80385C-1.00002 4.82003 -1.00002 4.83524 -0.999954 4.85142L1.00003 4.84389Z" transform="translate(0.0943298 0.207031)" fill="white" mask="url(#path-1-inside-1)"/>
</svg>
