<svg width="15" height="16" viewBox="0 0 15 16" fill="none" xmlns="http://www.w3.org/2000/svg">
<path d="M10.3803 10.8558C10.3446 10.8558 10.3445 10.8205 10.3088 10.8205C10.3088 10.8205 10.0211 10.6784 9.77 10.3237C11.3863 10.0396 12.3557 9.61413 12.3924 9.57879C12.5362 9.50811 12.6078 9.40141 12.6435 9.25936C12.6793 9.11731 12.6077 8.97526 12.4997 8.86925C11.2783 7.69823 11.0988 4.9668 11.063 4.39934C11.063 3.51242 10.8834 2.09335 10.0212 1.09964C9.3744 0.354769 8.44067 0 7.29161 0C6.14252 0 5.208 0.354769 4.56201 1.09964C3.69983 2.05723 3.52023 3.40564 3.52023 4.29256C3.52023 4.3279 3.48446 7.55608 2.08351 8.86925C1.97547 8.97596 1.93969 9.11731 1.93969 9.25936C1.97547 9.4014 2.04773 9.50741 2.19083 9.57879C2.22661 9.61413 3.16034 10.0756 4.84896 10.3237C4.63359 10.6431 4.34596 10.7851 4.34596 10.7851C4.34596 10.7851 4.31018 10.7851 4.31018 10.8205C0.143852 13.3039 0 15.3612 0 15.5746C0 15.8226 0.179591 16 0.430731 16C0.682572 16 0.897955 15.8226 0.897955 15.5746C0.897955 15.5746 1.00599 13.8714 4.59789 11.7074L5.67543 15.6805C5.74699 15.8932 5.92657 15.9999 6.10617 15.9999H6.2142C6.46534 15.9292 6.60916 15.6805 6.53761 15.4677L6.07038 13.8006C6.42957 13.978 6.82452 14.12 7.32752 14.12C7.83052 14.12 8.22548 14.0133 8.58466 13.8359L8.15323 15.4677C8.08167 15.7158 8.22478 15.9646 8.47663 15.9999H8.58467C8.76426 15.9999 8.97963 15.8578 9.0154 15.6805L10.0929 11.7074C13.649 13.836 13.7929 15.5031 13.7929 15.5746C13.7929 15.8226 14.0082 16 14.2236 16C14.4748 16 14.6543 15.7873 14.6543 15.5746C14.7266 15.3611 14.6183 13.3392 10.3803 10.8558ZM5.31604 1.70243C5.78327 1.17028 6.46514 0.88618 7.36302 0.88618C8.2609 0.88618 8.94356 1.13423 9.41 1.70243C9.94877 2.26992 10.1284 3.08617 10.1999 3.79574C9.19391 3.40564 8.83473 1.77392 8.83473 1.73773C8.79895 1.52501 8.61937 1.38296 8.404 1.38296C8.18863 1.38296 8.00904 1.48967 7.93678 1.7024C7.32645 3.76041 5.35103 4.43376 4.41643 4.64733C4.45361 3.93779 4.5612 2.58935 5.31604 1.70243ZM10.2365 4.71797C10.2365 4.93069 10.2007 5.07273 10.2007 5.10807V5.17875C10.2007 6.13634 9.73347 6.84588 9.30274 7.52004C9.12315 7.80414 8.90779 8.12287 8.79974 8.40696C8.69171 8.51367 8.18942 9.08117 7.36302 9.08117C6.46506 9.08117 5.96206 8.40697 5.89051 8.3363C5.7467 8.0522 5.60288 7.80414 5.42329 7.52004C5.02833 6.91722 4.66915 6.31369 4.56111 5.53352C5.42329 5.35613 7.32645 4.78864 8.36826 3.05013C8.69167 3.72503 9.26702 4.54058 10.2365 4.71797ZM5.24367 9.50734C4.34571 9.3653 3.66312 9.18791 3.23243 9.01052C3.66316 8.44304 3.91502 7.7335 4.09461 7.024C4.2742 7.37877 4.45379 7.6982 4.63338 7.98159C4.95679 8.47841 5.2437 8.90385 5.2437 9.32999L5.24367 9.50734ZM9.01508 12.3455L8.9793 12.3808C8.9793 12.3808 8.40475 13.1971 7.39875 13.1971C6.39276 13.1971 5.78244 12.3455 5.78244 12.3102L5.74666 12.2748L5.42325 11.1398C5.74666 10.8204 6.07006 10.3236 6.14161 9.6501C6.46502 9.82749 6.89575 9.96954 7.39875 9.96954C7.90175 9.96954 8.29671 9.82749 8.65589 9.68544C8.72744 10.3596 9.08662 10.8565 9.37425 11.1752L9.01508 12.3455ZM9.4823 9.32996C9.4823 8.93986 9.76993 8.51371 10.0926 7.98155C10.2722 7.69745 10.4876 7.37873 10.6314 7.02396C10.811 7.69816 11.0986 8.4077 11.4936 8.97519C11.0628 9.11724 10.3803 9.32996 9.48234 9.47201L9.4823 9.32996Z" fill="white"/>
</svg>
