<svg width="8" height="10" viewBox="0 0 8 10" fill="none" xmlns="http://www.w3.org/2000/svg">
<path d="M5.9072 0C4.83889 0.375738 4.00629 0.751952 4.12503 2.38095C5.19334 2.1303 6.14469 1.5039 5.9072 0ZM2.51429 2.2619C1.48571 2.2619 0 3.21429 0 5C0 7.5 1.6 10 2.51429 10C3.2 10 3.77143 9.52381 4.22857 9.52381C4.68571 9.52381 5.14286 10 5.82857 10C6.74286 10 7.77143 8.57143 8 7.2619C7.2 6.66667 6.62857 6.30952 6.62857 5.2381C6.62857 4.52381 7.2 3.80952 7.88571 3.21429C7.54286 2.7381 6.85714 2.2619 6.17143 2.2619C5.48571 2.2619 4.74823 2.82692 4.22857 2.85714C3.77143 2.85714 3.2 2.2619 2.51429 2.2619Z" fill="#5DDF89"/>
</svg>
