<svg width="68" height="22" viewBox="0 0 68 22" version="1.1" xmlns="http://www.w3.org/2000/svg" xmlns:xlink="http://www.w3.org/1999/xlink">
<g id="Canvas" fill="none">
<g id="Vector" transform="translate(0.5 0.713867)">
<path d="M 2.22495 20.3395C 1.63763 20.3648 1.05636 20.2136 0.558224 19.9061C 0.363244 19.7293 0.212109 19.5108 0.116493 19.2674C 0.020877 19.0239 -0.0166611 18.7621 0.00677812 18.5021L 0.00677812 0.231966L 1.58057 0.231966L 1.58057 17.9832C 1.56383 18.1167 1.57617 18.2522 1.61677 18.3806C 1.65737 18.509 1.7253 18.6274 1.81602 18.7279C 2.07193 18.901 2.38013 18.9828 2.68966 18.9599L 14.3815 18.9599L 14.3815 20.3395L 2.22495 20.3395Z" fill="white"/>
<path d="M 20.7389 2.12429C 21.2036 1.03773 21.786 0 23.0128 0C 24.2397 0 24.8221 1.06214 25.2868 2.12429L 33.1 20.3395L 31.4085 20.3395L 28.93 14.4794L 17.0895 14.4794L 14.611 20.3395L 12.9257 20.3395L 20.7389 2.12429ZM 17.7029 13.112L 28.3166 13.112L 23.8555 2.58821C 23.682 2.18533 23.4218 1.43451 23.0128 1.43451C 22.6039 1.43451 22.3437 2.18533 22.164 2.58821L 17.7029 13.112Z" fill="white"/>
<path d="M 40.0084 18.5875C 40.1571 18.9599 40.3554 19.0148 40.5041 19.0148C 40.6528 19.0148 40.8511 18.9599 40.9998 18.5875L 48.1748 0.231966L 49.953 0.231966L 42.2823 19.2468C 42.1527 19.6165 41.9144 19.9398 41.5978 20.1756C 41.2811 20.4115 40.9004 20.5493 40.5041 20.5714C 40.1021 20.5697 39.7116 20.4397 39.391 20.2009C 39.0704 19.9621 38.837 19.6273 38.7258 19.2468L 31.0551 0.231966L 32.8458 0.231966L 40.0084 18.5875Z" fill="white"/>
<path d="M 55.1513 2.12429C 55.6036 1.03773 56.1923 0 57.4129 0C 58.6335 0 59.2221 1.06214 59.6868 2.12429L 67.5 20.3395L 65.8085 20.3395L 63.3301 14.4794L 51.4957 14.4794L 49.0173 20.3395L 47.3258 20.3395L 55.1513 2.12429ZM 52.1215 13.112L 62.7353 13.112L 58.2493 2.58821C 58.0697 2.18533 57.8094 1.43451 57.4005 1.43451C 56.9915 1.43451 56.7313 2.18533 56.5578 2.58821L 52.1215 13.112Z" fill="white"/>
</g>
</g>
</svg>
