<svg width="40" height="24" viewBox="0 0 40 24" fill="none" xmlns="http://www.w3.org/2000/svg">
<defs>
<linearGradient id="paint0_linear" x2="1" gradientUnits="userSpaceOnUse" gradientTransform="translate(1.4863 -1.50123) scale(17.3879 18.3358) rotate(-26.2827)">
<stop stop-color="#F5D47F"/>
<stop offset="1" stop-color="#F57A6E"/>
</linearGradient>
<linearGradient id="paint1_linear" x2="1" gradientUnits="userSpaceOnUse" gradientTransform="translate(0.00100792 -3.90015) scale(19.7864 20.8651)">
<stop stop-color="#F2669A"/>
<stop offset="1" stop-color="#FA5D5A"/>
</linearGradient>
<linearGradient id="paint2_linear" x2="1" gradientUnits="userSpaceOnUse" gradientTransform="translate(0.00100792 -9.08922) scale(39.998 42.1784)">
<stop stop-color="#6253B8"/>
<stop offset="1" stop-color="#ED80C2"/>
</linearGradient>
</defs>
<path d="M18.9083 4.54936C19.1873 4.25604 19.4087 3.90756 19.5597 3.52387C19.7107 3.14019 19.7884 2.72885 19.7884 2.31342C19.7884 1.898 19.7107 1.48665 19.5597 1.10297C19.4087 0.719284 19.1873 0.370799 18.9083 0.077483L18.8375 -3.71117e-10L10.3193 8.9825C10.2063 9.10079 10.0535 9.16716 9.89422 9.16716C9.73496 9.16716 9.58216 9.10079 9.4691 8.9825L0.950967 -3.71117e-10L0.880113 0.077483C0.601138 0.370799 0.379794 0.719284 0.228768 1.10297C0.0777409 1.48665 0 1.898 0 2.31342C0 2.72885 0.0777409 3.14019 0.228768 3.52387C0.379794 3.90756 0.601138 4.25604 0.880113 4.54936L8.30396 12.3779C8.51262 12.5985 8.76049 12.7735 9.03337 12.8928C9.30625 13.0122 9.59879 13.0737 9.89422 13.0737C10.1897 13.0737 10.4822 13.0122 10.7551 12.8928C11.028 12.7735 11.2758 12.5985 11.4845 12.3779L18.9083 4.54936Z" transform="translate(0 0.0185547)" fill="url(#paint0_linear)"/>
<path d="M0.880114 8.51927C0.601139 8.81259 0.379795 9.16107 0.228768 9.54476C0.0777415 9.92844 -2.01692e-08 10.3398 -2.01692e-08 10.7552C-2.01692e-08 11.1706 0.0777415 11.582 0.228768 11.9657C0.379795 12.3493 0.601139 12.6978 0.880114 12.9912L0.950966 13.0686L9.4691 4.08891C9.52474 4.02967 9.59095 3.98265 9.66392 3.95056C9.73689 3.91846 9.81516 3.90194 9.89422 3.90194C9.97328 3.90194 10.0516 3.91846 10.1245 3.95056C10.1975 3.98265 10.2637 4.02967 10.3193 4.08891L18.8375 13.0686L18.9083 12.9912C19.1873 12.6978 19.4087 12.3493 19.5597 11.9657C19.7107 11.582 19.7884 11.1706 19.7884 10.7552C19.7884 10.3398 19.7107 9.92844 19.5597 9.54476C19.4087 9.16107 19.1873 8.81259 18.9083 8.51927L11.4845 0.693488C11.0624 0.2494 10.4905 4.76718e-07 9.89422 4.76718e-07C9.29797 4.76718e-07 8.72606 0.2494 8.30396 0.693488L0.880114 8.51927Z" transform="translate(20.2114 10.9307)" fill="url(#paint1_linear)"/>
<path d="M39.1199 8.52433L31.696 0.695781C31.4874 0.475226 31.2395 0.300242 30.9666 0.180849C30.6937 0.0614561 30.4012 0 30.1058 0C29.8103 0 29.5178 0.0614561 29.2449 0.180849C28.972 0.300242 28.7242 0.475226 28.5155 0.695781L21.0917 8.52433C21.0175 8.60238 20.9474 8.6846 20.8817 8.77062L12.6391 17.4598L10.3193 19.9088C10.2063 20.0271 10.0535 20.0935 9.89422 20.0935C9.73496 20.0935 9.58216 20.0271 9.4691 19.9088L0.950967 10.9263L0.880113 11.0038C0.601138 11.2971 0.379794 11.6456 0.228768 12.0293C0.0777409 12.413 0 12.8243 0 13.2397C0 13.6552 0.0777409 14.0665 0.228768 14.4502C0.379794 14.8339 0.601138 15.1824 0.880113 15.4757L8.30396 23.3042C8.51262 23.5248 8.76049 23.6998 9.03337 23.8192C9.30625 23.9385 9.59879 24 9.89422 24C10.1897 24 10.4822 23.9385 10.7551 23.8192C11.028 23.6998 11.2758 23.5248 11.4845 23.3042L18.9083 15.4757L25.9805 8.02623V8.01239L29.6807 4.0912C29.7937 3.97291 29.9465 3.90653 30.1058 3.90653C30.265 3.90653 30.4178 3.97291 30.5309 4.0912L39.049 13.0737L39.1199 12.9962C39.3989 12.7029 39.6202 12.3544 39.7712 11.9707C39.9223 11.587 40 11.1757 40 10.7603C40 10.3448 39.9223 9.9335 39.7712 9.54982C39.6202 9.16613 39.3989 8.81765 39.1199 8.52433Z" fill="url(#paint2_linear)"/>
</svg>
