<svg width="15" height="16" viewBox="0 0 15 16" fill="none" xmlns="http://www.w3.org/2000/svg">
<path d="M10.3606 10.8409C10.2892 10.8057 9.78718 10.3461 9.78718 9.32121C9.78718 9.28601 9.78718 9.25081 9.75147 9.21492C10.3249 8.5434 10.5763 7.76628 10.6834 7.41296C10.9705 6.28248 10.8984 4.4797 10.8984 4.37423C10.8626 4.02086 10.7905 3.6675 10.7191 3.34934C11.7589 1.47617 10.7548 0.204244 10.7191 0.169085C10.6113 0.0276022 10.3606 -0.0427909 10.1814 0.0276022C10.1814 0.0276022 9.28514 0.380964 7.20551 0.380964H6.66777C5.6637 0.380964 4.55248 0.45136 3.90773 1.44105C3.29857 2.35965 3.62065 3.94974 3.72848 4.40946C3.72848 4.65653 3.69277 6.31779 3.94343 7.37787C4.01485 7.73123 4.30193 8.54425 4.87537 9.215V9.28539C4.87537 10.3103 4.37334 10.7692 4.30193 10.8051C0.143577 13.3145 0 15.3285 0 15.5411C0 15.7881 0.179247 15.9648 0.429906 15.9648C0.681264 16 0.896235 15.7881 0.896235 15.5762C0.896235 15.5762 1.00406 13.8798 4.62475 11.7244L4.91183 12.6782C4.91183 12.7486 5.27033 14.0917 7.34995 14.0917C9.286 14.0917 9.68016 12.9964 9.7515 12.7845L10.0743 11.7244C13.6592 13.8446 13.8028 15.5411 13.8028 15.5762C13.8028 15.8233 14.0178 16 14.2327 16C14.4834 16 14.6626 15.7881 14.6626 15.5762C14.6983 15.3285 14.5904 13.3145 10.3606 10.8409ZM4.73191 1.97175C5.0904 1.44171 5.73598 1.33542 6.7393 1.33542H7.27704C8.78242 1.33542 9.71515 1.15874 10.2163 1.01725C10.3599 1.37061 10.5034 2.11253 9.92925 3.0671C9.78571 3.24378 9.06872 3.52675 7.95753 3.56195C7.16913 3.59715 6.48785 3.45566 6.12939 3.24378C6.02156 3.17338 5.91444 3.17338 5.7709 3.17338C5.66307 3.20858 5.55594 3.27967 5.48381 3.38526C5.48381 3.38526 5.19673 3.84491 4.58758 3.9505C4.48115 3.38526 4.40982 2.43066 4.73191 1.97175ZM8.85459 12.5374C8.85459 12.5726 8.67534 13.1738 7.3492 13.1738C6.02306 13.1738 5.80739 12.467 5.77168 12.3967L5.34178 10.9832C5.52103 10.7361 5.66457 10.3469 5.73598 9.88793C6.16588 10.0998 6.66792 10.2765 7.3135 10.2765C7.95907 10.2765 8.49681 10.135 8.92672 9.88793C8.99814 10.3828 9.17738 10.7361 9.35662 10.9832L8.85459 12.5374ZM7.3492 9.39234C5.59244 9.39234 5.01899 7.8726 4.87541 7.20185C4.69617 6.49513 4.69617 5.39989 4.69617 4.83468C5.34174 4.7284 5.77165 4.41093 6.02231 4.12796C6.52434 4.33984 7.20562 4.44613 7.99402 4.41093C8.67531 4.41093 9.428 4.26945 10.0014 4.02238C10.0371 4.16386 10.0371 4.26945 10.0728 4.41093C10.0728 4.41093 10.1443 6.17774 9.89358 7.1675C9.64362 7.87285 9.10591 9.39234 7.3492 9.39234Z" fill="#FFF"/>
</svg>
