<svg width="20" height="5" viewBox="0 0 20 5" fill="none" xmlns="http://www.w3.org/2000/svg">
<path fill-rule="evenodd" clip-rule="evenodd" d="M4 2C4 3.10449 3.10457 4 2 4C0.895432 4 0 3.10449 0 2C0 0.895508 0.895432 0 2 0C3.10457 0 4 0.895508 4 2ZM12 2C12 3.10449 11.1046 4 10 4C8.89543 4 8 3.10449 8 2C8 0.895508 8.89543 0 10 0C11.1046 0 12 0.895508 12 2ZM18 4C19.1046 4 20 3.10449 20 2C20 0.895508 19.1046 0 18 0C16.8954 0 16 0.895508 16 2C16 3.10449 16.8954 4 18 4Z" transform="translate(0 0.301758)" fill="white"/>
</svg>
