<svg width="18" height="19" viewBox="0 0 18 19" fill="none" xmlns="http://www.w3.org/2000/svg">
<path d="M9 0C4.02816 0 0 4.02816 0 9C0 13.9718 4.02816 18 9 18C13.9718 18 18 13.9718 18 9C18 4.02816 13.9718 0 9 0ZM9 16.56C4.83226 16.56 1.44 13.1677 1.44 9C1.44 4.83226 4.83226 1.44 9 1.44C13.1677 1.44 16.56 4.83226 16.56 9C16.56 13.1677 13.1677 16.56 9 16.56ZM9 2.49216C5.4119 2.49216 2.49216 5.4119 2.49216 9C2.49216 12.5881 5.4119 15.5078 9 15.5078C12.5881 15.5078 15.5078 12.5881 15.5078 9C15.5078 5.4119 12.5881 2.49216 9 2.49216ZM11.4563 10.5719C11.4563 11.6076 10.6725 12.4522 9.636 12.4522H9.612C9.6 12.4522 9.588 12.6359 9.588 12.8639C9.588 13.0919 9.324 13.2756 8.99626 13.2719C8.66851 13.2719 8.40451 13.0882 8.40451 12.8639C8.40451 12.6359 8.39626 12.4522 8.38426 12.4522H8.36401C7.68827 12.4799 7.09576 12.1124 6.77176 11.5642C6.55201 11.1922 6.78751 10.7564 7.11601 10.6724C7.44376 10.5847 7.72427 10.5607 7.73627 10.6124C7.75202 10.6687 7.79627 10.8922 7.94401 11.0527C8.02801 11.1449 8.13976 11.1929 8.29576 11.1929H9.7035C9.83925 11.1929 9.97124 11.1329 10.0635 11.0369C10.2195 10.8772 10.2112 10.6049 10.2112 10.5052V10.3252C10.2112 10.1092 10.083 9.92543 9.88725 9.86543L7.70325 9.26918C7.00725 9.08093 6.53925 8.39692 6.53925 7.63718V7.31318C6.53925 6.28943 7.28325 5.55292 8.29951 5.55292H8.35576C8.38351 5.55292 8.40751 5.36917 8.40751 5.14492C8.40751 4.92067 8.6715 4.74067 8.99551 4.74067C9.3195 4.74067 9.5835 4.92067 9.5835 5.14492C9.5835 5.36918 9.60376 5.55292 9.62325 5.55292H9.663C10.323 5.56867 10.9027 5.90918 11.2313 6.42892C11.463 6.79267 11.2313 7.23292 10.9035 7.32067C10.5758 7.40842 10.2998 7.44067 10.2833 7.38892C10.275 7.35667 10.263 7.32517 10.251 7.29667C10.131 6.97267 10.0073 6.80841 9.73127 6.80841H8.32352C8.17952 6.80841 8.04378 6.86841 7.95152 6.96066C7.78727 7.12491 7.79552 7.32892 7.79552 7.41666V7.58091C7.79552 7.91317 7.98377 8.11717 8.31152 8.19665C8.61527 8.2649 10.1318 8.6564 10.1318 8.6564C10.8878 8.84015 11.4555 9.5084 11.4555 10.3281L11.4563 10.5719Z" transform="translate(0 0.803711)" fill="#FFF"/>
</svg>
