<?xml version="1.0" standalone="no"?><!-- Generator: Gravit.io --><svg xmlns="http://www.w3.org/2000/svg" xmlns:xlink="http://www.w3.org/1999/xlink" style="isolation:isolate" viewBox="0 0 40 40" width="40" height="40"><style type="text/css"><![CDATA[ 
    
    .fast{
     transform-origin: 50% 50%;
      animation:rotate linear 1s infinite running;
    }
    

    @keyframes rotate{

      
      100%{
      
        transform:rotate(360deg);
      }

    }


  ]]></style>


  <path d=" M 39.13 19.93 C 39.13 20.2 39.03 20.45 38.84 20.64 C 38.65 20.83 38.4 20.93 38.13 20.93 C 37.87 20.93 37.61 20.83 37.43 20.64 C 37.24 20.45 37.13 20.2 37.13 19.93 C 37.13 19.93 37.13 19.93 37.13 19.93 L 37.13 19.94 C 37.13 19.94 37.13 19.93 37.13 19.93 C 37.13 15.5 35.34 11.25 32.18 8.14 C 28.99 5 24.68 3.24 20.2 3.25 C 15.72 3.24 11.42 5 8.23 8.14 C 5.06 11.25 3.28 15.5 3.27 19.93 C 3.27 19.93 3.27 19.93 3.27 19.94 L 3.27 19.93 L 3.27 19.93 L 3.27 19.93 C 3.27 19.93 3.27 19.93 3.27 19.93 C 3.28 24.37 5.06 28.62 8.23 31.73 C 11.42 34.87 15.72 36.63 20.2 36.62 C 20.47 36.62 20.72 36.73 20.91 36.91 C 21.1 37.1 21.2 37.36 21.2 37.62 C 21.2 37.89 21.1 38.14 20.91 38.33 C 20.72 38.52 20.47 38.62 20.2 38.62 C 15.2 38.63 10.39 36.66 6.82 33.15 C 3.28 29.67 1.28 24.9 1.27 19.94 C 1.27 19.93 1.27 19.93 1.27 19.93 C 1.27 19.93 1.27 19.93 1.27 19.93 C 1.28 14.96 3.28 10.2 6.82 6.71 C 10.39 3.2 15.2 1.24 20.2 1.25 C 25.21 1.24 30.02 3.2 33.58 6.71 C 37.13 10.2 39.13 14.96 39.13 19.93 C 39.13 19.93 39.13 19.93 39.13 19.93 Z " class="fast" fill="rgb(250,93,90)"/></svg>