<svg width="32" height="32" viewBox="0 0 32 32" fill="none" xmlns="http://www.w3.org/2000/svg">
<path d="M-3.71092e-07 -1.14746e-07H4.42878V1.48998H-3.71092e-07V-1.14746e-07Z" transform="translate(17.9653 3.93652)" fill="#9462B5"/>
<path d="M9.27731e-08 -1.46484e-07H12.7948V1.48998H9.27731e-08V-1.46484e-07Z" transform="translate(9.59863 7.87402)" fill="#9462B5"/>
<path d="M9.27731e-08 -5.66406e-07H12.7948V1.48998H9.27731e-08V-5.66406e-07Z" transform="translate(9.59863 11.8096)" fill="#9462B5"/>
<path d="M15.6486 11.0763L-1.09863e-08 1.26L0.793757 -1.46484e-07L15.6487 9.31744L30.5111 -1.46484e-07L31.3048 1.26L15.6486 11.0763Z" transform="translate(0.347168 12.4131)" fill="#9462B5"/>
<path d="M31.9999 21.7711H0V2.32374L5.54494 -1.25977e-07L6.11492 1.37126L1.48998 3.31376V20.2811H30.51V3.31376L25.8851 1.37126L26.4551 -1.25977e-07L32 2.32374L31.9999 21.7711Z" transform="translate(0 10.2285)" fill="#9462B5"/>
<path d="M22.1575 15.9962H20.6688V1.48992H1.48873V15.9962H-4.83397e-08V0H22.1574L22.1575 15.9962Z" transform="translate(4.92139)" fill="#9462B5"/>
</svg>
