<svg width="18" height="16" viewBox="0 0 18 16" fill="none" xmlns="http://www.w3.org/2000/svg">
<path d="M4.80088 0V4.66666H0" transform="translate(12.1992 1.77637)" stroke="#F8728A" stroke-linecap="round" stroke-linejoin="round"/>
<path d="M13.9913 9.33182C13.4712 10.7629 12.4867 11.9908 11.1862 12.8307C9.8856 13.6705 8.33947 14.0767 6.78076 13.988C5.22204 13.8994 3.73519 13.3207 2.54425 12.3392C1.35331 11.3577 0.522813 10.0265 0.177904 8.5463C-0.167006 7.06607 -0.00764076 5.51697 0.631985 4.13243C1.27161 2.74789 2.35684 1.60294 3.72414 0.870099C5.09145 0.137259 6.66674 -0.143763 8.21265 0.069381C9.75856 0.282525 11.1913 0.978287 12.295 2.05182L15.9997 5.44293" transform="translate(1 1)" stroke="#F8728A" stroke-linecap="round" stroke-linejoin="round"/>
<path d="M4.53857 4.13702L5 3.37286L3.21625 2.50988L5 1.64032L4.53857 0.862978L2.85813 1.93676L2.96832 0H2.03168L2.14187 1.93676L0.461433 0.862978L0 1.64032L1.79063 2.50988L0 3.37286L0.461433 4.13702L2.14187 3.08959L2.03168 5H2.96832L2.85813 3.09618L4.53857 4.13702Z" transform="translate(5 6)" fill="#F8728A"/>
</svg>
