<svg width="90" height="90" viewBox="0 0 90 90" fill="none" xmlns="http://www.w3.org/2000/svg">
<path d="M79.7887 10.211C73.2067 3.6251 64.4527 0 55.1407 0C45.8287 0 37.0747 3.625 30.4927 10.211C23.9068 16.7969 20.2817 25.547 20.2817 34.859C20.2817 43.5778 23.4614 51.804 29.27 58.222L24.8911 62.6009C23.8208 61.9681 22.5981 61.6243 21.3208 61.6243C19.438 61.6243 17.6685 62.3587 16.3364 63.6907L2.0664 77.9607C0.7344 79.2927 -6.94275e-08 81.0623 -6.94275e-08 82.949C-6.94275e-08 84.8318 0.73438 86.6013 2.0664 87.9334C3.3984 89.2654 5.168 89.9998 7.0508 89.9998C8.9336 89.9998 10.707 89.2655 12.0391 87.9334L26.3091 73.6634C28.6216 71.3509 28.9653 67.8236 27.3833 65.1243L31.7778 60.7298C38.1958 66.5384 46.4228 69.7181 55.1408 69.7181C64.4533 69.7181 73.2068 66.0931 79.7888 59.5071C86.3747 52.9251 89.9998 44.1711 89.9998 34.8591C89.9998 25.5471 86.3748 16.7931 79.7888 10.2111L79.7887 10.211ZM23.8047 71.156L9.5347 85.426C8.2105 86.7502 5.898 86.7502 4.5738 85.426C3.90974 84.7619 3.5465 83.883 3.5465 82.9455C3.5465 82.008 3.90978 81.1291 4.5738 80.465L18.8438 66.195C19.5079 65.5309 20.3868 65.1677 21.3243 65.1677C22.2618 65.1677 23.1407 65.531 23.8048 66.195C25.1681 67.5661 25.1681 69.7888 23.8048 71.1559L23.8047 71.156ZM77.2817 57.004C71.3676 62.9181 63.5047 66.1759 55.1367 66.1759C46.7734 66.1759 38.9097 62.9181 32.9957 57.004C27.0816 51.0899 23.8238 43.227 23.8238 34.863C23.8238 26.499 27.0816 18.636 32.9957 12.718C38.9137 6.8 46.7767 3.5461 55.1407 3.5461C63.5047 3.5461 71.3677 6.8039 77.2857 12.718C83.1998 18.6321 86.4576 26.495 86.4576 34.863C86.4537 43.2224 83.1959 51.086 77.2818 57.004H77.2817Z" fill="#E5E5E5"/>
<path d="M0.999999 22.3907C0.449219 22.3907 -5.79834e-07 21.9415 -5.79834e-07 21.3907C-5.79834e-07 15.668 2.2227 10.2927 6.2539 6.2617C10.2891 2.2226 15.6641 -1.34277e-07 21.3829 -1.34277e-07C21.9337 -1.34277e-07 22.3829 0.44922 22.3829 1C22.3829 1.55078 21.9337 2 21.3829 2C16.1993 2 11.3279 4.0156 7.6679 7.6758C4.0117 11.332 1.9999 16.1992 1.9999 21.3908C1.9999 21.9416 1.55068 22.3908 0.9999 22.3908L0.999999 22.3907Z" transform="translate(33.7577 13.4688)" fill="#E5E5E5"/>
<path d="M45.6665 45.6681C40.6274 50.7189 33.9045 53.4962 26.7445 53.4962C19.5843 53.4962 12.8655 50.715 7.8225 45.6681C-2.6075 35.2381 -2.6075 18.2581 7.8225 7.8281C12.8616 2.7773 19.5845 -2.19727e-07 26.7445 -2.19727e-07C33.9047 -2.19727e-07 40.6235 2.7812 45.6665 7.8281C56.1075 18.2581 56.1075 35.2381 45.6665 45.6681ZM26.7485 51.1251C33.268 51.1251 39.3965 48.5939 43.9985 43.9962C53.5102 34.4845 53.5102 19.0082 43.9985 9.4962C39.3969 4.8946 33.2685 2.3556 26.7485 2.3556C20.2285 2.3556 14.1005 4.8947 9.4985 9.4962C-0.0132008 19.0079 -0.0132008 34.4842 9.4985 43.9962C14.0962 48.5978 20.2285 51.1251 26.7485 51.1251Z" transform="translate(28.3922 8.11328)" fill="#E5E5E5"/>
</svg>
