<svg width="16" height="16" viewBox="0 0 16 16" fill="none" xmlns="http://www.w3.org/2000/svg">
<path d="M8 0C3.57369 0 0 3.57369 0 8C0 12.4263 3.57369 16 8 16C12.4263 16 16 12.4263 16 8C16 3.57369 12.4263 0 8 0ZM12.0708 10.702C12.4444 11.0757 12.4444 11.6798 12.0708 12.0534C11.8749 12.2493 11.6444 12.3382 11.3951 12.3382C11.1465 12.3382 10.8971 12.2493 10.7194 12.0534L8.0534 9.38677L5.3686 12.0534C5.17276 12.2493 4.94222 12.3382 4.69291 12.3382C4.4443 12.3382 4.19499 12.2493 4.01721 12.0534C3.64359 11.6798 3.64359 11.0757 4.01721 10.702L6.70201 8.01724L4.01792 5.35129C3.6443 4.97767 3.6443 4.37351 4.01792 3.99989C4.39154 3.62628 4.9957 3.62628 5.36932 3.99989L8.05412 6.68469L10.7389 3.99989C11.1125 3.62628 11.7167 3.62628 12.0903 3.99989C12.4639 4.37351 12.4639 4.97767 12.0903 5.35129L9.40427 8.03538L12.0708 10.702Z" fill="#878787"/>
</svg>
