<svg width="18" height="19" viewBox="0 0 18 19" fill="none" xmlns="http://www.w3.org/2000/svg">
<path d="M3.01887 6.03774C4.68614 6.03774 6.03774 4.68614 6.03774 3.01887C6.03774 1.35159 4.68614 0 3.01887 0C1.35159 0 0 1.35159 0 3.01887C0 4.68614 1.35159 6.03774 3.01887 6.03774Z" transform="translate(10.4717 1.20801)" stroke="white" stroke-linecap="round" stroke-linejoin="round"/>
<path d="M3.01887 6.03774C4.68614 6.03774 6.03774 4.68614 6.03774 3.01887C6.03774 1.35159 4.68614 0 3.01887 0C1.35159 0 0 1.35159 0 3.01887C0 4.68614 1.35159 6.03774 3.01887 6.03774Z" transform="translate(0.81131 7.24609)" stroke="white" stroke-linecap="round" stroke-linejoin="round"/>
<path d="M3.01887 6.03774C4.68614 6.03774 6.03774 4.68614 6.03774 3.01887C6.03774 1.35159 4.68614 0 3.01887 0C1.35159 0 0 1.35159 0 3.01887C0 4.68614 1.35159 6.03774 3.01887 6.03774Z" transform="translate(10.4717 12.0762)" stroke="white" stroke-linecap="round" stroke-linejoin="round"/>
<path d="M8.09328e-08 1.38887e-07L3.62264 2.41509" transform="translate(6.84904 12.0762)" stroke="white" stroke-linecap="round" stroke-linejoin="round"/>
<path d="M3.62264 1.38887e-07L8.10515e-08 2.41509" transform="translate(6.84904 6.03809)" stroke="white" stroke-linecap="round" stroke-linejoin="round"/>
</svg>
