<svg width="16" height="18" viewBox="0 0 16 18" fill="none" xmlns="http://www.w3.org/2000/svg">
<path d="M0 0H1.55556H14" transform="translate(1 4.19922)" stroke="#F8728A" stroke-linecap="round" stroke-linejoin="round"/>
<path d="M2.33333 3.2V1.6C2.33333 1.17565 2.49722 0.768687 2.78895 0.468629C3.08067 0.168571 3.47633 0 3.88889 0H7C7.41256 0 7.80822 0.168571 8.09994 0.468629C8.39167 0.768687 8.55556 1.17565 8.55556 1.6V3.2M10.8889 3.2V14.4C10.8889 14.8243 10.725 15.2313 10.4333 15.5314C10.1416 15.8314 9.74589 16 9.33333 16H1.55556C1.143 16 0.747335 15.8314 0.455612 15.5314C0.163888 15.2313 0 14.8243 0 14.4V3.2H10.8889Z" transform="translate(2.55556 1)" stroke="#F8728A" stroke-linecap="round" stroke-linejoin="round"/>
<path d="M0 0V4.8" transform="translate(6.44444 8.19922)" stroke="#F8728A" stroke-linecap="round" stroke-linejoin="round"/>
<path d="M0 0V4.8" transform="translate(9.55556 8.19922)" stroke="#F8728A" stroke-linecap="round" stroke-linejoin="round"/>
</svg>
