<svg width="18" height="18" viewBox="0 0 18 18" version="1.1" xmlns="http://www.w3.org/2000/svg" xmlns:xlink="http://www.w3.org/1999/xlink">
<g id="Canvas" fill="none">
<g id="bell">
<path id="Vector" d="M 9.384 15.2C 9.24335 15.4425 9.04147 15.6437 8.79858 15.7836C 8.55569 15.9235 8.2803 15.9972 8 15.9972C 7.7197 15.9972 7.44431 15.9235 7.20142 15.7836C 6.95853 15.6437 6.75665 15.4425 6.616 15.2M 16 12L 0 12C 0.63652 12 1.24697 11.7471 1.69706 11.2971C 2.14714 10.847 2.4 10.2365 2.4 9.6L 2.4 5.6C 2.4 4.11479 2.99 2.69041 4.0402 1.6402C 5.09041 0.589998 6.51479 -8.34465e-08 8 -8.34465e-08C 9.48521 -8.34465e-08 10.9096 0.589998 11.9598 1.6402C 13.01 2.69041 13.6 4.11479 13.6 5.6L 13.6 9.6C 13.6 10.2365 13.8529 10.847 14.3029 11.2971C 14.753 11.7471 15.3635 12 16 12Z" transform="translate(1 1)" stroke="#F8728A" stroke-linecap="round" stroke-linejoin="round"/>
</g>
</g>
</svg>
