<svg width="16" height="14" viewBox="0 0 16 14" version="1.1" xmlns="http://www.w3.org/2000/svg" xmlns:xlink="http://www.w3.org/1999/xlink">
<g id="Canvas" fill="none">
<g id="camera">
<path id="Vector" d="M 14.6667 10.6667C 14.6667 11.0203 14.5262 11.3594 14.2761 11.6095C 14.0261 11.8595 13.687 12 13.3333 12L 1.33333 12C 0.979711 12 0.640573 11.8595 0.390524 11.6095C 0.140476 11.3594 0 11.0203 0 10.6667L 0 3.33333C 0 2.97971 0.140476 2.64057 0.390524 2.39052C 0.640573 2.14048 0.979711 2 1.33333 2L 4 2L 5.33333 0L 9.33333 0L 10.6667 2L 13.3333 2C 13.687 2 14.0261 2.14048 14.2761 2.39052C 14.5262 2.64057 14.6667 2.97971 14.6667 3.33333L 14.6667 10.6667Z" transform="translate(0.666992 1.33301)" stroke="#F8728A" stroke-linecap="round" stroke-linejoin="round"/>
<path id="Vector_2" d="M 5.33333 2.66667C 5.33333 4.13943 4.13943 5.33333 2.66667 5.33333C 1.19391 5.33333 0 4.13943 0 2.66667C 0 1.19391 1.19391 0 2.66667 0C 4.13943 0 5.33333 1.19391 5.33333 2.66667Z" transform="translate(5.33301 5.33301)" stroke="#F8728A" stroke-linecap="round" stroke-linejoin="round"/>
</g>
</g>
</svg>
