<svg width="16" height="14" viewBox="0 0 16 14" version="1.1" xmlns="http://www.w3.org/2000/svg" xmlns:xlink="http://www.w3.org/1999/xlink">
<g id="Canvas" fill="none">
<g id="Union">
<mask id="path-1-inside-1" fill="white">
<path d="M 1.12234 1.17088C 2.61868 -0.390293 5.04471 -0.390293 6.54105 1.17088L 8.00003 2.69304L 9.45901 1.17088C 10.9554 -0.390293 13.3814 -0.390293 14.8777 1.17088C 16.3742 2.73205 16.3742 5.26323 14.8777 6.8244L 8.00003 14L 1.12234 6.8244C -0.374115 5.26323 -0.374115 2.73205 1.12234 1.17088Z"/>
</mask>
<g mask="url(#path-1-inside-1)">
<path d="M 6.54105 1.17088L 5.81911 1.86284L 5.81912 1.86285L 6.54105 1.17088ZM 1.12234 1.17088L 1.84426 1.86287L 1.84428 1.86284L 1.12234 1.17088ZM 8.00003 2.69304L 7.2781 3.385L 8.00003 4.13819L 8.72196 3.385L 8.00003 2.69304ZM 9.45901 1.17088L 10.1809 1.86285L 10.181 1.86284L 9.45901 1.17088ZM 14.8777 1.17088L 14.1558 1.86284L 14.1558 1.86287L 14.8777 1.17088ZM 14.8777 6.8244L 14.1558 6.13241L 14.1558 6.13244L 14.8777 6.8244ZM 8.00003 14L 7.2781 14.692L 8.00003 15.4452L 8.72197 14.692L 8.00003 14ZM 1.12234 6.8244L 1.84428 6.13244L 1.84426 6.13241L 1.12234 6.8244ZM 7.26298 0.478922C 5.37298 -1.49297 2.29041 -1.49297 0.400406 0.478922L 1.84428 1.86284C 2.94695 0.712388 4.71644 0.712388 5.81911 1.86284L 7.26298 0.478922ZM 8.72196 2.00107L 7.26297 0.478912L 5.81912 1.86285L 7.2781 3.385L 8.72196 2.00107ZM 8.72196 3.385L 10.1809 1.86285L 8.73709 0.478912L 7.2781 2.00107L 8.72196 3.385ZM 10.181 1.86284C 11.2836 0.712388 13.0531 0.712388 14.1558 1.86284L 15.5997 0.478922C 13.7097 -1.49297 10.6271 -1.49297 8.73708 0.478922L 10.181 1.86284ZM 14.1558 1.86287C 15.2815 3.03722 15.2815 4.95806 14.1558 6.13241L 15.5996 7.51638C 17.4669 5.56839 17.4669 2.42689 15.5996 0.478893L 14.1558 1.86287ZM 0.400434 0.478893C -1.46681 2.42689 -1.46681 5.56839 0.400434 7.51638L 1.84426 6.13241C 0.718581 4.95806 0.718581 3.03722 1.84426 1.86287L 0.400434 0.478893ZM 14.1558 6.13244L 7.2781 13.3081L 8.72197 14.692L 15.5997 7.51636L 14.1558 6.13244ZM 0.40041 7.51636L 7.2781 14.692L 8.72197 13.3081L 1.84428 6.13244L 0.40041 7.51636Z" fill="white"/>
</g>
</g>
</g>
</svg>
