<svg width="14" height="16" viewBox="0 0 14 16" version="1.1" xmlns="http://www.w3.org/2000/svg" xmlns:xlink="http://www.w3.org/1999/xlink">
<g id="Canvas" fill="none">
<g id="lock">
<g id="Vector" transform="translate(0 7)">
<mask id="path-1-inside-1" fill="white">
<path d="M 12.4444 0L 1.55556 0C 0.696446 0 0 0.732625 0 1.63636L 0 7.36364C 0 8.26737 0.696446 9 1.55556 9L 12.4444 9C 13.3036 9 14 8.26737 14 7.36364L 14 1.63636C 14 0.732625 13.3036 0 12.4444 0Z"/>
</mask>
<g mask="url(#path-1-inside-1)">
<path d="M 1.55556 1L 12.4444 1L 12.4444 -1L 1.55556 -1L 1.55556 1ZM 12.4444 1C 12.7042 1 13 1.23658 13 1.63636L 15 1.63636C 15 0.228666 13.903 -1 12.4444 -1L 12.4444 1ZM 13 1.63636L 13 7.36364L 15 7.36364L 15 1.63636L 13 1.63636ZM 13 7.36364C 13 7.76342 12.7042 8 12.4444 8L 12.4444 10C 13.903 10 15 8.77133 15 7.36364L 13 7.36364ZM 12.4444 8L 1.55556 8L 1.55556 10L 12.4444 10L 12.4444 8ZM 1.55556 8C 1.29585 8 1 7.76342 1 7.36364L -1 7.36364C -1 8.77133 0.0970432 10 1.55556 10L 1.55556 8ZM 1 7.36364L 1 1.63636L -1 1.63636L -1 7.36364L 1 7.36364ZM 1 1.63636C 1 1.23658 1.29585 1 1.55556 1L 1.55556 -1C 0.0970432 -1 -1 0.228666 -1 1.63636L 1 1.63636Z" fill="#F8728A"/>
</g>
</g>
<g id="Vector_2" transform="translate(3 0)">
<mask id="path-3-inside-2" fill="white">
<path d="M 0 7L 0 3.88889C 0 2.85749 0.421427 1.86834 1.17157 1.13903C 1.92172 0.409721 2.93913 0 4 0C 5.06087 0 6.07828 0.409721 6.82843 1.13903C 7.57857 1.86834 8 2.85749 8 3.88889L 8 7"/>
</mask>
<g mask="url(#path-3-inside-2)">
<path d="M -1 7C -1 7.55228 -0.552285 8 0 8C 0.552285 8 1 7.55228 1 7L -1 7ZM 0 3.88889L -1 3.88889L 0 3.88889ZM 7 7C 7 7.55228 7.44772 8 8 8C 8.55229 8 9 7.55228 9 7L 7 7ZM 1 7L 1 3.88889L -1 3.88889L -1 7L 1 7ZM 1 3.88889C 1 3.13194 1.30902 2.40011 1.86865 1.85602L 0.474494 0.422034C -0.466169 1.33657 -1 2.58304 -1 3.88889L 1 3.88889ZM 1.86865 1.85602C 2.42924 1.31101 3.1954 1 4 1L 4 -1C 2.68286 -1 1.4142 -0.491569 0.474494 0.422034L 1.86865 1.85602ZM 4 1C 4.8046 1 5.57076 1.31101 6.13135 1.85602L 7.52551 0.422034C 6.5858 -0.491569 5.31713 -1 4 -1L 4 1ZM 6.13135 1.85602C 6.69098 2.40011 7 3.13194 7 3.88889L 9 3.88889C 9 2.58304 8.46617 1.33657 7.52551 0.422034L 6.13135 1.85602ZM 7 3.88889L 7 7L 9 7L 9 3.88889L 7 3.88889Z" fill="#F8728A"/>
</g>
</g>
</g>
</g>
</svg>
