<svg width="16" height="14" viewBox="0 0 16 14" version="1.1" xmlns="http://www.w3.org/2000/svg" xmlns:xlink="http://www.w3.org/1999/xlink">
<g id="Canvas" fill="none">
<g id="Union">
<mask id="path-1-inside-1" fill="white">
<path fill-rule="evenodd" clip-rule="evenodd" d="M 6.08301 12L 3 12C 1.34277 12 0 10.6572 0 9L 0 3C 0 1.34277 1.34277 0 3 0L 3.79004 0C 3.81836 0 3.8457 0 3.87402 0L 12.126 0C 12.1543 0 12.1816 0 12.21 0L 13 0C 14.6572 0 16 1.34277 16 3L 16 9C 16 10.6572 14.6572 12 13 12L 9.91699 12L 8 14L 6.08301 12Z"/>
</mask>
<g mask="url(#path-1-inside-1)">
<path d="M 6.08301 12L 6.80494 11.308L 6.50969 11L 6.08301 11L 6.08301 12ZM 9.91699 12L 9.91699 11L 9.49031 11L 9.19506 11.308L 9.91699 12ZM 8 14L 7.27807 14.692L 8 15.4452L 8.72193 14.692L 8 14ZM 6.08301 11L 3 11L 3 13L 6.08301 13L 6.08301 11ZM 3 11C 1.89506 11 1 10.1049 1 9L -1 9C -1 11.2095 0.790489 13 3 13L 3 11ZM 1 9L 1 3L -1 3L -1 9L 1 9ZM 1 3C 1 1.89506 1.89506 1 3 1L 3 -1C 0.790489 -1 -1 0.790489 -1 3L 1 3ZM 3 1L 3.79004 1L 3.79004 -1L 3 -1L 3 1ZM 3.79004 1C 3.79009 1 3.79015 1 3.79021 1C 3.79026 1 3.79032 1 3.79037 1C 3.79043 1 3.79048 1 3.79054 1C 3.79059 1 3.79065 1 3.7907 1C 3.79076 1 3.79081 1 3.79087 1C 3.79092 1 3.79098 1 3.79103 1C 3.79109 1 3.79114 1 3.7912 1C 3.79126 1 3.79131 1 3.79137 1C 3.79142 1 3.79148 1 3.79153 1C 3.79159 1 3.79164 1 3.7917 1C 3.79175 1 3.79181 1 3.79186 1C 3.79192 1 3.79197 1 3.79203 1C 3.79208 1 3.79214 1 3.79219 1C 3.79225 1 3.7923 1 3.79236 1C 3.79242 1 3.79247 1 3.79253 1C 3.79258 1 3.79264 1 3.79269 1C 3.79275 1 3.7928 1 3.79286 1C 3.79291 1 3.79297 1 3.79302 1C 3.79308 1 3.79313 1 3.79319 1C 3.79324 1 3.7933 1 3.79335 1C 3.79341 1 3.79346 1 3.79352 1C 3.79357 1 3.79363 1 3.79368 1C 3.79374 1 3.79379 1 3.79385 1C 3.79391 1 3.79396 1 3.79402 1C 3.79407 1 3.79413 1 3.79418 1C 3.79424 1 3.79429 1 3.79435 1C 3.7944 1 3.79446 1 3.79451 1C 3.79457 1 3.79462 1 3.79468 1C 3.79473 1 3.79479 1 3.79484 1C 3.7949 1 3.79495 1 3.79501 1C 3.79506 1 3.79512 1 3.79517 1C 3.79523 1 3.79528 1 3.79534 1C 3.79539 1 3.79545 1 3.7955 1C 3.79556 1 3.79561 1 3.79567 1C 3.79572 1 3.79578 1 3.79583 1C 3.79589 1 3.79594 1 3.796 1C 3.79605 1 3.79611 1 3.79616 1C 3.79622 1 3.79627 1 3.79633 1C 3.79638 1 3.79644 1 3.79649 1C 3.79655 1 3.7966 1 3.79666 1C 3.79671 1 3.79677 1 3.79682 1C 3.79688 1 3.79693 1 3.79699 1C 3.79704 1 3.7971 1 3.79715 1C 3.79721 1 3.79727 1 3.79732 1C 3.79737 1 3.79743 1 3.79749 1C 3.79754 1 3.7976 1 3.79765 1C 3.7977 1 3.79776 1 3.79782 1C 3.79787 1 3.79792 1 3.79798 1C 3.79803 1 3.79809 1 3.79815 1C 3.7982 1 3.79825 1 3.79831 1C 3.79836 1 3.79842 1 3.79847 1C 3.79853 1 3.79858 1 3.79864 1C 3.79869 1 3.79875 1 3.7988 1C 3.79886 1 3.79891 1 3.79897 1C 3.79902 1 3.79908 1 3.79913 1C 3.79919 1 3.79924 1 3.7993 1C 3.79935 1 3.79941 1 3.79946 1C 3.79952 1 3.79957 1 3.79963 1C 3.79968 1 3.79974 1 3.79979 1C 3.79985 1 3.7999 1 3.79996 1C 3.80001 1 3.80007 1 3.80012 1C 3.80018 1 3.80023 1 3.80029 1C 3.80034 1 3.8004 1 3.80045 1C 3.80051 1 3.80056 1 3.80062 1C 3.80067 1 3.80073 1 3.80078 1C 3.80084 1 3.80089 1 3.80095 1C 3.801 1 3.80106 1 3.80111 1C 3.80117 1 3.80122 1 3.80128 1C 3.80133 1 3.80139 1 3.80144 1C 3.8015 1 3.80155 1 3.8016 1C 3.80166 1 3.80171 1 3.80177 1C 3.80182 1 3.80188 1 3.80193 1C 3.80199 1 3.80204 1 3.8021 1C 3.80215 1 3.80221 1 3.80226 1C 3.80232 1 3.80237 1 3.80243 1C 3.80248 1 3.80254 1 3.80259 1C 3.80265 1 3.8027 1 3.80276 1C 3.80281 1 3.80287 1 3.80292 1C 3.80298 1 3.80303 1 3.80309 1C 3.80314 1 3.8032 1 3.80325 1C 3.8033 1 3.80336 1 3.80341 1C 3.80347 1 3.80352 1 3.80358 1C 3.80363 1 3.80369 1 3.80374 1C 3.8038 1 3.80385 1 3.80391 1C 3.80396 1 3.80402 1 3.80407 1C 3.80413 1 3.80418 1 3.80424 1C 3.80429 1 3.80435 1 3.8044 1C 3.80446 1 3.80451 1 3.80457 1C 3.80462 1 3.80467 1 3.80473 1C 3.80478 1 3.80484 1 3.80489 1C 3.80495 1 3.805 1 3.80506 1C 3.80511 1 3.80517 1 3.80522 1C 3.80528 1 3.80533 1 3.80539 1C 3.80544 1 3.8055 1 3.80555 1C 3.80561 1 3.80566 1 3.80571 1C 3.80577 1 3.80582 1 3.80588 1C 3.80593 1 3.80599 1 3.80604 1C 3.8061 1 3.80615 1 3.80621 1C 3.80626 1 3.80632 1 3.80637 1C 3.80643 1 3.80648 1 3.80654 1C 3.80659 1 3.80665 1 3.8067 1C 3.80675 1 3.80681 1 3.80686 1C 3.80692 1 3.80697 1 3.80703 1C 3.80708 1 3.80714 1 3.80719 1C 3.80725 1 3.8073 1 3.80736 1C 3.80741 1 3.80747 1 3.80752 1C 3.80757 1 3.80763 1 3.80768 1C 3.80774 1 3.80779 1 3.80785 1C 3.8079 1 3.80796 1 3.80801 1C 3.80807 1 3.80812 1 3.80818 1C 3.80823 1 3.80829 1 3.80834 1C 3.8084 1 3.80845 1 3.8085 1C 3.80856 1 3.80861 1 3.80867 1C 3.80872 1 3.80878 1 3.80883 1C 3.80889 1 3.80894 1 3.809 1C 3.80905 1 3.80911 1 3.80916 1C 3.80922 1 3.80927 1 3.80932 1C 3.80938 1 3.80943 1 3.80949 1C 3.80954 1 3.8096 1 3.80965 1C 3.80971 1 3.80976 1 3.80982 1C 3.80987 1 3.80993 1 3.80998 1C 3.81003 1 3.81009 1 3.81014 1C 3.8102 1 3.81025 1 3.81031 1C 3.81036 1 3.81042 1 3.81047 1C 3.81053 1 3.81058 1 3.81064 1C 3.81069 1 3.81074 1 3.8108 1C 3.81085 1 3.81091 1 3.81096 1C 3.81102 1 3.81107 1 3.81113 1C 3.81118 1 3.81124 1 3.81129 1C 3.81135 1 3.8114 1 3.81145 1C 3.81151 1 3.81156 1 3.81162 1C 3.81167 1 3.81173 1 3.81178 1C 3.81184 1 3.81189 1 3.81195 1C 3.812 1 3.81205 1 3.81211 1C 3.81216 1 3.81222 1 3.81227 1C 3.81233 1 3.81238 1 3.81244 1C 3.81249 1 3.81255 1 3.8126 1C 3.81265 1 3.81271 1 3.81276 1C 3.81282 1 3.81287 1 3.81293 1C 3.81298 1 3.81304 1 3.81309 1C 3.81315 1 3.8132 1 3.81326 1C 3.81331 1 3.81336 1 3.81342 1C 3.81347 1 3.81353 1 3.81358 1C 3.81364 1 3.81369 1 3.81375 1C 3.8138 1 3.81386 1 3.81391 1C 3.81396 1 3.81402 1 3.81407 1C 3.81413 1 3.81418 1 3.81424 1C 3.81429 1 3.81435 1 3.8144 1C 3.81446 1 3.81451 1 3.81456 1C 3.81462 1 3.81467 1 3.81473 1C 3.81478 1 3.81484 1 3.81489 1C 3.81495 1 3.815 1 3.81505 1C 3.81511 1 3.81516 1 3.81522 1C 3.81527 1 3.81533 1 3.81538 1C 3.81544 1 3.81549 1 3.81555 1C 3.8156 1 3.81565 1 3.81571 1C 3.81576 1 3.81582 1 3.81587 1C 3.81593 1 3.81598 1 3.81604 1C 3.81609 1 3.81614 1 3.8162 1C 3.81625 1 3.81631 1 3.81636 1C 3.81642 1 3.81647 1 3.81653 1C 3.81658 1 3.81664 1 3.81669 1C 3.81674 1 3.8168 1 3.81685 1C 3.81691 1 3.81696 1 3.81702 1C 3.81707 1 3.81713 1 3.81718 1C 3.81723 1 3.81729 1 3.81734 1C 3.8174 1 3.81745 1 3.81751 1C 3.81756 1 3.81762 1 3.81767 1C 3.81772 1 3.81778 1 3.81783 1C 3.81789 1 3.81794 1 3.818 1C 3.81805 1 3.81811 1 3.81816 1C 3.81822 1 3.81827 1 3.81832 1C 3.81838 1 3.81843 1 3.81849 1C 3.81854 1 3.8186 1 3.81865 1C 3.81871 1 3.81876 1 3.81881 1C 3.81887 1 3.81892 1 3.81898 1C 3.81903 1 3.81909 1 3.81914 1C 3.8192 1 3.81925 1 3.8193 1C 3.81936 1 3.81941 1 3.81947 1C 3.81952 1 3.81958 1 3.81963 1C 3.81969 1 3.81974 1 3.81979 1C 3.81985 1 3.8199 1 3.81996 1C 3.82001 1 3.82007 1 3.82012 1C 3.82018 1 3.82023 1 3.82028 1C 3.82034 1 3.82039 1 3.82045 1C 3.8205 1 3.82056 1 3.82061 1C 3.82067 1 3.82072 1 3.82077 1C 3.82083 1 3.82088 1 3.82094 1C 3.82099 1 3.82105 1 3.8211 1C 3.82116 1 3.82121 1 3.82126 1C 3.82132 1 3.82137 1 3.82143 1C 3.82148 1 3.82154 1 3.82159 1C 3.82164 1 3.8217 1 3.82175 1C 3.82181 1 3.82186 1 3.82192 1C 3.82197 1 3.82203 1 3.82208 1C 3.82213 1 3.82219 1 3.82224 1C 3.8223 1 3.82235 1 3.82241 1C 3.82246 1 3.82252 1 3.82257 1C 3.82262 1 3.82268 1 3.82273 1C 3.82279 1 3.82284 1 3.8229 1C 3.82295 1 3.82301 1 3.82306 1C 3.82311 1 3.82317 1 3.82322 1C 3.82328 1 3.82333 1 3.82339 1C 3.82344 1 3.82349 1 3.82355 1C 3.8236 1 3.82366 1 3.82371 1C 3.82377 1 3.82382 1 3.82388 1C 3.82393 1 3.82398 1 3.82404 1C 3.82409 1 3.82415 1 3.8242 1C 3.82426 1 3.82431 1 3.82437 1C 3.82442 1 3.82447 1 3.82453 1C 3.82458 1 3.82464 1 3.82469 1C 3.82475 1 3.8248 1 3.82485 1C 3.82491 1 3.82496 1 3.82502 1C 3.82507 1 3.82513 1 3.82518 1C 3.82524 1 3.82529 1 3.82534 1C 3.8254 1 3.82545 1 3.82551 1C 3.82556 1 3.82562 1 3.82567 1C 3.82572 1 3.82578 1 3.82583 1C 3.82589 1 3.82594 1 3.826 1C 3.82605 1 3.82611 1 3.82616 1C 3.82621 1 3.82627 1 3.82632 1C 3.82638 1 3.82643 1 3.82649 1C 3.82654 1 3.82659 1 3.82665 1C 3.8267 1 3.82676 1 3.82681 1C 3.82687 1 3.82692 1 3.82698 1C 3.82703 1 3.82708 1 3.82714 1C 3.82719 1 3.82725 1 3.8273 1C 3.82736 1 3.82741 1 3.82746 1C 3.82752 1 3.82757 1 3.82763 1C 3.82768 1 3.82774 1 3.82779 1C 3.82785 1 3.8279 1 3.82795 1C 3.82801 1 3.82806 1 3.82812 1C 3.82817 1 3.82823 1 3.82828 1C 3.82833 1 3.82839 1 3.82844 1C 3.8285 1 3.82855 1 3.82861 1C 3.82866 1 3.82872 1 3.82877 1C 3.82882 1 3.82888 1 3.82893 1C 3.82899 1 3.82904 1 3.8291 1C 3.82915 1 3.8292 1 3.82926 1C 3.82931 1 3.82937 1 3.82942 1C 3.82948 1 3.82953 1 3.82959 1C 3.82964 1 3.82969 1 3.82975 1C 3.8298 1 3.82986 1 3.82991 1C 3.82997 1 3.83002 1 3.83007 1C 3.83013 1 3.83018 1 3.83024 1C 3.83029 1 3.83035 1 3.8304 1C 3.83045 1 3.83051 1 3.83056 1C 3.83062 1 3.83067 1 3.83073 1C 3.83078 1 3.83084 1 3.83089 1C 3.83094 1 3.831 1 3.83105 1C 3.83111 1 3.83116 1 3.83122 1C 3.83127 1 3.83132 1 3.83138 1C 3.83143 1 3.83149 1 3.83154 1C 3.8316 1 3.83165 1 3.83171 1C 3.83176 1 3.83181 1 3.83187 1C 3.83192 1 3.83198 1 3.83203 1C 3.83209 1 3.83214 1 3.83219 1C 3.83225 1 3.8323 1 3.83236 1C 3.83241 1 3.83247 1 3.83252 1C 3.83257 1 3.83263 1 3.83268 1C 3.83274 1 3.83279 1 3.83285 1C 3.8329 1 3.83296 1 3.83301 1C 3.83306 1 3.83312 1 3.83317 1C 3.83323 1 3.83328 1 3.83334 1C 3.83339 1 3.83344 1 3.8335 1C 3.83355 1 3.83361 1 3.83366 1C 3.83372 1 3.83377 1 3.83383 1C 3.83388 1 3.83393 1 3.83399 1C 3.83404 1 3.8341 1 3.83415 1C 3.83421 1 3.83426 1 3.83431 1C 3.83437 1 3.83442 1 3.83448 1C 3.83453 1 3.83459 1 3.83464 1C 3.83469 1 3.83475 1 3.8348 1C 3.83486 1 3.83491 1 3.83497 1C 3.83502 1 3.83508 1 3.83513 1C 3.83518 1 3.83524 1 3.83529 1C 3.83535 1 3.8354 1 3.83546 1C 3.83551 1 3.83556 1 3.83562 1C 3.83567 1 3.83573 1 3.83578 1C 3.83584 1 3.83589 1 3.83595 1C 3.836 1 3.83605 1 3.83611 1C 3.83616 1 3.83622 1 3.83627 1C 3.83633 1 3.83638 1 3.83643 1C 3.83649 1 3.83654 1 3.8366 1C 3.83665 1 3.83671 1 3.83676 1C 3.83682 1 3.83687 1 3.83692 1C 3.83698 1 3.83703 1 3.83709 1C 3.83714 1 3.8372 1 3.83725 1C 3.8373 1 3.83736 1 3.83741 1C 3.83747 1 3.83752 1 3.83758 1C 3.83763 1 3.83769 1 3.83774 1C 3.83779 1 3.83785 1 3.8379 1C 3.83796 1 3.83801 1 3.83807 1C 3.83812 1 3.83817 1 3.83823 1C 3.83828 1 3.83834 1 3.83839 1C 3.83845 1 3.8385 1 3.83856 1C 3.83861 1 3.83866 1 3.83872 1C 3.83877 1 3.83883 1 3.83888 1C 3.83894 1 3.83899 1 3.83904 1C 3.8391 1 3.83915 1 3.83921 1C 3.83926 1 3.83932 1 3.83937 1C 3.83943 1 3.83948 1 3.83953 1C 3.83959 1 3.83964 1 3.8397 1C 3.83975 1 3.83981 1 3.83986 1C 3.83992 1 3.83997 1 3.84002 1C 3.84008 1 3.84013 1 3.84019 1C 3.84024 1 3.8403 1 3.84035 1C 3.8404 1 3.84046 1 3.84051 1C 3.84057 1 3.84062 1 3.84068 1C 3.84073 1 3.84079 1 3.84084 1C 3.84089 1 3.84095 1 3.841 1C 3.84106 1 3.84111 1 3.84117 1C 3.84122 1 3.84127 1 3.84133 1C 3.84138 1 3.84144 1 3.84149 1C 3.84155 1 3.8416 1 3.84166 1C 3.84171 1 3.84176 1 3.84182 1C 3.84187 1 3.84193 1 3.84198 1C 3.84204 1 3.84209 1 3.84215 1C 3.8422 1 3.84225 1 3.84231 1C 3.84236 1 3.84242 1 3.84247 1C 3.84253 1 3.84258 1 3.84264 1C 3.84269 1 3.84274 1 3.8428 1C 3.84285 1 3.84291 1 3.84296 1C 3.84302 1 3.84307 1 3.84313 1C 3.84318 1 3.84323 1 3.84329 1C 3.84334 1 3.8434 1 3.84345 1C 3.84351 1 3.84356 1 3.84362 1C 3.84367 1 3.84372 1 3.84378 1C 3.84383 1 3.84389 1 3.84394 1C 3.844 1 3.84405 1 3.84411 1C 3.84416 1 3.84421 1 3.84427 1C 3.84432 1 3.84438 1 3.84443 1C 3.84449 1 3.84454 1 3.84459 1C 3.84465 1 3.8447 1 3.84476 1C 3.84481 1 3.84487 1 3.84492 1C 3.84498 1 3.84503 1 3.84508 1C 3.84514 1 3.84519 1 3.84525 1C 3.8453 1 3.84536 1 3.84541 1C 3.84547 1 3.84552 1 3.84558 1C 3.84563 1 3.84568 1 3.84574 1C 3.84579 1 3.84585 1 3.8459 1C 3.84596 1 3.84601 1 3.84607 1C 3.84612 1 3.84617 1 3.84623 1C 3.84628 1 3.84634 1 3.84639 1C 3.84645 1 3.8465 1 3.84656 1C 3.84661 1 3.84666 1 3.84672 1C 3.84677 1 3.84683 1 3.84688 1C 3.84694 1 3.84699 1 3.84705 1C 3.8471 1 3.84715 1 3.84721 1C 3.84726 1 3.84732 1 3.84737 1C 3.84743 1 3.84748 1 3.84754 1C 3.84759 1 3.84765 1 3.8477 1C 3.84775 1 3.84781 1 3.84786 1C 3.84792 1 3.84797 1 3.84803 1C 3.84808 1 3.84814 1 3.84819 1C 3.84824 1 3.8483 1 3.84835 1C 3.84841 1 3.84846 1 3.84852 1C 3.84857 1 3.84863 1 3.84868 1C 3.84874 1 3.84879 1 3.84884 1C 3.8489 1 3.84895 1 3.84901 1C 3.84906 1 3.84912 1 3.84917 1C 3.84923 1 3.84928 1 3.84933 1C 3.84939 1 3.84944 1 3.8495 1C 3.84955 1 3.84961 1 3.84966 1C 3.84972 1 3.84977 1 3.84983 1C 3.84988 1 3.84993 1 3.84999 1C 3.85004 1 3.8501 1 3.85015 1C 3.85021 1 3.85026 1 3.85032 1C 3.85037 1 3.85043 1 3.85048 1C 3.85053 1 3.85059 1 3.85064 1C 3.8507 1 3.85075 1 3.85081 1C 3.85086 1 3.85092 1 3.85097 1C 3.85103 1 3.85108 1 3.85113 1C 3.85119 1 3.85124 1 3.8513 1C 3.85135 1 3.85141 1 3.85146 1C 3.85152 1 3.85157 1 3.85163 1C 3.85168 1 3.85173 1 3.85179 1C 3.85184 1 3.8519 1 3.85195 1C 3.85201 1 3.85206 1 3.85212 1C 3.85217 1 3.85223 1 3.85228 1C 3.85234 1 3.85239 1 3.85244 1C 3.8525 1 3.85255 1 3.85261 1C 3.85266 1 3.85272 1 3.85277 1C 3.85283 1 3.85288 1 3.85294 1C 3.85299 1 3.85304 1 3.8531 1C 3.85315 1 3.85321 1 3.85326 1C 3.85332 1 3.85337 1 3.85343 1C 3.85348 1 3.85354 1 3.85359 1C 3.85365 1 3.8537 1 3.85375 1C 3.85381 1 3.85386 1 3.85392 1C 3.85397 1 3.85403 1 3.85408 1C 3.85414 1 3.85419 1 3.85425 1C 3.8543 1 3.85436 1 3.85441 1C 3.85447 1 3.85452 1 3.85457 1C 3.85463 1 3.85468 1 3.85474 1C 3.85479 1 3.85485 1 3.8549 1C 3.85496 1 3.85501 1 3.85507 1C 3.85512 1 3.85518 1 3.85523 1C 3.85528 1 3.85534 1 3.85539 1C 3.85545 1 3.8555 1 3.85556 1C 3.85561 1 3.85567 1 3.85572 1C 3.85578 1 3.85583 1 3.85589 1C 3.85594 1 3.856 1 3.85605 1C 3.8561 1 3.85616 1 3.85621 1C 3.85627 1 3.85632 1 3.85638 1C 3.85643 1 3.85649 1 3.85654 1C 3.8566 1 3.85665 1 3.85671 1C 3.85676 1 3.85682 1 3.85687 1C 3.85693 1 3.85698 1 3.85703 1C 3.85709 1 3.85714 1 3.8572 1C 3.85725 1 3.85731 1 3.85736 1C 3.85742 1 3.85747 1 3.85753 1C 3.85758 1 3.85764 1 3.85769 1C 3.85775 1 3.8578 1 3.85786 1C 3.85791 1 3.85796 1 3.85802 1C 3.85807 1 3.85813 1 3.85818 1C 3.85824 1 3.85829 1 3.85835 1C 3.8584 1 3.85846 1 3.85851 1C 3.85857 1 3.85862 1 3.85868 1C 3.85873 1 3.85879 1 3.85884 1C 3.8589 1 3.85895 1 3.859 1C 3.85906 1 3.85911 1 3.85917 1C 3.85922 1 3.85928 1 3.85933 1C 3.85939 1 3.85944 1 3.8595 1C 3.85955 1 3.85961 1 3.85966 1C 3.85972 1 3.85977 1 3.85983 1C 3.85988 1 3.85994 1 3.85999 1C 3.86005 1 3.8601 1 3.86015 1C 3.86021 1 3.86026 1 3.86032 1C 3.86037 1 3.86043 1 3.86048 1C 3.86054 1 3.86059 1 3.86065 1C 3.8607 1 3.86076 1 3.86081 1C 3.86087 1 3.86092 1 3.86098 1C 3.86103 1 3.86109 1 3.86114 1C 3.8612 1 3.86125 1 3.86131 1C 3.86136 1 3.86142 1 3.86147 1C 3.86153 1 3.86158 1 3.86163 1C 3.86169 1 3.86174 1 3.8618 1C 3.86185 1 3.86191 1 3.86196 1C 3.86202 1 3.86207 1 3.86213 1C 3.86218 1 3.86224 1 3.86229 1C 3.86235 1 3.8624 1 3.86246 1C 3.86251 1 3.86257 1 3.86262 1C 3.86268 1 3.86273 1 3.86279 1C 3.86284 1 3.8629 1 3.86295 1C 3.86301 1 3.86306 1 3.86312 1C 3.86317 1 3.86323 1 3.86328 1C 3.86334 1 3.86339 1 3.86345 1C 3.8635 1 3.86356 1 3.86361 1C 3.86366 1 3.86372 1 3.86377 1C 3.86383 1 3.86388 1 3.86394 1C 3.86399 1 3.86405 1 3.8641 1C 3.86416 1 3.86421 1 3.86427 1C 3.86432 1 3.86438 1 3.86443 1C 3.86449 1 3.86454 1 3.8646 1C 3.86465 1 3.86471 1 3.86476 1C 3.86482 1 3.86487 1 3.86493 1C 3.86498 1 3.86504 1 3.86509 1C 3.86515 1 3.8652 1 3.86526 1C 3.86531 1 3.86537 1 3.86542 1C 3.86548 1 3.86553 1 3.86559 1C 3.86564 1 3.8657 1 3.86575 1C 3.86581 1 3.86586 1 3.86592 1C 3.86597 1 3.86603 1 3.86608 1C 3.86614 1 3.86619 1 3.86625 1C 3.8663 1 3.86636 1 3.86641 1C 3.86647 1 3.86652 1 3.86658 1C 3.86663 1 3.86669 1 3.86674 1C 3.8668 1 3.86685 1 3.86691 1C 3.86696 1 3.86702 1 3.86707 1C 3.86713 1 3.86718 1 3.86724 1C 3.86729 1 3.86735 1 3.8674 1C 3.86746 1 3.86751 1 3.86757 1C 3.86762 1 3.86768 1 3.86773 1C 3.86779 1 3.86784 1 3.8679 1C 3.86795 1 3.86801 1 3.86806 1C 3.86812 1 3.86817 1 3.86823 1C 3.86828 1 3.86834 1 3.86839 1C 3.86845 1 3.8685 1 3.86856 1C 3.86861 1 3.86867 1 3.86872 1C 3.86878 1 3.86883 1 3.86889 1C 3.86894 1 3.869 1 3.86906 1C 3.86911 1 3.86917 1 3.86922 1C 3.86928 1 3.86933 1 3.86939 1C 3.86944 1 3.8695 1 3.86955 1C 3.86961 1 3.86966 1 3.86972 1C 3.86977 1 3.86983 1 3.86988 1C 3.86994 1 3.86999 1 3.87005 1C 3.8701 1 3.87016 1 3.87021 1C 3.87027 1 3.87032 1 3.87038 1C 3.87043 1 3.87049 1 3.87054 1C 3.8706 1 3.87065 1 3.87071 1C 3.87076 1 3.87082 1 3.87087 1C 3.87093 1 3.87098 1 3.87104 1C 3.8711 1 3.87115 1 3.87121 1C 3.87126 1 3.87132 1 3.87137 1C 3.87143 1 3.87148 1 3.87154 1C 3.87159 1 3.87165 1 3.8717 1C 3.87176 1 3.87181 1 3.87187 1C 3.87192 1 3.87198 1 3.87203 1C 3.87209 1 3.87214 1 3.8722 1C 3.87225 1 3.87231 1 3.87237 1C 3.87242 1 3.87248 1 3.87253 1C 3.87259 1 3.87264 1 3.8727 1C 3.87275 1 3.87281 1 3.87286 1C 3.87292 1 3.87297 1 3.87303 1C 3.87308 1 3.87314 1 3.87319 1C 3.87325 1 3.8733 1 3.87336 1C 3.87342 1 3.87347 1 3.87353 1C 3.87358 1 3.87364 1 3.87369 1C 3.87375 1 3.8738 1 3.87386 1C 3.87391 1 3.87397 1 3.87402 1L 3.87402 -1C 3.87397 -1 3.87391 -1 3.87386 -1C 3.8738 -1 3.87375 -1 3.87369 -1C 3.87364 -1 3.87358 -1 3.87353 -1C 3.87347 -1 3.87342 -1 3.87336 -1C 3.8733 -1 3.87325 -1 3.87319 -1C 3.87314 -1 3.87308 -1 3.87303 -1C 3.87297 -1 3.87292 -1 3.87286 -1C 3.87281 -1 3.87275 -1 3.8727 -1C 3.87264 -1 3.87259 -1 3.87253 -1C 3.87248 -1 3.87242 -1 3.87237 -1C 3.87231 -1 3.87225 -1 3.8722 -1C 3.87214 -1 3.87209 -1 3.87203 -1C 3.87198 -1 3.87192 -1 3.87187 -1C 3.87181 -1 3.87176 -1 3.8717 -1C 3.87165 -1 3.87159 -1 3.87154 -1C 3.87148 -1 3.87143 -1 3.87137 -1C 3.87132 -1 3.87126 -1 3.87121 -1C 3.87115 -1 3.8711 -1 3.87104 -1C 3.87098 -1 3.87093 -1 3.87087 -1C 3.87082 -1 3.87076 -1 3.87071 -1C 3.87065 -1 3.8706 -1 3.87054 -1C 3.87049 -1 3.87043 -1 3.87038 -1C 3.87032 -1 3.87027 -1 3.87021 -1C 3.87016 -1 3.8701 -1 3.87005 -1C 3.86999 -1 3.86994 -1 3.86988 -1C 3.86983 -1 3.86977 -1 3.86972 -1C 3.86966 -1 3.86961 -1 3.86955 -1C 3.8695 -1 3.86944 -1 3.86939 -1C 3.86933 -1 3.86928 -1 3.86922 -1C 3.86917 -1 3.86911 -1 3.86906 -1C 3.869 -1 3.86894 -1 3.86889 -1C 3.86883 -1 3.86878 -1 3.86872 -1C 3.86867 -1 3.86861 -1 3.86856 -1C 3.8685 -1 3.86845 -1 3.86839 -1C 3.86834 -1 3.86828 -1 3.86823 -1C 3.86817 -1 3.86812 -1 3.86806 -1C 3.86801 -1 3.86795 -1 3.8679 -1C 3.86784 -1 3.86779 -1 3.86773 -1C 3.86768 -1 3.86762 -1 3.86757 -1C 3.86751 -1 3.86746 -1 3.8674 -1C 3.86735 -1 3.86729 -1 3.86724 -1C 3.86718 -1 3.86713 -1 3.86707 -1C 3.86702 -1 3.86696 -1 3.86691 -1C 3.86685 -1 3.8668 -1 3.86674 -1C 3.86669 -1 3.86663 -1 3.86658 -1C 3.86652 -1 3.86647 -1 3.86641 -1C 3.86636 -1 3.8663 -1 3.86625 -1C 3.86619 -1 3.86614 -1 3.86608 -1C 3.86603 -1 3.86597 -1 3.86592 -1C 3.86586 -1 3.86581 -1 3.86575 -1C 3.8657 -1 3.86564 -1 3.86559 -1C 3.86553 -1 3.86548 -1 3.86542 -1C 3.86537 -1 3.86531 -1 3.86526 -1C 3.8652 -1 3.86515 -1 3.86509 -1C 3.86504 -1 3.86498 -1 3.86493 -1C 3.86487 -1 3.86482 -1 3.86476 -1C 3.86471 -1 3.86465 -1 3.8646 -1C 3.86454 -1 3.86449 -1 3.86443 -1C 3.86438 -1 3.86432 -1 3.86427 -1C 3.86421 -1 3.86416 -1 3.8641 -1C 3.86405 -1 3.86399 -1 3.86394 -1C 3.86388 -1 3.86383 -1 3.86377 -1C 3.86372 -1 3.86366 -1 3.86361 -1C 3.86356 -1 3.8635 -1 3.86345 -1C 3.86339 -1 3.86334 -1 3.86328 -1C 3.86323 -1 3.86317 -1 3.86312 -1C 3.86306 -1 3.86301 -1 3.86295 -1C 3.8629 -1 3.86284 -1 3.86279 -1C 3.86273 -1 3.86268 -1 3.86262 -1C 3.86257 -1 3.86251 -1 3.86246 -1C 3.8624 -1 3.86235 -1 3.86229 -1C 3.86224 -1 3.86218 -1 3.86213 -1C 3.86207 -1 3.86202 -1 3.86196 -1C 3.86191 -1 3.86185 -1 3.8618 -1C 3.86174 -1 3.86169 -1 3.86163 -1C 3.86158 -1 3.86153 -1 3.86147 -1C 3.86142 -1 3.86136 -1 3.86131 -1C 3.86125 -1 3.8612 -1 3.86114 -1C 3.86109 -1 3.86103 -1 3.86098 -1C 3.86092 -1 3.86087 -1 3.86081 -1C 3.86076 -1 3.8607 -1 3.86065 -1C 3.86059 -1 3.86054 -1 3.86048 -1C 3.86043 -1 3.86037 -1 3.86032 -1C 3.86026 -1 3.86021 -1 3.86015 -1C 3.8601 -1 3.86005 -1 3.85999 -1C 3.85994 -1 3.85988 -1 3.85983 -1C 3.85977 -1 3.85972 -1 3.85966 -1C 3.85961 -1 3.85955 -1 3.8595 -1C 3.85944 -1 3.85939 -1 3.85933 -1C 3.85928 -1 3.85922 -1 3.85917 -1C 3.85911 -1 3.85906 -1 3.859 -1C 3.85895 -1 3.8589 -1 3.85884 -1C 3.85879 -1 3.85873 -1 3.85868 -1C 3.85862 -1 3.85857 -1 3.85851 -1C 3.85846 -1 3.8584 -1 3.85835 -1C 3.85829 -1 3.85824 -1 3.85818 -1C 3.85813 -1 3.85807 -1 3.85802 -1C 3.85796 -1 3.85791 -1 3.85786 -1C 3.8578 -1 3.85775 -1 3.85769 -1C 3.85764 -1 3.85758 -1 3.85753 -1C 3.85747 -1 3.85742 -1 3.85736 -1C 3.85731 -1 3.85725 -1 3.8572 -1C 3.85714 -1 3.85709 -1 3.85703 -1C 3.85698 -1 3.85693 -1 3.85687 -1C 3.85682 -1 3.85676 -1 3.85671 -1C 3.85665 -1 3.8566 -1 3.85654 -1C 3.85649 -1 3.85643 -1 3.85638 -1C 3.85632 -1 3.85627 -1 3.85621 -1C 3.85616 -1 3.8561 -1 3.85605 -1C 3.856 -1 3.85594 -1 3.85589 -1C 3.85583 -1 3.85578 -1 3.85572 -1C 3.85567 -1 3.85561 -1 3.85556 -1C 3.8555 -1 3.85545 -1 3.85539 -1C 3.85534 -1 3.85528 -1 3.85523 -1C 3.85518 -1 3.85512 -1 3.85507 -1C 3.85501 -1 3.85496 -1 3.8549 -1C 3.85485 -1 3.85479 -1 3.85474 -1C 3.85468 -1 3.85463 -1 3.85457 -1C 3.85452 -1 3.85447 -1 3.85441 -1C 3.85436 -1 3.8543 -1 3.85425 -1C 3.85419 -1 3.85414 -1 3.85408 -1C 3.85403 -1 3.85397 -1 3.85392 -1C 3.85386 -1 3.85381 -1 3.85375 -1C 3.8537 -1 3.85365 -1 3.85359 -1C 3.85354 -1 3.85348 -1 3.85343 -1C 3.85337 -1 3.85332 -1 3.85326 -1C 3.85321 -1 3.85315 -1 3.8531 -1C 3.85304 -1 3.85299 -1 3.85294 -1C 3.85288 -1 3.85283 -1 3.85277 -1C 3.85272 -1 3.85266 -1 3.85261 -1C 3.85255 -1 3.8525 -1 3.85244 -1C 3.85239 -1 3.85234 -1 3.85228 -1C 3.85223 -1 3.85217 -1 3.85212 -1C 3.85206 -1 3.85201 -1 3.85195 -1C 3.8519 -1 3.85184 -1 3.85179 -1C 3.85173 -1 3.85168 -1 3.85163 -1C 3.85157 -1 3.85152 -1 3.85146 -1C 3.85141 -1 3.85135 -1 3.8513 -1C 3.85124 -1 3.85119 -1 3.85113 -1C 3.85108 -1 3.85103 -1 3.85097 -1C 3.85092 -1 3.85086 -1 3.85081 -1C 3.85075 -1 3.8507 -1 3.85064 -1C 3.85059 -1 3.85053 -1 3.85048 -1C 3.85043 -1 3.85037 -1 3.85032 -1C 3.85026 -1 3.85021 -1 3.85015 -1C 3.8501 -1 3.85004 -1 3.84999 -1C 3.84993 -1 3.84988 -1 3.84983 -1C 3.84977 -1 3.84972 -1 3.84966 -1C 3.84961 -1 3.84955 -1 3.8495 -1C 3.84944 -1 3.84939 -1 3.84933 -1C 3.84928 -1 3.84923 -1 3.84917 -1C 3.84912 -1 3.84906 -1 3.84901 -1C 3.84895 -1 3.8489 -1 3.84884 -1C 3.84879 -1 3.84874 -1 3.84868 -1C 3.84863 -1 3.84857 -1 3.84852 -1C 3.84846 -1 3.84841 -1 3.84835 -1C 3.8483 -1 3.84824 -1 3.84819 -1C 3.84814 -1 3.84808 -1 3.84803 -1C 3.84797 -1 3.84792 -1 3.84786 -1C 3.84781 -1 3.84775 -1 3.8477 -1C 3.84765 -1 3.84759 -1 3.84754 -1C 3.84748 -1 3.84743 -1 3.84737 -1C 3.84732 -1 3.84726 -1 3.84721 -1C 3.84715 -1 3.8471 -1 3.84705 -1C 3.84699 -1 3.84694 -1 3.84688 -1C 3.84683 -1 3.84677 -1 3.84672 -1C 3.84666 -1 3.84661 -1 3.84656 -1C 3.8465 -1 3.84645 -1 3.84639 -1C 3.84634 -1 3.84628 -1 3.84623 -1C 3.84617 -1 3.84612 -1 3.84607 -1C 3.84601 -1 3.84596 -1 3.8459 -1C 3.84585 -1 3.84579 -1 3.84574 -1C 3.84568 -1 3.84563 -1 3.84558 -1C 3.84552 -1 3.84547 -1 3.84541 -1C 3.84536 -1 3.8453 -1 3.84525 -1C 3.84519 -1 3.84514 -1 3.84508 -1C 3.84503 -1 3.84498 -1 3.84492 -1C 3.84487 -1 3.84481 -1 3.84476 -1C 3.8447 -1 3.84465 -1 3.84459 -1C 3.84454 -1 3.84449 -1 3.84443 -1C 3.84438 -1 3.84432 -1 3.84427 -1C 3.84421 -1 3.84416 -1 3.84411 -1C 3.84405 -1 3.844 -1 3.84394 -1C 3.84389 -1 3.84383 -1 3.84378 -1C 3.84372 -1 3.84367 -1 3.84362 -1C 3.84356 -1 3.84351 -1 3.84345 -1C 3.8434 -1 3.84334 -1 3.84329 -1C 3.84323 -1 3.84318 -1 3.84313 -1C 3.84307 -1 3.84302 -1 3.84296 -1C 3.84291 -1 3.84285 -1 3.8428 -1C 3.84274 -1 3.84269 -1 3.84264 -1C 3.84258 -1 3.84253 -1 3.84247 -1C 3.84242 -1 3.84236 -1 3.84231 -1C 3.84225 -1 3.8422 -1 3.84215 -1C 3.84209 -1 3.84204 -1 3.84198 -1C 3.84193 -1 3.84187 -1 3.84182 -1C 3.84176 -1 3.84171 -1 3.84166 -1C 3.8416 -1 3.84155 -1 3.84149 -1C 3.84144 -1 3.84138 -1 3.84133 -1C 3.84127 -1 3.84122 -1 3.84117 -1C 3.84111 -1 3.84106 -1 3.841 -1C 3.84095 -1 3.84089 -1 3.84084 -1C 3.84079 -1 3.84073 -1 3.84068 -1C 3.84062 -1 3.84057 -1 3.84051 -1C 3.84046 -1 3.8404 -1 3.84035 -1C 3.8403 -1 3.84024 -1 3.84019 -1C 3.84013 -1 3.84008 -1 3.84002 -1C 3.83997 -1 3.83992 -1 3.83986 -1C 3.83981 -1 3.83975 -1 3.8397 -1C 3.83964 -1 3.83959 -1 3.83953 -1C 3.83948 -1 3.83943 -1 3.83937 -1C 3.83932 -1 3.83926 -1 3.83921 -1C 3.83915 -1 3.8391 -1 3.83904 -1C 3.83899 -1 3.83894 -1 3.83888 -1C 3.83883 -1 3.83877 -1 3.83872 -1C 3.83866 -1 3.83861 -1 3.83856 -1C 3.8385 -1 3.83845 -1 3.83839 -1C 3.83834 -1 3.83828 -1 3.83823 -1C 3.83817 -1 3.83812 -1 3.83807 -1C 3.83801 -1 3.83796 -1 3.8379 -1C 3.83785 -1 3.83779 -1 3.83774 -1C 3.83769 -1 3.83763 -1 3.83758 -1C 3.83752 -1 3.83747 -1 3.83741 -1C 3.83736 -1 3.8373 -1 3.83725 -1C 3.8372 -1 3.83714 -1 3.83709 -1C 3.83703 -1 3.83698 -1 3.83692 -1C 3.83687 -1 3.83682 -1 3.83676 -1C 3.83671 -1 3.83665 -1 3.8366 -1C 3.83654 -1 3.83649 -1 3.83643 -1C 3.83638 -1 3.83633 -1 3.83627 -1C 3.83622 -1 3.83616 -1 3.83611 -1C 3.83605 -1 3.836 -1 3.83595 -1C 3.83589 -1 3.83584 -1 3.83578 -1C 3.83573 -1 3.83567 -1 3.83562 -1C 3.83556 -1 3.83551 -1 3.83546 -1C 3.8354 -1 3.83535 -1 3.83529 -1C 3.83524 -1 3.83518 -1 3.83513 -1C 3.83508 -1 3.83502 -1 3.83497 -1C 3.83491 -1 3.83486 -1 3.8348 -1C 3.83475 -1 3.83469 -1 3.83464 -1C 3.83459 -1 3.83453 -1 3.83448 -1C 3.83442 -1 3.83437 -1 3.83431 -1C 3.83426 -1 3.83421 -1 3.83415 -1C 3.8341 -1 3.83404 -1 3.83399 -1C 3.83393 -1 3.83388 -1 3.83383 -1C 3.83377 -1 3.83372 -1 3.83366 -1C 3.83361 -1 3.83355 -1 3.8335 -1C 3.83344 -1 3.83339 -1 3.83334 -1C 3.83328 -1 3.83323 -1 3.83317 -1C 3.83312 -1 3.83306 -1 3.83301 -1C 3.83296 -1 3.8329 -1 3.83285 -1C 3.83279 -1 3.83274 -1 3.83268 -1C 3.83263 -1 3.83257 -1 3.83252 -1C 3.83247 -1 3.83241 -1 3.83236 -1C 3.8323 -1 3.83225 -1 3.83219 -1C 3.83214 -1 3.83209 -1 3.83203 -1C 3.83198 -1 3.83192 -1 3.83187 -1C 3.83181 -1 3.83176 -1 3.83171 -1C 3.83165 -1 3.8316 -1 3.83154 -1C 3.83149 -1 3.83143 -1 3.83138 -1C 3.83132 -1 3.83127 -1 3.83122 -1C 3.83116 -1 3.83111 -1 3.83105 -1C 3.831 -1 3.83094 -1 3.83089 -1C 3.83084 -1 3.83078 -1 3.83073 -1C 3.83067 -1 3.83062 -1 3.83056 -1C 3.83051 -1 3.83045 -1 3.8304 -1C 3.83035 -1 3.83029 -1 3.83024 -1C 3.83018 -1 3.83013 -1 3.83007 -1C 3.83002 -1 3.82997 -1 3.82991 -1C 3.82986 -1 3.8298 -1 3.82975 -1C 3.82969 -1 3.82964 -1 3.82959 -1C 3.82953 -1 3.82948 -1 3.82942 -1C 3.82937 -1 3.82931 -1 3.82926 -1C 3.8292 -1 3.82915 -1 3.8291 -1C 3.82904 -1 3.82899 -1 3.82893 -1C 3.82888 -1 3.82882 -1 3.82877 -1C 3.82872 -1 3.82866 -1 3.82861 -1C 3.82855 -1 3.8285 -1 3.82844 -1C 3.82839 -1 3.82833 -1 3.82828 -1C 3.82823 -1 3.82817 -1 3.82812 -1C 3.82806 -1 3.82801 -1 3.82795 -1C 3.8279 -1 3.82785 -1 3.82779 -1C 3.82774 -1 3.82768 -1 3.82763 -1C 3.82757 -1 3.82752 -1 3.82746 -1C 3.82741 -1 3.82736 -1 3.8273 -1C 3.82725 -1 3.82719 -1 3.82714 -1C 3.82708 -1 3.82703 -1 3.82698 -1C 3.82692 -1 3.82687 -1 3.82681 -1C 3.82676 -1 3.8267 -1 3.82665 -1C 3.82659 -1 3.82654 -1 3.82649 -1C 3.82643 -1 3.82638 -1 3.82632 -1C 3.82627 -1 3.82621 -1 3.82616 -1C 3.82611 -1 3.82605 -1 3.826 -1C 3.82594 -1 3.82589 -1 3.82583 -1C 3.82578 -1 3.82572 -1 3.82567 -1C 3.82562 -1 3.82556 -1 3.82551 -1C 3.82545 -1 3.8254 -1 3.82534 -1C 3.82529 -1 3.82524 -1 3.82518 -1C 3.82513 -1 3.82507 -1 3.82502 -1C 3.82496 -1 3.82491 -1 3.82485 -1C 3.8248 -1 3.82475 -1 3.82469 -1C 3.82464 -1 3.82458 -1 3.82453 -1C 3.82447 -1 3.82442 -1 3.82437 -1C 3.82431 -1 3.82426 -1 3.8242 -1C 3.82415 -1 3.82409 -1 3.82404 -1C 3.82398 -1 3.82393 -1 3.82388 -1C 3.82382 -1 3.82377 -1 3.82371 -1C 3.82366 -1 3.8236 -1 3.82355 -1C 3.82349 -1 3.82344 -1 3.82339 -1C 3.82333 -1 3.82328 -1 3.82322 -1C 3.82317 -1 3.82311 -1 3.82306 -1C 3.82301 -1 3.82295 -1 3.8229 -1C 3.82284 -1 3.82279 -1 3.82273 -1C 3.82268 -1 3.82262 -1 3.82257 -1C 3.82252 -1 3.82246 -1 3.82241 -1C 3.82235 -1 3.8223 -1 3.82224 -1C 3.82219 -1 3.82213 -1 3.82208 -1C 3.82203 -1 3.82197 -1 3.82192 -1C 3.82186 -1 3.82181 -1 3.82175 -1C 3.8217 -1 3.82164 -1 3.82159 -1C 3.82154 -1 3.82148 -1 3.82143 -1C 3.82137 -1 3.82132 -1 3.82126 -1C 3.82121 -1 3.82116 -1 3.8211 -1C 3.82105 -1 3.82099 -1 3.82094 -1C 3.82088 -1 3.82083 -1 3.82077 -1C 3.82072 -1 3.82067 -1 3.82061 -1C 3.82056 -1 3.8205 -1 3.82045 -1C 3.82039 -1 3.82034 -1 3.82028 -1C 3.82023 -1 3.82018 -1 3.82012 -1C 3.82007 -1 3.82001 -1 3.81996 -1C 3.8199 -1 3.81985 -1 3.81979 -1C 3.81974 -1 3.81969 -1 3.81963 -1C 3.81958 -1 3.81952 -1 3.81947 -1C 3.81941 -1 3.81936 -1 3.8193 -1C 3.81925 -1 3.8192 -1 3.81914 -1C 3.81909 -1 3.81903 -1 3.81898 -1C 3.81892 -1 3.81887 -1 3.81881 -1C 3.81876 -1 3.81871 -1 3.81865 -1C 3.8186 -1 3.81854 -1 3.81849 -1C 3.81843 -1 3.81838 -1 3.81832 -1C 3.81827 -1 3.81822 -1 3.81816 -1C 3.81811 -1 3.81805 -1 3.818 -1C 3.81794 -1 3.81789 -1 3.81783 -1C 3.81778 -1 3.81772 -1 3.81767 -1C 3.81762 -1 3.81756 -1 3.81751 -1C 3.81745 -1 3.8174 -1 3.81734 -1C 3.81729 -1 3.81723 -1 3.81718 -1C 3.81713 -1 3.81707 -1 3.81702 -1C 3.81696 -1 3.81691 -1 3.81685 -1C 3.8168 -1 3.81674 -1 3.81669 -1C 3.81664 -1 3.81658 -1 3.81653 -1C 3.81647 -1 3.81642 -1 3.81636 -1C 3.81631 -1 3.81625 -1 3.8162 -1C 3.81614 -1 3.81609 -1 3.81604 -1C 3.81598 -1 3.81593 -1 3.81587 -1C 3.81582 -1 3.81576 -1 3.81571 -1C 3.81565 -1 3.8156 -1 3.81555 -1C 3.81549 -1 3.81544 -1 3.81538 -1C 3.81533 -1 3.81527 -1 3.81522 -1C 3.81516 -1 3.81511 -1 3.81505 -1C 3.815 -1 3.81495 -1 3.81489 -1C 3.81484 -1 3.81478 -1 3.81473 -1C 3.81467 -1 3.81462 -1 3.81456 -1C 3.81451 -1 3.81446 -1 3.8144 -1C 3.81435 -1 3.81429 -1 3.81424 -1C 3.81418 -1 3.81413 -1 3.81407 -1C 3.81402 -1 3.81396 -1 3.81391 -1C 3.81386 -1 3.8138 -1 3.81375 -1C 3.81369 -1 3.81364 -1 3.81358 -1C 3.81353 -1 3.81347 -1 3.81342 -1C 3.81336 -1 3.81331 -1 3.81326 -1C 3.8132 -1 3.81315 -1 3.81309 -1C 3.81304 -1 3.81298 -1 3.81293 -1C 3.81287 -1 3.81282 -1 3.81276 -1C 3.81271 -1 3.81265 -1 3.8126 -1C 3.81255 -1 3.81249 -1 3.81244 -1C 3.81238 -1 3.81233 -1 3.81227 -1C 3.81222 -1 3.81216 -1 3.81211 -1C 3.81205 -1 3.812 -1 3.81195 -1C 3.81189 -1 3.81184 -1 3.81178 -1C 3.81173 -1 3.81167 -1 3.81162 -1C 3.81156 -1 3.81151 -1 3.81145 -1C 3.8114 -1 3.81135 -1 3.81129 -1C 3.81124 -1 3.81118 -1 3.81113 -1C 3.81107 -1 3.81102 -1 3.81096 -1C 3.81091 -1 3.81085 -1 3.8108 -1C 3.81074 -1 3.81069 -1 3.81064 -1C 3.81058 -1 3.81053 -1 3.81047 -1C 3.81042 -1 3.81036 -1 3.81031 -1C 3.81025 -1 3.8102 -1 3.81014 -1C 3.81009 -1 3.81003 -1 3.80998 -1C 3.80993 -1 3.80987 -1 3.80982 -1C 3.80976 -1 3.80971 -1 3.80965 -1C 3.8096 -1 3.80954 -1 3.80949 -1C 3.80943 -1 3.80938 -1 3.80932 -1C 3.80927 -1 3.80922 -1 3.80916 -1C 3.80911 -1 3.80905 -1 3.809 -1C 3.80894 -1 3.80889 -1 3.80883 -1C 3.80878 -1 3.80872 -1 3.80867 -1C 3.80861 -1 3.80856 -1 3.8085 -1C 3.80845 -1 3.8084 -1 3.80834 -1C 3.80829 -1 3.80823 -1 3.80818 -1C 3.80812 -1 3.80807 -1 3.80801 -1C 3.80796 -1 3.8079 -1 3.80785 -1C 3.80779 -1 3.80774 -1 3.80768 -1C 3.80763 -1 3.80757 -1 3.80752 -1C 3.80747 -1 3.80741 -1 3.80736 -1C 3.8073 -1 3.80725 -1 3.80719 -1C 3.80714 -1 3.80708 -1 3.80703 -1C 3.80697 -1 3.80692 -1 3.80686 -1C 3.80681 -1 3.80675 -1 3.8067 -1C 3.80665 -1 3.80659 -1 3.80654 -1C 3.80648 -1 3.80643 -1 3.80637 -1C 3.80632 -1 3.80626 -1 3.80621 -1C 3.80615 -1 3.8061 -1 3.80604 -1C 3.80599 -1 3.80593 -1 3.80588 -1C 3.80582 -1 3.80577 -1 3.80571 -1C 3.80566 -1 3.80561 -1 3.80555 -1C 3.8055 -1 3.80544 -1 3.80539 -1C 3.80533 -1 3.80528 -1 3.80522 -1C 3.80517 -1 3.80511 -1 3.80506 -1C 3.805 -1 3.80495 -1 3.80489 -1C 3.80484 -1 3.80478 -1 3.80473 -1C 3.80467 -1 3.80462 -1 3.80457 -1C 3.80451 -1 3.80446 -1 3.8044 -1C 3.80435 -1 3.80429 -1 3.80424 -1C 3.80418 -1 3.80413 -1 3.80407 -1C 3.80402 -1 3.80396 -1 3.80391 -1C 3.80385 -1 3.8038 -1 3.80374 -1C 3.80369 -1 3.80363 -1 3.80358 -1C 3.80352 -1 3.80347 -1 3.80341 -1C 3.80336 -1 3.8033 -1 3.80325 -1C 3.8032 -1 3.80314 -1 3.80309 -1C 3.80303 -1 3.80298 -1 3.80292 -1C 3.80287 -1 3.80281 -1 3.80276 -1C 3.8027 -1 3.80265 -1 3.80259 -1C 3.80254 -1 3.80248 -1 3.80243 -1C 3.80237 -1 3.80232 -1 3.80226 -1C 3.80221 -1 3.80215 -1 3.8021 -1C 3.80204 -1 3.80199 -1 3.80193 -1C 3.80188 -1 3.80182 -1 3.80177 -1C 3.80171 -1 3.80166 -1 3.8016 -1C 3.80155 -1 3.8015 -1 3.80144 -1C 3.80139 -1 3.80133 -1 3.80128 -1C 3.80122 -1 3.80117 -1 3.80111 -1C 3.80106 -1 3.801 -1 3.80095 -1C 3.80089 -1 3.80084 -1 3.80078 -1C 3.80073 -1 3.80067 -1 3.80062 -1C 3.80056 -1 3.80051 -1 3.80045 -1C 3.8004 -1 3.80034 -1 3.80029 -1C 3.80023 -1 3.80018 -1 3.80012 -1C 3.80007 -1 3.80001 -1 3.79996 -1C 3.7999 -1 3.79985 -1 3.79979 -1C 3.79974 -1 3.79968 -1 3.79963 -1C 3.79957 -1 3.79952 -1 3.79946 -1C 3.79941 -1 3.79935 -1 3.7993 -1C 3.79924 -1 3.79919 -1 3.79913 -1C 3.79908 -1 3.79902 -1 3.79897 -1C 3.79891 -1 3.79886 -1 3.7988 -1C 3.79875 -1 3.79869 -1 3.79864 -1C 3.79858 -1 3.79853 -1 3.79847 -1C 3.79842 -1 3.79836 -1 3.79831 -1C 3.79825 -1 3.7982 -1 3.79815 -1C 3.79809 -1 3.79803 -1 3.79798 -1C 3.79792 -1 3.79787 -1 3.79782 -1C 3.79776 -1 3.7977 -1 3.79765 -1C 3.7976 -1 3.79754 -1 3.79749 -1C 3.79743 -1 3.79737 -1 3.79732 -1C 3.79727 -1 3.79721 -1 3.79715 -1C 3.7971 -1 3.79704 -1 3.79699 -1C 3.79693 -1 3.79688 -1 3.79682 -1C 3.79677 -1 3.79671 -1 3.79666 -1C 3.7966 -1 3.79655 -1 3.79649 -1C 3.79644 -1 3.79638 -1 3.79633 -1C 3.79627 -1 3.79622 -1 3.79616 -1C 3.79611 -1 3.79605 -1 3.796 -1C 3.79594 -1 3.79589 -1 3.79583 -1C 3.79578 -1 3.79572 -1 3.79567 -1C 3.79561 -1 3.79556 -1 3.7955 -1C 3.79545 -1 3.79539 -1 3.79534 -1C 3.79528 -1 3.79523 -1 3.79517 -1C 3.79512 -1 3.79506 -1 3.79501 -1C 3.79495 -1 3.7949 -1 3.79484 -1C 3.79479 -1 3.79473 -1 3.79468 -1C 3.79462 -1 3.79457 -1 3.79451 -1C 3.79446 -1 3.7944 -1 3.79435 -1C 3.79429 -1 3.79424 -1 3.79418 -1C 3.79413 -1 3.79407 -1 3.79402 -1C 3.79396 -1 3.79391 -1 3.79385 -1C 3.79379 -1 3.79374 -1 3.79368 -1C 3.79363 -1 3.79357 -1 3.79352 -1C 3.79346 -1 3.79341 -1 3.79335 -1C 3.7933 -1 3.79324 -1 3.79319 -1C 3.79313 -1 3.79308 -1 3.79302 -1C 3.79297 -1 3.79291 -1 3.79286 -1C 3.7928 -1 3.79275 -1 3.79269 -1C 3.79264 -1 3.79258 -1 3.79253 -1C 3.79247 -1 3.79242 -1 3.79236 -1C 3.7923 -1 3.79225 -1 3.79219 -1C 3.79214 -1 3.79208 -1 3.79203 -1C 3.79197 -1 3.79192 -1 3.79186 -1C 3.79181 -1 3.79175 -1 3.7917 -1C 3.79164 -1 3.79159 -1 3.79153 -1C 3.79148 -1 3.79142 -1 3.79137 -1C 3.79131 -1 3.79126 -1 3.7912 -1C 3.79114 -1 3.79109 -1 3.79103 -1C 3.79098 -1 3.79092 -1 3.79087 -1C 3.79081 -1 3.79076 -1 3.7907 -1C 3.79065 -1 3.79059 -1 3.79054 -1C 3.79048 -1 3.79043 -1 3.79037 -1C 3.79032 -1 3.79026 -1 3.79021 -1C 3.79015 -1 3.79009 -1 3.79004 -1L 3.79004 1ZM 3.87402 1L 12.126 1L 12.126 -1L 3.87402 -1L 3.87402 1ZM 12.126 1C 12.126 1 12.1261 1 12.1261 1C 12.1262 1 12.1263 1 12.1263 1C 12.1264 1 12.1264 1 12.1265 1C 12.1265 1 12.1266 1 12.1266 1C 12.1267 1 12.1268 1 12.1268 1C 12.1269 1 12.1269 1 12.127 1C 12.127 1 12.1271 1 12.1271 1C 12.1272 1 12.1272 1 12.1273 1C 12.1274 1 12.1274 1 12.1275 1C 12.1275 1 12.1276 1 12.1276 1C 12.1277 1 12.1277 1 12.1278 1C 12.1279 1 12.1279 1 12.128 1C 12.128 1 12.1281 1 12.1281 1C 12.1282 1 12.1282 1 12.1283 1C 12.1284 1 12.1284 1 12.1285 1C 12.1285 1 12.1286 1 12.1286 1C 12.1287 1 12.1287 1 12.1288 1C 12.1288 1 12.1289 1 12.129 1C 12.129 1 12.1291 1 12.1291 1C 12.1292 1 12.1292 1 12.1293 1C 12.1293 1 12.1294 1 12.1295 1C 12.1295 1 12.1296 1 12.1296 1C 12.1297 1 12.1297 1 12.1298 1C 12.1298 1 12.1299 1 12.13 1C 12.13 1 12.1301 1 12.1301 1C 12.1302 1 12.1302 1 12.1303 1C 12.1303 1 12.1304 1 12.1304 1C 12.1305 1 12.1306 1 12.1306 1C 12.1307 1 12.1307 1 12.1308 1C 12.1308 1 12.1309 1 12.1309 1C 12.131 1 12.1311 1 12.1311 1C 12.1312 1 12.1312 1 12.1313 1C 12.1313 1 12.1314 1 12.1314 1C 12.1315 1 12.1316 1 12.1316 1C 12.1317 1 12.1317 1 12.1318 1C 12.1318 1 12.1319 1 12.1319 1C 12.132 1 12.132 1 12.1321 1C 12.1322 1 12.1322 1 12.1323 1C 12.1323 1 12.1324 1 12.1324 1C 12.1325 1 12.1325 1 12.1326 1C 12.1327 1 12.1327 1 12.1328 1C 12.1328 1 12.1329 1 12.1329 1C 12.133 1 12.133 1 12.1331 1C 12.1331 1 12.1332 1 12.1333 1C 12.1333 1 12.1334 1 12.1334 1C 12.1335 1 12.1335 1 12.1336 1C 12.1336 1 12.1337 1 12.1338 1C 12.1338 1 12.1339 1 12.1339 1C 12.134 1 12.134 1 12.1341 1C 12.1341 1 12.1342 1 12.1342 1C 12.1343 1 12.1344 1 12.1344 1C 12.1345 1 12.1345 1 12.1346 1C 12.1346 1 12.1347 1 12.1347 1C 12.1348 1 12.1349 1 12.1349 1C 12.135 1 12.135 1 12.1351 1C 12.1351 1 12.1352 1 12.1352 1C 12.1353 1 12.1353 1 12.1354 1C 12.1355 1 12.1355 1 12.1356 1C 12.1356 1 12.1357 1 12.1357 1C 12.1358 1 12.1358 1 12.1359 1C 12.136 1 12.136 1 12.1361 1C 12.1361 1 12.1362 1 12.1362 1C 12.1363 1 12.1363 1 12.1364 1C 12.1364 1 12.1365 1 12.1366 1C 12.1366 1 12.1367 1 12.1367 1C 12.1368 1 12.1368 1 12.1369 1C 12.1369 1 12.137 1 12.137 1C 12.1371 1 12.1372 1 12.1372 1C 12.1373 1 12.1373 1 12.1374 1C 12.1374 1 12.1375 1 12.1375 1C 12.1376 1 12.1377 1 12.1377 1C 12.1378 1 12.1378 1 12.1379 1C 12.1379 1 12.138 1 12.138 1C 12.1381 1 12.1381 1 12.1382 1C 12.1383 1 12.1383 1 12.1384 1C 12.1384 1 12.1385 1 12.1385 1C 12.1386 1 12.1386 1 12.1387 1C 12.1387 1 12.1388 1 12.1389 1C 12.1389 1 12.139 1 12.139 1C 12.1391 1 12.1391 1 12.1392 1C 12.1392 1 12.1393 1 12.1394 1C 12.1394 1 12.1395 1 12.1395 1C 12.1396 1 12.1396 1 12.1397 1C 12.1397 1 12.1398 1 12.1398 1C 12.1399 1 12.14 1 12.14 1C 12.1401 1 12.1401 1 12.1402 1C 12.1402 1 12.1403 1 12.1403 1C 12.1404 1 12.1404 1 12.1405 1C 12.1406 1 12.1406 1 12.1407 1C 12.1407 1 12.1408 1 12.1408 1C 12.1409 1 12.1409 1 12.141 1C 12.1411 1 12.1411 1 12.1412 1C 12.1412 1 12.1413 1 12.1413 1C 12.1414 1 12.1414 1 12.1415 1C 12.1415 1 12.1416 1 12.1417 1C 12.1417 1 12.1418 1 12.1418 1C 12.1419 1 12.1419 1 12.142 1C 12.142 1 12.1421 1 12.1421 1C 12.1422 1 12.1423 1 12.1423 1C 12.1424 1 12.1424 1 12.1425 1C 12.1425 1 12.1426 1 12.1426 1C 12.1427 1 12.1427 1 12.1428 1C 12.1429 1 12.1429 1 12.143 1C 12.143 1 12.1431 1 12.1431 1C 12.1432 1 12.1432 1 12.1433 1C 12.1433 1 12.1434 1 12.1435 1C 12.1435 1 12.1436 1 12.1436 1C 12.1437 1 12.1437 1 12.1438 1C 12.1438 1 12.1439 1 12.144 1C 12.144 1 12.1441 1 12.1441 1C 12.1442 1 12.1442 1 12.1443 1C 12.1443 1 12.1444 1 12.1444 1C 12.1445 1 12.1446 1 12.1446 1C 12.1447 1 12.1447 1 12.1448 1C 12.1448 1 12.1449 1 12.1449 1C 12.145 1 12.145 1 12.1451 1C 12.1452 1 12.1452 1 12.1453 1C 12.1453 1 12.1454 1 12.1454 1C 12.1455 1 12.1455 1 12.1456 1C 12.1456 1 12.1457 1 12.1458 1C 12.1458 1 12.1459 1 12.1459 1C 12.146 1 12.146 1 12.1461 1C 12.1461 1 12.1462 1 12.1462 1C 12.1463 1 12.1464 1 12.1464 1C 12.1465 1 12.1465 1 12.1466 1C 12.1466 1 12.1467 1 12.1467 1C 12.1468 1 12.1468 1 12.1469 1C 12.147 1 12.147 1 12.1471 1C 12.1471 1 12.1472 1 12.1472 1C 12.1473 1 12.1473 1 12.1474 1C 12.1474 1 12.1475 1 12.1476 1C 12.1476 1 12.1477 1 12.1477 1C 12.1478 1 12.1478 1 12.1479 1C 12.1479 1 12.148 1 12.148 1C 12.1481 1 12.1482 1 12.1482 1C 12.1483 1 12.1483 1 12.1484 1C 12.1484 1 12.1485 1 12.1485 1C 12.1486 1 12.1486 1 12.1487 1C 12.1488 1 12.1488 1 12.1489 1C 12.1489 1 12.149 1 12.149 1C 12.1491 1 12.1491 1 12.1492 1C 12.1492 1 12.1493 1 12.1494 1C 12.1494 1 12.1495 1 12.1495 1C 12.1496 1 12.1496 1 12.1497 1C 12.1497 1 12.1498 1 12.1498 1C 12.1499 1 12.15 1 12.15 1C 12.1501 1 12.1501 1 12.1502 1C 12.1502 1 12.1503 1 12.1503 1C 12.1504 1 12.1504 1 12.1505 1C 12.1506 1 12.1506 1 12.1507 1C 12.1507 1 12.1508 1 12.1508 1C 12.1509 1 12.1509 1 12.151 1C 12.151 1 12.1511 1 12.1512 1C 12.1512 1 12.1513 1 12.1513 1C 12.1514 1 12.1514 1 12.1515 1C 12.1515 1 12.1516 1 12.1516 1C 12.1517 1 12.1518 1 12.1518 1C 12.1519 1 12.1519 1 12.152 1C 12.152 1 12.1521 1 12.1521 1C 12.1522 1 12.1522 1 12.1523 1C 12.1524 1 12.1524 1 12.1525 1C 12.1525 1 12.1526 1 12.1526 1C 12.1527 1 12.1527 1 12.1528 1C 12.1528 1 12.1529 1 12.153 1C 12.153 1 12.1531 1 12.1531 1C 12.1532 1 12.1532 1 12.1533 1C 12.1533 1 12.1534 1 12.1534 1C 12.1535 1 12.1536 1 12.1536 1C 12.1537 1 12.1537 1 12.1538 1C 12.1538 1 12.1539 1 12.1539 1C 12.154 1 12.154 1 12.1541 1C 12.1542 1 12.1542 1 12.1543 1C 12.1543 1 12.1544 1 12.1544 1C 12.1545 1 12.1545 1 12.1546 1C 12.1546 1 12.1547 1 12.1548 1C 12.1548 1 12.1549 1 12.1549 1C 12.155 1 12.155 1 12.1551 1C 12.1551 1 12.1552 1 12.1552 1C 12.1553 1 12.1554 1 12.1554 1C 12.1555 1 12.1555 1 12.1556 1C 12.1556 1 12.1557 1 12.1557 1C 12.1558 1 12.1558 1 12.1559 1C 12.1559 1 12.156 1 12.1561 1C 12.1561 1 12.1562 1 12.1562 1C 12.1563 1 12.1563 1 12.1564 1C 12.1564 1 12.1565 1 12.1565 1C 12.1566 1 12.1567 1 12.1567 1C 12.1568 1 12.1568 1 12.1569 1C 12.1569 1 12.157 1 12.157 1C 12.1571 1 12.1571 1 12.1572 1C 12.1573 1 12.1573 1 12.1574 1C 12.1574 1 12.1575 1 12.1575 1C 12.1576 1 12.1576 1 12.1577 1C 12.1577 1 12.1578 1 12.1579 1C 12.1579 1 12.158 1 12.158 1C 12.1581 1 12.1581 1 12.1582 1C 12.1582 1 12.1583 1 12.1583 1C 12.1584 1 12.1585 1 12.1585 1C 12.1586 1 12.1586 1 12.1587 1C 12.1587 1 12.1588 1 12.1588 1C 12.1589 1 12.1589 1 12.159 1C 12.1591 1 12.1591 1 12.1592 1C 12.1592 1 12.1593 1 12.1593 1C 12.1594 1 12.1594 1 12.1595 1C 12.1595 1 12.1596 1 12.1596 1C 12.1597 1 12.1598 1 12.1598 1C 12.1599 1 12.1599 1 12.16 1C 12.16 1 12.1601 1 12.1601 1C 12.1602 1 12.1602 1 12.1603 1C 12.1604 1 12.1604 1 12.1605 1C 12.1605 1 12.1606 1 12.1606 1C 12.1607 1 12.1607 1 12.1608 1C 12.1608 1 12.1609 1 12.161 1C 12.161 1 12.1611 1 12.1611 1C 12.1612 1 12.1612 1 12.1613 1C 12.1613 1 12.1614 1 12.1614 1C 12.1615 1 12.1616 1 12.1616 1C 12.1617 1 12.1617 1 12.1618 1C 12.1618 1 12.1619 1 12.1619 1C 12.162 1 12.162 1 12.1621 1C 12.1622 1 12.1622 1 12.1623 1C 12.1623 1 12.1624 1 12.1624 1C 12.1625 1 12.1625 1 12.1626 1C 12.1626 1 12.1627 1 12.1628 1C 12.1628 1 12.1629 1 12.1629 1C 12.163 1 12.163 1 12.1631 1C 12.1631 1 12.1632 1 12.1632 1C 12.1633 1 12.1633 1 12.1634 1C 12.1635 1 12.1635 1 12.1636 1C 12.1636 1 12.1637 1 12.1637 1C 12.1638 1 12.1638 1 12.1639 1C 12.1639 1 12.164 1 12.1641 1C 12.1641 1 12.1642 1 12.1642 1C 12.1643 1 12.1643 1 12.1644 1C 12.1644 1 12.1645 1 12.1645 1C 12.1646 1 12.1647 1 12.1647 1C 12.1648 1 12.1648 1 12.1649 1C 12.1649 1 12.165 1 12.165 1C 12.1651 1 12.1651 1 12.1652 1C 12.1653 1 12.1653 1 12.1654 1C 12.1654 1 12.1655 1 12.1655 1C 12.1656 1 12.1656 1 12.1657 1C 12.1657 1 12.1658 1 12.1658 1C 12.1659 1 12.166 1 12.166 1C 12.1661 1 12.1661 1 12.1662 1C 12.1662 1 12.1663 1 12.1663 1C 12.1664 1 12.1664 1 12.1665 1C 12.1666 1 12.1666 1 12.1667 1C 12.1667 1 12.1668 1 12.1668 1C 12.1669 1 12.1669 1 12.167 1C 12.167 1 12.1671 1 12.1672 1C 12.1672 1 12.1673 1 12.1673 1C 12.1674 1 12.1674 1 12.1675 1C 12.1675 1 12.1676 1 12.1676 1C 12.1677 1 12.1678 1 12.1678 1C 12.1679 1 12.1679 1 12.168 1C 12.168 1 12.1681 1 12.1681 1C 12.1682 1 12.1682 1 12.1683 1C 12.1683 1 12.1684 1 12.1685 1C 12.1685 1 12.1686 1 12.1686 1C 12.1687 1 12.1687 1 12.1688 1C 12.1688 1 12.1689 1 12.1689 1C 12.169 1 12.1691 1 12.1691 1C 12.1692 1 12.1692 1 12.1693 1C 12.1693 1 12.1694 1 12.1694 1C 12.1695 1 12.1695 1 12.1696 1C 12.1697 1 12.1697 1 12.1698 1C 12.1698 1 12.1699 1 12.1699 1C 12.17 1 12.17 1 12.1701 1C 12.1701 1 12.1702 1 12.1703 1C 12.1703 1 12.1704 1 12.1704 1C 12.1705 1 12.1705 1 12.1706 1C 12.1706 1 12.1707 1 12.1707 1C 12.1708 1 12.1708 1 12.1709 1C 12.171 1 12.171 1 12.1711 1C 12.1711 1 12.1712 1 12.1712 1C 12.1713 1 12.1713 1 12.1714 1C 12.1714 1 12.1715 1 12.1716 1C 12.1716 1 12.1717 1 12.1717 1C 12.1718 1 12.1718 1 12.1719 1C 12.1719 1 12.172 1 12.172 1C 12.1721 1 12.1722 1 12.1722 1C 12.1723 1 12.1723 1 12.1724 1C 12.1724 1 12.1725 1 12.1725 1C 12.1726 1 12.1726 1 12.1727 1C 12.1728 1 12.1728 1 12.1729 1C 12.1729 1 12.173 1 12.173 1C 12.1731 1 12.1731 1 12.1732 1C 12.1732 1 12.1733 1 12.1734 1C 12.1734 1 12.1735 1 12.1735 1C 12.1736 1 12.1736 1 12.1737 1C 12.1737 1 12.1738 1 12.1738 1C 12.1739 1 12.1739 1 12.174 1C 12.1741 1 12.1741 1 12.1742 1C 12.1742 1 12.1743 1 12.1743 1C 12.1744 1 12.1744 1 12.1745 1C 12.1745 1 12.1746 1 12.1747 1C 12.1747 1 12.1748 1 12.1748 1C 12.1749 1 12.1749 1 12.175 1C 12.175 1 12.1751 1 12.1751 1C 12.1752 1 12.1753 1 12.1753 1C 12.1754 1 12.1754 1 12.1755 1C 12.1755 1 12.1756 1 12.1756 1C 12.1757 1 12.1757 1 12.1758 1C 12.1759 1 12.1759 1 12.176 1C 12.176 1 12.1761 1 12.1761 1C 12.1762 1 12.1762 1 12.1763 1C 12.1763 1 12.1764 1 12.1765 1C 12.1765 1 12.1766 1 12.1766 1C 12.1767 1 12.1767 1 12.1768 1C 12.1768 1 12.1769 1 12.1769 1C 12.177 1 12.177 1 12.1771 1C 12.1772 1 12.1772 1 12.1773 1C 12.1773 1 12.1774 1 12.1774 1C 12.1775 1 12.1775 1 12.1776 1C 12.1776 1 12.1777 1 12.1778 1C 12.1778 1 12.1779 1 12.1779 1C 12.178 1 12.178 1 12.1781 1C 12.1781 1 12.1782 1 12.1782 1C 12.1783 1 12.1784 1 12.1784 1C 12.1785 1 12.1785 1 12.1786 1C 12.1786 1 12.1787 1 12.1787 1C 12.1788 1 12.1788 1 12.1789 1C 12.179 1 12.179 1 12.1791 1C 12.1791 1 12.1792 1 12.1792 1C 12.1793 1 12.1793 1 12.1794 1C 12.1794 1 12.1795 1 12.1796 1C 12.1796 1 12.1797 1 12.1797 1C 12.1798 1 12.1798 1 12.1799 1C 12.1799 1 12.18 1 12.18 1C 12.1801 1 12.1802 1 12.1802 1C 12.1803 1 12.1803 1 12.1804 1C 12.1804 1 12.1805 1 12.1805 1C 12.1806 1 12.1806 1 12.1807 1C 12.1807 1 12.1808 1 12.1809 1C 12.1809 1 12.181 1 12.181 1C 12.1811 1 12.1811 1 12.1812 1C 12.1812 1 12.1813 1 12.1813 1C 12.1814 1 12.1815 1 12.1815 1C 12.1816 1 12.1816 1 12.1817 1C 12.1817 1 12.1818 1 12.1818 1C 12.1819 1 12.1819 1 12.182 1C 12.1821 1 12.1821 1 12.1822 1C 12.1822 1 12.1823 1 12.1823 1C 12.1824 1 12.1824 1 12.1825 1C 12.1825 1 12.1826 1 12.1827 1C 12.1827 1 12.1828 1 12.1828 1C 12.1829 1 12.1829 1 12.183 1C 12.183 1 12.1831 1 12.1831 1C 12.1832 1 12.1833 1 12.1833 1C 12.1834 1 12.1834 1 12.1835 1C 12.1835 1 12.1836 1 12.1836 1C 12.1837 1 12.1837 1 12.1838 1C 12.1839 1 12.1839 1 12.184 1C 12.184 1 12.1841 1 12.1841 1C 12.1842 1 12.1842 1 12.1843 1C 12.1843 1 12.1844 1 12.1845 1C 12.1845 1 12.1846 1 12.1846 1C 12.1847 1 12.1847 1 12.1848 1C 12.1848 1 12.1849 1 12.1849 1C 12.185 1 12.1851 1 12.1851 1C 12.1852 1 12.1852 1 12.1853 1C 12.1853 1 12.1854 1 12.1854 1C 12.1855 1 12.1855 1 12.1856 1C 12.1857 1 12.1857 1 12.1858 1C 12.1858 1 12.1859 1 12.1859 1C 12.186 1 12.186 1 12.1861 1C 12.1861 1 12.1862 1 12.1863 1C 12.1863 1 12.1864 1 12.1864 1C 12.1865 1 12.1865 1 12.1866 1C 12.1866 1 12.1867 1 12.1867 1C 12.1868 1 12.1869 1 12.1869 1C 12.187 1 12.187 1 12.1871 1C 12.1871 1 12.1872 1 12.1872 1C 12.1873 1 12.1873 1 12.1874 1C 12.1875 1 12.1875 1 12.1876 1C 12.1876 1 12.1877 1 12.1877 1C 12.1878 1 12.1878 1 12.1879 1C 12.1879 1 12.188 1 12.1881 1C 12.1881 1 12.1882 1 12.1882 1C 12.1883 1 12.1883 1 12.1884 1C 12.1884 1 12.1885 1 12.1885 1C 12.1886 1 12.1887 1 12.1887 1C 12.1888 1 12.1888 1 12.1889 1C 12.1889 1 12.189 1 12.189 1C 12.1891 1 12.1891 1 12.1892 1C 12.1893 1 12.1893 1 12.1894 1C 12.1894 1 12.1895 1 12.1895 1C 12.1896 1 12.1896 1 12.1897 1C 12.1897 1 12.1898 1 12.1899 1C 12.1899 1 12.19 1 12.19 1C 12.1901 1 12.1901 1 12.1902 1C 12.1902 1 12.1903 1 12.1903 1C 12.1904 1 12.1905 1 12.1905 1C 12.1906 1 12.1906 1 12.1907 1C 12.1907 1 12.1908 1 12.1908 1C 12.1909 1 12.1909 1 12.191 1C 12.1911 1 12.1911 1 12.1912 1C 12.1912 1 12.1913 1 12.1913 1C 12.1914 1 12.1914 1 12.1915 1C 12.1916 1 12.1916 1 12.1917 1C 12.1917 1 12.1918 1 12.1918 1C 12.1919 1 12.1919 1 12.192 1C 12.192 1 12.1921 1 12.1922 1C 12.1922 1 12.1923 1 12.1923 1C 12.1924 1 12.1924 1 12.1925 1C 12.1925 1 12.1926 1 12.1926 1C 12.1927 1 12.1928 1 12.1928 1C 12.1929 1 12.1929 1 12.193 1C 12.193 1 12.1931 1 12.1931 1C 12.1932 1 12.1932 1 12.1933 1C 12.1934 1 12.1934 1 12.1935 1C 12.1935 1 12.1936 1 12.1936 1C 12.1937 1 12.1937 1 12.1938 1C 12.1938 1 12.1939 1 12.194 1C 12.194 1 12.1941 1 12.1941 1C 12.1942 1 12.1942 1 12.1943 1C 12.1943 1 12.1944 1 12.1944 1C 12.1945 1 12.1946 1 12.1946 1C 12.1947 1 12.1947 1 12.1948 1C 12.1948 1 12.1949 1 12.1949 1C 12.195 1 12.1951 1 12.1951 1C 12.1952 1 12.1952 1 12.1953 1C 12.1953 1 12.1954 1 12.1954 1C 12.1955 1 12.1955 1 12.1956 1C 12.1957 1 12.1957 1 12.1958 1C 12.1958 1 12.1959 1 12.1959 1C 12.196 1 12.196 1 12.1961 1C 12.1961 1 12.1962 1 12.1963 1C 12.1963 1 12.1964 1 12.1964 1C 12.1965 1 12.1965 1 12.1966 1C 12.1966 1 12.1967 1 12.1967 1C 12.1968 1 12.1969 1 12.1969 1C 12.197 1 12.197 1 12.1971 1C 12.1971 1 12.1972 1 12.1972 1C 12.1973 1 12.1974 1 12.1974 1C 12.1975 1 12.1975 1 12.1976 1C 12.1976 1 12.1977 1 12.1977 1C 12.1978 1 12.1978 1 12.1979 1C 12.198 1 12.198 1 12.1981 1C 12.1981 1 12.1982 1 12.1982 1C 12.1983 1 12.1983 1 12.1984 1C 12.1985 1 12.1985 1 12.1986 1C 12.1986 1 12.1987 1 12.1987 1C 12.1988 1 12.1988 1 12.1989 1C 12.1989 1 12.199 1 12.1991 1C 12.1991 1 12.1992 1 12.1992 1C 12.1993 1 12.1993 1 12.1994 1C 12.1994 1 12.1995 1 12.1995 1C 12.1996 1 12.1997 1 12.1997 1C 12.1998 1 12.1998 1 12.1999 1C 12.1999 1 12.2 1 12.2 1C 12.2001 1 12.2002 1 12.2002 1C 12.2003 1 12.2003 1 12.2004 1C 12.2004 1 12.2005 1 12.2005 1C 12.2006 1 12.2006 1 12.2007 1C 12.2008 1 12.2008 1 12.2009 1C 12.2009 1 12.201 1 12.201 1C 12.2011 1 12.2011 1 12.2012 1C 12.2013 1 12.2013 1 12.2014 1C 12.2014 1 12.2015 1 12.2015 1C 12.2016 1 12.2016 1 12.2017 1C 12.2017 1 12.2018 1 12.2019 1C 12.2019 1 12.202 1 12.202 1C 12.2021 1 12.2021 1 12.2022 1C 12.2022 1 12.2023 1 12.2023 1C 12.2024 1 12.2025 1 12.2025 1C 12.2026 1 12.2026 1 12.2027 1C 12.2027 1 12.2028 1 12.2028 1C 12.2029 1 12.203 1 12.203 1C 12.2031 1 12.2031 1 12.2032 1C 12.2032 1 12.2033 1 12.2033 1C 12.2034 1 12.2035 1 12.2035 1C 12.2036 1 12.2036 1 12.2037 1C 12.2037 1 12.2038 1 12.2038 1C 12.2039 1 12.2039 1 12.204 1C 12.2041 1 12.2041 1 12.2042 1C 12.2042 1 12.2043 1 12.2043 1C 12.2044 1 12.2044 1 12.2045 1C 12.2046 1 12.2046 1 12.2047 1C 12.2047 1 12.2048 1 12.2048 1C 12.2049 1 12.2049 1 12.205 1C 12.205 1 12.2051 1 12.2052 1C 12.2052 1 12.2053 1 12.2053 1C 12.2054 1 12.2054 1 12.2055 1C 12.2055 1 12.2056 1 12.2057 1C 12.2057 1 12.2058 1 12.2058 1C 12.2059 1 12.2059 1 12.206 1C 12.206 1 12.2061 1 12.2062 1C 12.2062 1 12.2063 1 12.2063 1C 12.2064 1 12.2064 1 12.2065 1C 12.2065 1 12.2066 1 12.2066 1C 12.2067 1 12.2068 1 12.2068 1C 12.2069 1 12.2069 1 12.207 1C 12.207 1 12.2071 1 12.2071 1C 12.2072 1 12.2073 1 12.2073 1C 12.2074 1 12.2074 1 12.2075 1C 12.2075 1 12.2076 1 12.2076 1C 12.2077 1 12.2078 1 12.2078 1C 12.2079 1 12.2079 1 12.208 1C 12.208 1 12.2081 1 12.2081 1C 12.2082 1 12.2082 1 12.2083 1C 12.2084 1 12.2084 1 12.2085 1C 12.2085 1 12.2086 1 12.2086 1C 12.2087 1 12.2087 1 12.2088 1C 12.2089 1 12.2089 1 12.209 1C 12.209 1 12.2091 1 12.2091 1C 12.2092 1 12.2092 1 12.2093 1C 12.2094 1 12.2094 1 12.2095 1C 12.2095 1 12.2096 1 12.2096 1C 12.2097 1 12.2097 1 12.2098 1C 12.2099 1 12.2099 1 12.21 1L 12.21 -1C 12.2099 -1 12.2099 -1 12.2098 -1C 12.2097 -1 12.2097 -1 12.2096 -1C 12.2096 -1 12.2095 -1 12.2095 -1C 12.2094 -1 12.2094 -1 12.2093 -1C 12.2092 -1 12.2092 -1 12.2091 -1C 12.2091 -1 12.209 -1 12.209 -1C 12.2089 -1 12.2089 -1 12.2088 -1C 12.2087 -1 12.2087 -1 12.2086 -1C 12.2086 -1 12.2085 -1 12.2085 -1C 12.2084 -1 12.2084 -1 12.2083 -1C 12.2082 -1 12.2082 -1 12.2081 -1C 12.2081 -1 12.208 -1 12.208 -1C 12.2079 -1 12.2079 -1 12.2078 -1C 12.2078 -1 12.2077 -1 12.2076 -1C 12.2076 -1 12.2075 -1 12.2075 -1C 12.2074 -1 12.2074 -1 12.2073 -1C 12.2073 -1 12.2072 -1 12.2071 -1C 12.2071 -1 12.207 -1 12.207 -1C 12.2069 -1 12.2069 -1 12.2068 -1C 12.2068 -1 12.2067 -1 12.2066 -1C 12.2066 -1 12.2065 -1 12.2065 -1C 12.2064 -1 12.2064 -1 12.2063 -1C 12.2063 -1 12.2062 -1 12.2062 -1C 12.2061 -1 12.206 -1 12.206 -1C 12.2059 -1 12.2059 -1 12.2058 -1C 12.2058 -1 12.2057 -1 12.2057 -1C 12.2056 -1 12.2055 -1 12.2055 -1C 12.2054 -1 12.2054 -1 12.2053 -1C 12.2053 -1 12.2052 -1 12.2052 -1C 12.2051 -1 12.205 -1 12.205 -1C 12.2049 -1 12.2049 -1 12.2048 -1C 12.2048 -1 12.2047 -1 12.2047 -1C 12.2046 -1 12.2046 -1 12.2045 -1C 12.2044 -1 12.2044 -1 12.2043 -1C 12.2043 -1 12.2042 -1 12.2042 -1C 12.2041 -1 12.2041 -1 12.204 -1C 12.2039 -1 12.2039 -1 12.2038 -1C 12.2038 -1 12.2037 -1 12.2037 -1C 12.2036 -1 12.2036 -1 12.2035 -1C 12.2035 -1 12.2034 -1 12.2033 -1C 12.2033 -1 12.2032 -1 12.2032 -1C 12.2031 -1 12.2031 -1 12.203 -1C 12.203 -1 12.2029 -1 12.2028 -1C 12.2028 -1 12.2027 -1 12.2027 -1C 12.2026 -1 12.2026 -1 12.2025 -1C 12.2025 -1 12.2024 -1 12.2023 -1C 12.2023 -1 12.2022 -1 12.2022 -1C 12.2021 -1 12.2021 -1 12.202 -1C 12.202 -1 12.2019 -1 12.2019 -1C 12.2018 -1 12.2017 -1 12.2017 -1C 12.2016 -1 12.2016 -1 12.2015 -1C 12.2015 -1 12.2014 -1 12.2014 -1C 12.2013 -1 12.2013 -1 12.2012 -1C 12.2011 -1 12.2011 -1 12.201 -1C 12.201 -1 12.2009 -1 12.2009 -1C 12.2008 -1 12.2008 -1 12.2007 -1C 12.2006 -1 12.2006 -1 12.2005 -1C 12.2005 -1 12.2004 -1 12.2004 -1C 12.2003 -1 12.2003 -1 12.2002 -1C 12.2002 -1 12.2001 -1 12.2 -1C 12.2 -1 12.1999 -1 12.1999 -1C 12.1998 -1 12.1998 -1 12.1997 -1C 12.1997 -1 12.1996 -1 12.1995 -1C 12.1995 -1 12.1994 -1 12.1994 -1C 12.1993 -1 12.1993 -1 12.1992 -1C 12.1992 -1 12.1991 -1 12.1991 -1C 12.199 -1 12.1989 -1 12.1989 -1C 12.1988 -1 12.1988 -1 12.1987 -1C 12.1987 -1 12.1986 -1 12.1986 -1C 12.1985 -1 12.1985 -1 12.1984 -1C 12.1983 -1 12.1983 -1 12.1982 -1C 12.1982 -1 12.1981 -1 12.1981 -1C 12.198 -1 12.198 -1 12.1979 -1C 12.1978 -1 12.1978 -1 12.1977 -1C 12.1977 -1 12.1976 -1 12.1976 -1C 12.1975 -1 12.1975 -1 12.1974 -1C 12.1974 -1 12.1973 -1 12.1972 -1C 12.1972 -1 12.1971 -1 12.1971 -1C 12.197 -1 12.197 -1 12.1969 -1C 12.1969 -1 12.1968 -1 12.1967 -1C 12.1967 -1 12.1966 -1 12.1966 -1C 12.1965 -1 12.1965 -1 12.1964 -1C 12.1964 -1 12.1963 -1 12.1963 -1C 12.1962 -1 12.1961 -1 12.1961 -1C 12.196 -1 12.196 -1 12.1959 -1C 12.1959 -1 12.1958 -1 12.1958 -1C 12.1957 -1 12.1957 -1 12.1956 -1C 12.1955 -1 12.1955 -1 12.1954 -1C 12.1954 -1 12.1953 -1 12.1953 -1C 12.1952 -1 12.1952 -1 12.1951 -1C 12.1951 -1 12.195 -1 12.1949 -1C 12.1949 -1 12.1948 -1 12.1948 -1C 12.1947 -1 12.1947 -1 12.1946 -1C 12.1946 -1 12.1945 -1 12.1944 -1C 12.1944 -1 12.1943 -1 12.1943 -1C 12.1942 -1 12.1942 -1 12.1941 -1C 12.1941 -1 12.194 -1 12.194 -1C 12.1939 -1 12.1938 -1 12.1938 -1C 12.1937 -1 12.1937 -1 12.1936 -1C 12.1936 -1 12.1935 -1 12.1935 -1C 12.1934 -1 12.1934 -1 12.1933 -1C 12.1932 -1 12.1932 -1 12.1931 -1C 12.1931 -1 12.193 -1 12.193 -1C 12.1929 -1 12.1929 -1 12.1928 -1C 12.1928 -1 12.1927 -1 12.1926 -1C 12.1926 -1 12.1925 -1 12.1925 -1C 12.1924 -1 12.1924 -1 12.1923 -1C 12.1923 -1 12.1922 -1 12.1922 -1C 12.1921 -1 12.192 -1 12.192 -1C 12.1919 -1 12.1919 -1 12.1918 -1C 12.1918 -1 12.1917 -1 12.1917 -1C 12.1916 -1 12.1916 -1 12.1915 -1C 12.1914 -1 12.1914 -1 12.1913 -1C 12.1913 -1 12.1912 -1 12.1912 -1C 12.1911 -1 12.1911 -1 12.191 -1C 12.1909 -1 12.1909 -1 12.1908 -1C 12.1908 -1 12.1907 -1 12.1907 -1C 12.1906 -1 12.1906 -1 12.1905 -1C 12.1905 -1 12.1904 -1 12.1903 -1C 12.1903 -1 12.1902 -1 12.1902 -1C 12.1901 -1 12.1901 -1 12.19 -1C 12.19 -1 12.1899 -1 12.1899 -1C 12.1898 -1 12.1897 -1 12.1897 -1C 12.1896 -1 12.1896 -1 12.1895 -1C 12.1895 -1 12.1894 -1 12.1894 -1C 12.1893 -1 12.1893 -1 12.1892 -1C 12.1891 -1 12.1891 -1 12.189 -1C 12.189 -1 12.1889 -1 12.1889 -1C 12.1888 -1 12.1888 -1 12.1887 -1C 12.1887 -1 12.1886 -1 12.1885 -1C 12.1885 -1 12.1884 -1 12.1884 -1C 12.1883 -1 12.1883 -1 12.1882 -1C 12.1882 -1 12.1881 -1 12.1881 -1C 12.188 -1 12.1879 -1 12.1879 -1C 12.1878 -1 12.1878 -1 12.1877 -1C 12.1877 -1 12.1876 -1 12.1876 -1C 12.1875 -1 12.1875 -1 12.1874 -1C 12.1873 -1 12.1873 -1 12.1872 -1C 12.1872 -1 12.1871 -1 12.1871 -1C 12.187 -1 12.187 -1 12.1869 -1C 12.1869 -1 12.1868 -1 12.1867 -1C 12.1867 -1 12.1866 -1 12.1866 -1C 12.1865 -1 12.1865 -1 12.1864 -1C 12.1864 -1 12.1863 -1 12.1863 -1C 12.1862 -1 12.1861 -1 12.1861 -1C 12.186 -1 12.186 -1 12.1859 -1C 12.1859 -1 12.1858 -1 12.1858 -1C 12.1857 -1 12.1857 -1 12.1856 -1C 12.1855 -1 12.1855 -1 12.1854 -1C 12.1854 -1 12.1853 -1 12.1853 -1C 12.1852 -1 12.1852 -1 12.1851 -1C 12.1851 -1 12.185 -1 12.1849 -1C 12.1849 -1 12.1848 -1 12.1848 -1C 12.1847 -1 12.1847 -1 12.1846 -1C 12.1846 -1 12.1845 -1 12.1845 -1C 12.1844 -1 12.1843 -1 12.1843 -1C 12.1842 -1 12.1842 -1 12.1841 -1C 12.1841 -1 12.184 -1 12.184 -1C 12.1839 -1 12.1839 -1 12.1838 -1C 12.1837 -1 12.1837 -1 12.1836 -1C 12.1836 -1 12.1835 -1 12.1835 -1C 12.1834 -1 12.1834 -1 12.1833 -1C 12.1833 -1 12.1832 -1 12.1831 -1C 12.1831 -1 12.183 -1 12.183 -1C 12.1829 -1 12.1829 -1 12.1828 -1C 12.1828 -1 12.1827 -1 12.1827 -1C 12.1826 -1 12.1825 -1 12.1825 -1C 12.1824 -1 12.1824 -1 12.1823 -1C 12.1823 -1 12.1822 -1 12.1822 -1C 12.1821 -1 12.1821 -1 12.182 -1C 12.1819 -1 12.1819 -1 12.1818 -1C 12.1818 -1 12.1817 -1 12.1817 -1C 12.1816 -1 12.1816 -1 12.1815 -1C 12.1815 -1 12.1814 -1 12.1813 -1C 12.1813 -1 12.1812 -1 12.1812 -1C 12.1811 -1 12.1811 -1 12.181 -1C 12.181 -1 12.1809 -1 12.1809 -1C 12.1808 -1 12.1807 -1 12.1807 -1C 12.1806 -1 12.1806 -1 12.1805 -1C 12.1805 -1 12.1804 -1 12.1804 -1C 12.1803 -1 12.1803 -1 12.1802 -1C 12.1802 -1 12.1801 -1 12.18 -1C 12.18 -1 12.1799 -1 12.1799 -1C 12.1798 -1 12.1798 -1 12.1797 -1C 12.1797 -1 12.1796 -1 12.1796 -1C 12.1795 -1 12.1794 -1 12.1794 -1C 12.1793 -1 12.1793 -1 12.1792 -1C 12.1792 -1 12.1791 -1 12.1791 -1C 12.179 -1 12.179 -1 12.1789 -1C 12.1788 -1 12.1788 -1 12.1787 -1C 12.1787 -1 12.1786 -1 12.1786 -1C 12.1785 -1 12.1785 -1 12.1784 -1C 12.1784 -1 12.1783 -1 12.1782 -1C 12.1782 -1 12.1781 -1 12.1781 -1C 12.178 -1 12.178 -1 12.1779 -1C 12.1779 -1 12.1778 -1 12.1778 -1C 12.1777 -1 12.1776 -1 12.1776 -1C 12.1775 -1 12.1775 -1 12.1774 -1C 12.1774 -1 12.1773 -1 12.1773 -1C 12.1772 -1 12.1772 -1 12.1771 -1C 12.177 -1 12.177 -1 12.1769 -1C 12.1769 -1 12.1768 -1 12.1768 -1C 12.1767 -1 12.1767 -1 12.1766 -1C 12.1766 -1 12.1765 -1 12.1765 -1C 12.1764 -1 12.1763 -1 12.1763 -1C 12.1762 -1 12.1762 -1 12.1761 -1C 12.1761 -1 12.176 -1 12.176 -1C 12.1759 -1 12.1759 -1 12.1758 -1C 12.1757 -1 12.1757 -1 12.1756 -1C 12.1756 -1 12.1755 -1 12.1755 -1C 12.1754 -1 12.1754 -1 12.1753 -1C 12.1753 -1 12.1752 -1 12.1751 -1C 12.1751 -1 12.175 -1 12.175 -1C 12.1749 -1 12.1749 -1 12.1748 -1C 12.1748 -1 12.1747 -1 12.1747 -1C 12.1746 -1 12.1745 -1 12.1745 -1C 12.1744 -1 12.1744 -1 12.1743 -1C 12.1743 -1 12.1742 -1 12.1742 -1C 12.1741 -1 12.1741 -1 12.174 -1C 12.1739 -1 12.1739 -1 12.1738 -1C 12.1738 -1 12.1737 -1 12.1737 -1C 12.1736 -1 12.1736 -1 12.1735 -1C 12.1735 -1 12.1734 -1 12.1734 -1C 12.1733 -1 12.1732 -1 12.1732 -1C 12.1731 -1 12.1731 -1 12.173 -1C 12.173 -1 12.1729 -1 12.1729 -1C 12.1728 -1 12.1728 -1 12.1727 -1C 12.1726 -1 12.1726 -1 12.1725 -1C 12.1725 -1 12.1724 -1 12.1724 -1C 12.1723 -1 12.1723 -1 12.1722 -1C 12.1722 -1 12.1721 -1 12.172 -1C 12.172 -1 12.1719 -1 12.1719 -1C 12.1718 -1 12.1718 -1 12.1717 -1C 12.1717 -1 12.1716 -1 12.1716 -1C 12.1715 -1 12.1714 -1 12.1714 -1C 12.1713 -1 12.1713 -1 12.1712 -1C 12.1712 -1 12.1711 -1 12.1711 -1C 12.171 -1 12.171 -1 12.1709 -1C 12.1708 -1 12.1708 -1 12.1707 -1C 12.1707 -1 12.1706 -1 12.1706 -1C 12.1705 -1 12.1705 -1 12.1704 -1C 12.1704 -1 12.1703 -1 12.1703 -1C 12.1702 -1 12.1701 -1 12.1701 -1C 12.17 -1 12.17 -1 12.1699 -1C 12.1699 -1 12.1698 -1 12.1698 -1C 12.1697 -1 12.1697 -1 12.1696 -1C 12.1695 -1 12.1695 -1 12.1694 -1C 12.1694 -1 12.1693 -1 12.1693 -1C 12.1692 -1 12.1692 -1 12.1691 -1C 12.1691 -1 12.169 -1 12.1689 -1C 12.1689 -1 12.1688 -1 12.1688 -1C 12.1687 -1 12.1687 -1 12.1686 -1C 12.1686 -1 12.1685 -1 12.1685 -1C 12.1684 -1 12.1683 -1 12.1683 -1C 12.1682 -1 12.1682 -1 12.1681 -1C 12.1681 -1 12.168 -1 12.168 -1C 12.1679 -1 12.1679 -1 12.1678 -1C 12.1678 -1 12.1677 -1 12.1676 -1C 12.1676 -1 12.1675 -1 12.1675 -1C 12.1674 -1 12.1674 -1 12.1673 -1C 12.1673 -1 12.1672 -1 12.1672 -1C 12.1671 -1 12.167 -1 12.167 -1C 12.1669 -1 12.1669 -1 12.1668 -1C 12.1668 -1 12.1667 -1 12.1667 -1C 12.1666 -1 12.1666 -1 12.1665 -1C 12.1664 -1 12.1664 -1 12.1663 -1C 12.1663 -1 12.1662 -1 12.1662 -1C 12.1661 -1 12.1661 -1 12.166 -1C 12.166 -1 12.1659 -1 12.1658 -1C 12.1658 -1 12.1657 -1 12.1657 -1C 12.1656 -1 12.1656 -1 12.1655 -1C 12.1655 -1 12.1654 -1 12.1654 -1C 12.1653 -1 12.1653 -1 12.1652 -1C 12.1651 -1 12.1651 -1 12.165 -1C 12.165 -1 12.1649 -1 12.1649 -1C 12.1648 -1 12.1648 -1 12.1647 -1C 12.1647 -1 12.1646 -1 12.1645 -1C 12.1645 -1 12.1644 -1 12.1644 -1C 12.1643 -1 12.1643 -1 12.1642 -1C 12.1642 -1 12.1641 -1 12.1641 -1C 12.164 -1 12.1639 -1 12.1639 -1C 12.1638 -1 12.1638 -1 12.1637 -1C 12.1637 -1 12.1636 -1 12.1636 -1C 12.1635 -1 12.1635 -1 12.1634 -1C 12.1633 -1 12.1633 -1 12.1632 -1C 12.1632 -1 12.1631 -1 12.1631 -1C 12.163 -1 12.163 -1 12.1629 -1C 12.1629 -1 12.1628 -1 12.1628 -1C 12.1627 -1 12.1626 -1 12.1626 -1C 12.1625 -1 12.1625 -1 12.1624 -1C 12.1624 -1 12.1623 -1 12.1623 -1C 12.1622 -1 12.1622 -1 12.1621 -1C 12.162 -1 12.162 -1 12.1619 -1C 12.1619 -1 12.1618 -1 12.1618 -1C 12.1617 -1 12.1617 -1 12.1616 -1C 12.1616 -1 12.1615 -1 12.1614 -1C 12.1614 -1 12.1613 -1 12.1613 -1C 12.1612 -1 12.1612 -1 12.1611 -1C 12.1611 -1 12.161 -1 12.161 -1C 12.1609 -1 12.1608 -1 12.1608 -1C 12.1607 -1 12.1607 -1 12.1606 -1C 12.1606 -1 12.1605 -1 12.1605 -1C 12.1604 -1 12.1604 -1 12.1603 -1C 12.1602 -1 12.1602 -1 12.1601 -1C 12.1601 -1 12.16 -1 12.16 -1C 12.1599 -1 12.1599 -1 12.1598 -1C 12.1598 -1 12.1597 -1 12.1596 -1C 12.1596 -1 12.1595 -1 12.1595 -1C 12.1594 -1 12.1594 -1 12.1593 -1C 12.1593 -1 12.1592 -1 12.1592 -1C 12.1591 -1 12.1591 -1 12.159 -1C 12.1589 -1 12.1589 -1 12.1588 -1C 12.1588 -1 12.1587 -1 12.1587 -1C 12.1586 -1 12.1586 -1 12.1585 -1C 12.1585 -1 12.1584 -1 12.1583 -1C 12.1583 -1 12.1582 -1 12.1582 -1C 12.1581 -1 12.1581 -1 12.158 -1C 12.158 -1 12.1579 -1 12.1579 -1C 12.1578 -1 12.1577 -1 12.1577 -1C 12.1576 -1 12.1576 -1 12.1575 -1C 12.1575 -1 12.1574 -1 12.1574 -1C 12.1573 -1 12.1573 -1 12.1572 -1C 12.1571 -1 12.1571 -1 12.157 -1C 12.157 -1 12.1569 -1 12.1569 -1C 12.1568 -1 12.1568 -1 12.1567 -1C 12.1567 -1 12.1566 -1 12.1565 -1C 12.1565 -1 12.1564 -1 12.1564 -1C 12.1563 -1 12.1563 -1 12.1562 -1C 12.1562 -1 12.1561 -1 12.1561 -1C 12.156 -1 12.1559 -1 12.1559 -1C 12.1558 -1 12.1558 -1 12.1557 -1C 12.1557 -1 12.1556 -1 12.1556 -1C 12.1555 -1 12.1555 -1 12.1554 -1C 12.1554 -1 12.1553 -1 12.1552 -1C 12.1552 -1 12.1551 -1 12.1551 -1C 12.155 -1 12.155 -1 12.1549 -1C 12.1549 -1 12.1548 -1 12.1548 -1C 12.1547 -1 12.1546 -1 12.1546 -1C 12.1545 -1 12.1545 -1 12.1544 -1C 12.1544 -1 12.1543 -1 12.1543 -1C 12.1542 -1 12.1542 -1 12.1541 -1C 12.154 -1 12.154 -1 12.1539 -1C 12.1539 -1 12.1538 -1 12.1538 -1C 12.1537 -1 12.1537 -1 12.1536 -1C 12.1536 -1 12.1535 -1 12.1534 -1C 12.1534 -1 12.1533 -1 12.1533 -1C 12.1532 -1 12.1532 -1 12.1531 -1C 12.1531 -1 12.153 -1 12.153 -1C 12.1529 -1 12.1528 -1 12.1528 -1C 12.1527 -1 12.1527 -1 12.1526 -1C 12.1526 -1 12.1525 -1 12.1525 -1C 12.1524 -1 12.1524 -1 12.1523 -1C 12.1522 -1 12.1522 -1 12.1521 -1C 12.1521 -1 12.152 -1 12.152 -1C 12.1519 -1 12.1519 -1 12.1518 -1C 12.1518 -1 12.1517 -1 12.1516 -1C 12.1516 -1 12.1515 -1 12.1515 -1C 12.1514 -1 12.1514 -1 12.1513 -1C 12.1513 -1 12.1512 -1 12.1512 -1C 12.1511 -1 12.151 -1 12.151 -1C 12.1509 -1 12.1509 -1 12.1508 -1C 12.1508 -1 12.1507 -1 12.1507 -1C 12.1506 -1 12.1506 -1 12.1505 -1C 12.1504 -1 12.1504 -1 12.1503 -1C 12.1503 -1 12.1502 -1 12.1502 -1C 12.1501 -1 12.1501 -1 12.15 -1C 12.15 -1 12.1499 -1 12.1498 -1C 12.1498 -1 12.1497 -1 12.1497 -1C 12.1496 -1 12.1496 -1 12.1495 -1C 12.1495 -1 12.1494 -1 12.1494 -1C 12.1493 -1 12.1492 -1 12.1492 -1C 12.1491 -1 12.1491 -1 12.149 -1C 12.149 -1 12.1489 -1 12.1489 -1C 12.1488 -1 12.1488 -1 12.1487 -1C 12.1486 -1 12.1486 -1 12.1485 -1C 12.1485 -1 12.1484 -1 12.1484 -1C 12.1483 -1 12.1483 -1 12.1482 -1C 12.1482 -1 12.1481 -1 12.148 -1C 12.148 -1 12.1479 -1 12.1479 -1C 12.1478 -1 12.1478 -1 12.1477 -1C 12.1477 -1 12.1476 -1 12.1476 -1C 12.1475 -1 12.1474 -1 12.1474 -1C 12.1473 -1 12.1473 -1 12.1472 -1C 12.1472 -1 12.1471 -1 12.1471 -1C 12.147 -1 12.147 -1 12.1469 -1C 12.1468 -1 12.1468 -1 12.1467 -1C 12.1467 -1 12.1466 -1 12.1466 -1C 12.1465 -1 12.1465 -1 12.1464 -1C 12.1464 -1 12.1463 -1 12.1462 -1C 12.1462 -1 12.1461 -1 12.1461 -1C 12.146 -1 12.146 -1 12.1459 -1C 12.1459 -1 12.1458 -1 12.1458 -1C 12.1457 -1 12.1456 -1 12.1456 -1C 12.1455 -1 12.1455 -1 12.1454 -1C 12.1454 -1 12.1453 -1 12.1453 -1C 12.1452 -1 12.1452 -1 12.1451 -1C 12.145 -1 12.145 -1 12.1449 -1C 12.1449 -1 12.1448 -1 12.1448 -1C 12.1447 -1 12.1447 -1 12.1446 -1C 12.1446 -1 12.1445 -1 12.1444 -1C 12.1444 -1 12.1443 -1 12.1443 -1C 12.1442 -1 12.1442 -1 12.1441 -1C 12.1441 -1 12.144 -1 12.144 -1C 12.1439 -1 12.1438 -1 12.1438 -1C 12.1437 -1 12.1437 -1 12.1436 -1C 12.1436 -1 12.1435 -1 12.1435 -1C 12.1434 -1 12.1433 -1 12.1433 -1C 12.1432 -1 12.1432 -1 12.1431 -1C 12.1431 -1 12.143 -1 12.143 -1C 12.1429 -1 12.1429 -1 12.1428 -1C 12.1427 -1 12.1427 -1 12.1426 -1C 12.1426 -1 12.1425 -1 12.1425 -1C 12.1424 -1 12.1424 -1 12.1423 -1C 12.1423 -1 12.1422 -1 12.1421 -1C 12.1421 -1 12.142 -1 12.142 -1C 12.1419 -1 12.1419 -1 12.1418 -1C 12.1418 -1 12.1417 -1 12.1417 -1C 12.1416 -1 12.1415 -1 12.1415 -1C 12.1414 -1 12.1414 -1 12.1413 -1C 12.1413 -1 12.1412 -1 12.1412 -1C 12.1411 -1 12.1411 -1 12.141 -1C 12.1409 -1 12.1409 -1 12.1408 -1C 12.1408 -1 12.1407 -1 12.1407 -1C 12.1406 -1 12.1406 -1 12.1405 -1C 12.1404 -1 12.1404 -1 12.1403 -1C 12.1403 -1 12.1402 -1 12.1402 -1C 12.1401 -1 12.1401 -1 12.14 -1C 12.14 -1 12.1399 -1 12.1398 -1C 12.1398 -1 12.1397 -1 12.1397 -1C 12.1396 -1 12.1396 -1 12.1395 -1C 12.1395 -1 12.1394 -1 12.1394 -1C 12.1393 -1 12.1392 -1 12.1392 -1C 12.1391 -1 12.1391 -1 12.139 -1C 12.139 -1 12.1389 -1 12.1389 -1C 12.1388 -1 12.1387 -1 12.1387 -1C 12.1386 -1 12.1386 -1 12.1385 -1C 12.1385 -1 12.1384 -1 12.1384 -1C 12.1383 -1 12.1383 -1 12.1382 -1C 12.1381 -1 12.1381 -1 12.138 -1C 12.138 -1 12.1379 -1 12.1379 -1C 12.1378 -1 12.1378 -1 12.1377 -1C 12.1377 -1 12.1376 -1 12.1375 -1C 12.1375 -1 12.1374 -1 12.1374 -1C 12.1373 -1 12.1373 -1 12.1372 -1C 12.1372 -1 12.1371 -1 12.137 -1C 12.137 -1 12.1369 -1 12.1369 -1C 12.1368 -1 12.1368 -1 12.1367 -1C 12.1367 -1 12.1366 -1 12.1366 -1C 12.1365 -1 12.1364 -1 12.1364 -1C 12.1363 -1 12.1363 -1 12.1362 -1C 12.1362 -1 12.1361 -1 12.1361 -1C 12.136 -1 12.136 -1 12.1359 -1C 12.1358 -1 12.1358 -1 12.1357 -1C 12.1357 -1 12.1356 -1 12.1356 -1C 12.1355 -1 12.1355 -1 12.1354 -1C 12.1353 -1 12.1353 -1 12.1352 -1C 12.1352 -1 12.1351 -1 12.1351 -1C 12.135 -1 12.135 -1 12.1349 -1C 12.1349 -1 12.1348 -1 12.1347 -1C 12.1347 -1 12.1346 -1 12.1346 -1C 12.1345 -1 12.1345 -1 12.1344 -1C 12.1344 -1 12.1343 -1 12.1342 -1C 12.1342 -1 12.1341 -1 12.1341 -1C 12.134 -1 12.134 -1 12.1339 -1C 12.1339 -1 12.1338 -1 12.1338 -1C 12.1337 -1 12.1336 -1 12.1336 -1C 12.1335 -1 12.1335 -1 12.1334 -1C 12.1334 -1 12.1333 -1 12.1333 -1C 12.1332 -1 12.1331 -1 12.1331 -1C 12.133 -1 12.133 -1 12.1329 -1C 12.1329 -1 12.1328 -1 12.1328 -1C 12.1327 -1 12.1327 -1 12.1326 -1C 12.1325 -1 12.1325 -1 12.1324 -1C 12.1324 -1 12.1323 -1 12.1323 -1C 12.1322 -1 12.1322 -1 12.1321 -1C 12.132 -1 12.132 -1 12.1319 -1C 12.1319 -1 12.1318 -1 12.1318 -1C 12.1317 -1 12.1317 -1 12.1316 -1C 12.1316 -1 12.1315 -1 12.1314 -1C 12.1314 -1 12.1313 -1 12.1313 -1C 12.1312 -1 12.1312 -1 12.1311 -1C 12.1311 -1 12.131 -1 12.1309 -1C 12.1309 -1 12.1308 -1 12.1308 -1C 12.1307 -1 12.1307 -1 12.1306 -1C 12.1306 -1 12.1305 -1 12.1304 -1C 12.1304 -1 12.1303 -1 12.1303 -1C 12.1302 -1 12.1302 -1 12.1301 -1C 12.1301 -1 12.13 -1 12.13 -1C 12.1299 -1 12.1298 -1 12.1298 -1C 12.1297 -1 12.1297 -1 12.1296 -1C 12.1296 -1 12.1295 -1 12.1295 -1C 12.1294 -1 12.1293 -1 12.1293 -1C 12.1292 -1 12.1292 -1 12.1291 -1C 12.1291 -1 12.129 -1 12.129 -1C 12.1289 -1 12.1288 -1 12.1288 -1C 12.1287 -1 12.1287 -1 12.1286 -1C 12.1286 -1 12.1285 -1 12.1285 -1C 12.1284 -1 12.1284 -1 12.1283 -1C 12.1282 -1 12.1282 -1 12.1281 -1C 12.1281 -1 12.128 -1 12.128 -1C 12.1279 -1 12.1279 -1 12.1278 -1C 12.1277 -1 12.1277 -1 12.1276 -1C 12.1276 -1 12.1275 -1 12.1275 -1C 12.1274 -1 12.1274 -1 12.1273 -1C 12.1272 -1 12.1272 -1 12.1271 -1C 12.1271 -1 12.127 -1 12.127 -1C 12.1269 -1 12.1269 -1 12.1268 -1C 12.1268 -1 12.1267 -1 12.1266 -1C 12.1266 -1 12.1265 -1 12.1265 -1C 12.1264 -1 12.1264 -1 12.1263 -1C 12.1263 -1 12.1262 -1 12.1261 -1C 12.1261 -1 12.126 -1 12.126 -1L 12.126 1ZM 12.21 1L 13 1L 13 -1L 12.21 -1L 12.21 1ZM 13 1C 14.1049 1 15 1.89506 15 3L 17 3C 17 0.790489 15.2095 -1 13 -1L 13 1ZM 15 3L 15 9L 17 9L 17 3L 15 3ZM 15 9C 15 10.1049 14.1049 11 13 11L 13 13C 15.2095 13 17 11.2095 17 9L 15 9ZM 13 11L 9.91699 11L 9.91699 13L 13 13L 13 11ZM 9.19506 11.308L 7.27807 13.308L 8.72193 14.692L 10.6389 12.692L 9.19506 11.308ZM 8.72193 13.308L 6.80494 11.308L 5.36108 12.692L 7.27807 14.692L 8.72193 13.308Z" fill="white"/>
</g>
</g>
</g>
</svg>
