<svg width="18" height="16" viewBox="0 0 18 16" version="1.1" xmlns="http://www.w3.org/2000/svg" xmlns:xlink="http://www.w3.org/1999/xlink">
<g id="Canvas" fill="none">
<g id="rotate-cw">
<path id="Vector" d="M 4.80088 0L 4.80088 4.66666L 0 4.66666" transform="translate(12.1992 1.77637)" stroke="#F8728A" stroke-linecap="round" stroke-linejoin="round"/>
<path id="Vector_2" d="M 13.9913 9.33182C 13.4712 10.7629 12.4867 11.9908 11.1862 12.8307C 9.8856 13.6705 8.33947 14.0767 6.78076 13.988C 5.22204 13.8994 3.73519 13.3207 2.54425 12.3392C 1.35331 11.3577 0.522813 10.0265 0.177904 8.5463C -0.167006 7.06607 -0.00764076 5.51697 0.631985 4.13243C 1.27161 2.74789 2.35684 1.60294 3.72414 0.870099C 5.09145 0.137259 6.66674 -0.143763 8.21265 0.069381C 9.75856 0.282525 11.1913 0.978287 12.295 2.05182L 15.9997 5.44293" transform="translate(1 1)" stroke="#F8728A" stroke-linecap="round" stroke-linejoin="round"/>
<path id="*" d="M 4.53857 4.13702L 5 3.37286L 3.21625 2.50988L 5 1.64032L 4.53857 0.862978L 2.85813 1.93676L 2.96832 0L 2.03168 0L 2.14187 1.93676L 0.461433 0.862978L 0 1.64032L 1.79063 2.50988L 0 3.37286L 0.461433 4.13702L 2.14187 3.08959L 2.03168 5L 2.96832 5L 2.85813 3.09618L 4.53857 4.13702Z" transform="translate(5 6)" fill="#F8728A"/>
</g>
</g>
</svg>
