<svg width="18" height="18" viewBox="0 0 18 18" version="1.1" xmlns="http://www.w3.org/2000/svg" xmlns:xlink="http://www.w3.org/1999/xlink">
<g id="Canvas" fill="none">
<g id="settings">
<g id="Vector" transform="translate(6 6)">
<mask id="path-1-inside-1" fill="white">
<path d="M 3 6C 4.65685 6 6 4.65685 6 3C 6 1.34315 4.65685 0 3 0C 1.34315 0 0 1.34315 0 3C 0 4.65685 1.34315 6 3 6Z"/>
</mask>
<g mask="url(#path-1-inside-1)">
<path d="M 5 3C 5 4.10457 4.10457 5 3 5L 3 7C 5.20914 7 7 5.20914 7 3L 5 3ZM 3 5C 1.89543 5 1 4.10457 1 3L -1 3C -1 5.20914 0.790861 7 3 7L 3 5ZM 1 3C 1 1.89543 1.89543 1 3 1L 3 -1C 0.790861 -1 -1 0.790861 -1 3L 1 3ZM 3 1C 4.10457 1 5 1.89543 5 3L 7 3C 7 0.790861 5.20914 -1 3 -1L 3 1Z" fill="#F8728A"/>
</g>
</g>
<path id="Vector_2" d="M 13.3818 10.1818C 13.285 10.4012 13.2561 10.6445 13.2989 10.8804C 13.3417 11.1164 13.4542 11.3341 13.6218 11.5055L 13.6655 11.5491C 13.8007 11.6842 13.908 11.8446 13.9812 12.0212C 14.0544 12.1978 14.0921 12.387 14.0921 12.5782C 14.0921 12.7693 14.0544 12.9586 13.9812 13.1352C 13.908 13.3118 13.8007 13.4722 13.6655 13.6073C 13.5304 13.7425 13.3699 13.8498 13.1934 13.923C 13.0168 13.9962 12.8275 14.0339 12.6364 14.0339C 12.4452 14.0339 12.2559 13.9962 12.0794 13.923C 11.9028 13.8498 11.7424 13.7425 11.6073 13.6073L 11.5636 13.5636C 11.3922 13.396 11.1745 13.2835 10.9386 13.2407C 10.7027 13.1979 10.4594 13.2268 10.24 13.3236C 10.0249 13.4158 9.84144 13.5689 9.71222 13.764C 9.58301 13.9591 9.51366 14.1878 9.51273 14.4218L 9.51273 14.5455C 9.51273 14.9312 9.35948 15.3012 9.0867 15.574C 8.81392 15.8468 8.44395 16 8.05818 16C 7.67241 16 7.30244 15.8468 7.02966 15.574C 6.75688 15.3012 6.60364 14.9312 6.60364 14.5455L 6.60364 14.48C 6.59801 14.2393 6.52009 14.0058 6.38001 13.81C 6.23993 13.6141 6.04417 13.4649 5.81818 13.3818C 5.59882 13.285 5.3555 13.2561 5.11957 13.2989C 4.88365 13.3417 4.66595 13.4542 4.49455 13.6218L 4.45091 13.6655C 4.31582 13.8007 4.1554 13.908 3.97882 13.9812C 3.80224 14.0544 3.61297 14.0921 3.42182 14.0921C 3.23067 14.0921 3.04139 14.0544 2.86481 13.9812C 2.68824 13.908 2.52782 13.8007 2.39273 13.6655C 2.25749 13.5304 2.1502 13.3699 2.077 13.1934C 2.00381 13.0168 1.96613 12.8275 1.96613 12.6364C 1.96613 12.4452 2.00381 12.2559 2.077 12.0794C 2.1502 11.9028 2.25749 11.7424 2.39273 11.6073L 2.43636 11.5636C 2.60403 11.3922 2.7165 11.1745 2.75928 10.9386C 2.80205 10.7027 2.77317 10.4594 2.67636 10.24C 2.58417 10.0249 2.43109 9.84144 2.23597 9.71222C 2.04085 9.58301 1.81221 9.51366 1.57818 9.51273L 1.45455 9.51273C 1.06878 9.51273 0.698807 9.35948 0.426027 9.0867C 0.153246 8.81392 0 8.44395 0 8.05818C 0 7.67241 0.153246 7.30244 0.426027 7.02966C 0.698807 6.75688 1.06878 6.60364 1.45455 6.60364L 1.52 6.60364C 1.76072 6.59801 1.99419 6.52009 2.19004 6.38001C 2.38589 6.23993 2.53507 6.04417 2.61818 5.81818C 2.71499 5.59882 2.74387 5.3555 2.70109 5.11957C 2.65832 4.88365 2.54585 4.66595 2.37818 4.49455L 2.33455 4.45091C 2.19931 4.31582 2.09202 4.1554 2.01882 3.97882C 1.94562 3.80224 1.90795 3.61297 1.90795 3.42182C 1.90795 3.23067 1.94562 3.04139 2.01882 2.86481C 2.09202 2.68824 2.19931 2.52782 2.33455 2.39273C 2.46963 2.25749 2.63005 2.1502 2.80663 2.077C 2.98321 2.00381 3.17249 1.96613 3.36364 1.96613C 3.55479 1.96613 3.74406 2.00381 3.92064 2.077C 4.09722 2.1502 4.25764 2.25749 4.39273 2.39273L 4.43636 2.43636C 4.60777 2.60403 4.82547 2.7165 5.06139 2.75928C 5.29731 2.80205 5.54064 2.77317 5.76 2.67636L 5.81818 2.67636C 6.03329 2.58417 6.21674 2.43109 6.34596 2.23597C 6.47518 2.04085 6.54452 1.81221 6.54545 1.57818L 6.54545 1.45455C 6.54545 1.06878 6.6987 0.698807 6.97148 0.426027C 7.24426 0.153246 7.61423 0 8 0C 8.38577 0 8.75574 0.153246 9.02852 0.426027C 9.3013 0.698807 9.45455 1.06878 9.45455 1.45455L 9.45455 1.52C 9.45548 1.75403 9.52482 1.98267 9.65404 2.17779C 9.78326 2.37291 9.96671 2.52599 10.1818 2.61818C 10.4012 2.71499 10.6445 2.74387 10.8804 2.70109C 11.1164 2.65832 11.3341 2.54585 11.5055 2.37818L 11.5491 2.33455C 11.6842 2.19931 11.8446 2.09202 12.0212 2.01882C 12.1978 1.94562 12.387 1.90795 12.5782 1.90795C 12.7693 1.90795 12.9586 1.94562 13.1352 2.01882C 13.3118 2.09202 13.4722 2.19931 13.6073 2.33455C 13.7425 2.46963 13.8498 2.63005 13.923 2.80663C 13.9962 2.98321 14.0339 3.17249 14.0339 3.36364C 14.0339 3.55479 13.9962 3.74406 13.923 3.92064C 13.8498 4.09722 13.7425 4.25764 13.6073 4.39273L 13.5636 4.43636C 13.396 4.60777 13.2835 4.82547 13.2407 5.06139C 13.1979 5.29731 13.2268 5.54064 13.3236 5.76L 13.3236 5.81818C 13.4158 6.03329 13.5689 6.21674 13.764 6.34596C 13.9591 6.47518 14.1878 6.54452 14.4218 6.54545L 14.5455 6.54545C 14.9312 6.54545 15.3012 6.6987 15.574 6.97148C 15.8468 7.24426 16 7.61423 16 8C 16 8.38577 15.8468 8.75574 15.574 9.02852C 15.3012 9.3013 14.9312 9.45455 14.5455 9.45455L 14.48 9.45455C 14.246 9.45548 14.0173 9.52482 13.8222 9.65404C 13.6271 9.78326 13.474 9.96671 13.3818 10.1818L 13.3818 10.1818Z" transform="translate(1 1)" stroke="#F8728A" stroke-linecap="round" stroke-linejoin="round"/>
</g>
</g>
</svg>
