<svg width="18" height="14" viewBox="0 0 18 14" version="1.1" xmlns="http://www.w3.org/2000/svg" xmlns:xlink="http://www.w3.org/1999/xlink">
<g id="Canvas" fill="none">
<g id="user-x">
<g id="Vector" transform="translate(0 9)">
<mask id="path-1-inside-1" fill="white">
<path d="M 13 5L 13 3.33333C 13 2.44928 12.6348 1.60143 11.9846 0.976311C 11.3345 0.35119 10.4528 0 9.53333 0L 3.46667 0C 2.54725 0 1.66549 0.35119 1.01536 0.976311C 0.365237 1.60143 0 2.44928 0 3.33333L 0 5"/>
</mask>
<g mask="url(#path-1-inside-1)">
<path d="M 12 5C 12 5.55228 12.4477 6 13 6C 13.5523 6 14 5.55228 14 5L 12 5ZM 13 3.33333L 14 3.33333L 13 3.33333ZM 9.53333 0L 9.53333 -1L 9.53333 0ZM 3.46667 0L 3.46667 -1L 3.46667 0ZM 0 3.33333L -1 3.33333L 0 3.33333ZM -1 5C -1 5.55228 -0.552285 6 0 6C 0.552285 6 1 5.55228 1 5L -1 5ZM 14 5L 14 3.33333L 12 3.33333L 12 5L 14 5ZM 14 3.33333C 14 2.17112 13.5195 1.06484 12.6777 0.255478L 11.2915 1.69714C 11.75 2.13802 12 2.72743 12 3.33333L 14 3.33333ZM 12.6777 0.255478C 11.8373 -0.552601 10.7056 -1 9.53333 -1L 9.53333 1C 10.1999 1 10.8317 1.25498 11.2915 1.69714L 12.6777 0.255478ZM 9.53333 -1L 3.46667 -1L 3.46667 1L 9.53333 1L 9.53333 -1ZM 3.46667 -1C 2.29441 -1 1.16266 -0.552601 0.322254 0.255478L 1.70847 1.69714C 2.16832 1.25498 2.80009 1 3.46667 1L 3.46667 -1ZM 0.322254 0.255478C -0.519482 1.06484 -1 2.17112 -1 3.33333L 1 3.33333C 1 2.72743 1.24996 2.13802 1.70847 1.69714L 0.322254 0.255478ZM -1 3.33333L -1 5L 1 5L 1 3.33333L -1 3.33333Z" fill="#F8728A"/>
</g>
</g>
<g id="Vector_2" transform="translate(3 0)">
<mask id="path-3-inside-2" fill="white">
<path d="M 3.5 7C 5.433 7 7 5.433 7 3.5C 7 1.567 5.433 0 3.5 0C 1.567 0 0 1.567 0 3.5C 0 5.433 1.567 7 3.5 7Z"/>
</mask>
<g mask="url(#path-3-inside-2)">
<path d="M 6 3.5C 6 4.88071 4.88071 6 3.5 6L 3.5 8C 5.98528 8 8 5.98528 8 3.5L 6 3.5ZM 3.5 6C 2.11929 6 1 4.88071 1 3.5L -1 3.5C -1 5.98528 1.01472 8 3.5 8L 3.5 6ZM 1 3.5C 1 2.11929 2.11929 1 3.5 1L 3.5 -1C 1.01472 -1 -1 1.01472 -1 3.5L 1 3.5ZM 3.5 1C 4.88071 1 6 2.11929 6 3.5L 8 3.5C 8 1.01472 5.98528 -1 3.5 -1L 3.5 1Z" fill="#F8728A"/>
</g>
</g>
<path id="Vector_3" d="M 0 0L 4 4" transform="translate(13.1104 2.44434)" stroke="#F8728A" stroke-linecap="round" stroke-linejoin="round"/>
<path id="Vector_4" d="M 4 0L 0 4" transform="translate(13.1104 2.44434)" stroke="#F8728A" stroke-linecap="round" stroke-linejoin="round"/>
</g>
</g>
</svg>
