<svg width="56" height="56" viewBox="0 0 56 56" version="1.1" xmlns="http://www.w3.org/2000/svg" xmlns:xlink="http://www.w3.org/1999/xlink">
<g fill="none">
<g filter="url(#filter0_d)">
<path d="M 15.7506 6.99688C 15.6225 6.915 14.6131 6.31189 14.2131 6.12813L 13.7168 4.92815C 13.8643 4.53127 14.1475 3.41941 14.1968 3.2256C 14.2368 3.04623 14.1825 2.85935 14.0525 2.72935L 13.2706 1.95186C 13.1412 1.82123 12.9537 1.76687 12.7744 1.80811C 12.6269 1.84186 11.4944 2.12811 11.0718 2.2881L 9.87183 1.79185C 9.69746 1.40811 9.10997 0.42374 9.00309 0.254365C 8.90684 0.0968662 8.73559 0 8.5506 0L 7.44936 0C 7.26562 0 7.095 0.0943734 6.99687 0.249373C 6.915 0.377497 6.31189 1.38687 6.12813 1.78686L 4.92814 2.28311C 4.53127 2.13561 3.41941 1.85249 3.2256 1.80312C 3.04623 1.76312 2.85935 1.81749 2.72935 1.94749L 1.95186 2.72935C 1.82123 2.85873 1.76687 3.04623 1.80811 3.2256C 1.84186 3.3731 2.1281 4.50559 2.2881 4.92815L 1.79185 6.12813C 1.40811 6.3025 0.423739 6.89 0.254365 6.99688C 0.0968661 7.09313 0 7.26438 0 7.44937L 0 8.54873C 0 8.73247 0.0943733 8.9031 0.249373 9.00185C 0.377496 9.08372 1.38686 9.68683 1.78686 9.87059L 2.28311 11.0706C 2.13561 11.4675 1.85249 12.5793 1.80312 12.7731L 1.80312 12.7725C 1.76312 12.9519 1.81749 13.1394 1.94749 13.2687L 2.72498 14.0462C 2.85436 14.1769 3.04186 14.2312 3.22061 14.1906C 3.36811 14.1569 4.5006 13.8706 4.92315 13.7106L 6.12314 14.2069C 6.2975 14.5906 6.885 15.575 6.99188 15.7444L 6.99188 15.7437C 7.08875 15.9037 7.2625 16.0012 7.44938 16L 8.54874 16C 8.73248 16 8.9031 15.9056 9.00186 15.7506C 9.08373 15.6225 9.68684 14.6131 9.8706 14.2131L 11.0706 13.7169C 11.4675 13.8644 12.5793 14.1475 12.7731 14.1969L 12.7725 14.1969C 12.9519 14.2369 13.1394 14.1825 13.2687 14.0525L 14.0462 13.275C 14.1769 13.1456 14.2312 12.9581 14.1906 12.7794C 14.1569 12.6319 13.8706 11.4994 13.7106 11.0768L 14.2069 9.87685C 14.5906 9.70248 15.575 9.11498 15.7444 9.0081L 15.7437 9.0081C 15.9037 8.91123 16.0012 8.73748 16 8.5506L 16 7.44937C 16.0012 7.26562 15.9069 7.09374 15.7506 6.99688L 15.7506 6.99688ZM 8.00011 11.4831C 7.07576 11.4824 6.18893 11.1143 5.53582 10.46C 4.88271 9.8056 4.51646 8.91811 4.51708 7.99375C 4.51771 7.06876 4.88583 6.18257 5.54019 5.52945C 6.19455 4.87634 7.08204 4.50946 8.0064 4.51071C 8.93138 4.51134 9.81758 4.87946 10.4707 5.53382C 11.1238 6.18818 11.4907 7.07568 11.4894 8.00003C 11.4876 8.92439 11.1188 9.80994 10.4651 10.4632C 9.81072 11.1157 8.92447 11.4826 8.00014 11.4832L 8.00011 11.4831Z" transform="translate(20 19)" fill="#F8728A"/>
</g>
</g>
<defs>
<filter id="filter0_d" x="0" y="0" width="56" height="56" filterUnits="userSpaceOnUse" color-interpolation-filters="sRGB">
<feFlood flood-opacity="0" result="BackgroundImageFix"/>
<feColorMatrix in="SourceAlpha" type="matrix" values="0 0 0 0 0 0 0 0 0 0 0 0 0 0 0 0 0 0 255 0"/>
<feOffset dy="1"/>
<feGaussianBlur stdDeviation="10"/>
<feColorMatrix type="matrix" values="0 0 0 0 0 0 0 0 0 0 0 0 0 0 0 0 0 0 0.1 0"/>
<feBlend mode="normal" in2="BackgroundImageFix" result="effect1_dropShadow"/>
<feBlend mode="normal" in="SourceGraphic" in2="effect1_dropShadow" result="shape"/>
</filter>
</defs>
</svg>
