<svg width="16" height="18" viewBox="0 0 16 18" version="1.1" xmlns="http://www.w3.org/2000/svg" xmlns:xlink="http://www.w3.org/1999/xlink">
<g id="Canvas" fill="none">
<path id="Vector" fill-rule="evenodd" clip-rule="evenodd" d="M 6.49995 2.14899C 3.91273 2.80225 1.99998 5.10849 1.99998 7.85462L 1.99998 11.7819C 1.99998 12.1437 1.70051 12.4364 1.33462 12.4364C 0.597662 12.4364 0 13.0245 0 13.7455C 0 14.469 0.597662 15.0546 1.33722 15.0546L 14.6628 15.0546C 15.401 15.0546 16 14.4665 16 13.7455C 16 13.0219 15.3997 12.4364 14.6654 12.4364C 14.2982 12.4364 14 12.1449 14 11.7819L 14 7.85462C 14 5.1099 12.0886 2.80353 9.50005 2.14899L 9.50005 1.47272C 9.50005 0.657093 8.82819 -1.77777e-07 8.00007 -1.77777e-07C 7.17324 -1.77777e-07 6.50008 0.659646 6.50008 1.47272L 6.49995 2.14899ZM 5.66662 15.7091L 10.3332 15.7091C 10.3332 16.9747 9.28899 18 7.99993 18C 6.71088 18 5.66662 16.9747 5.66662 15.7091Z" fill="#F8728A"/>
</g>
</svg>
